<svg width="4077" height="1696" xmlns="http://www.w3.org/2000/svg" xmlns:xlink="http://www.w3.org/1999/xlink" xml:space="preserve" overflow="hidden"><defs><clipPath id="clip0"><rect x="163" y="831" width="4077" height="1696"/></clipPath><clipPath id="clip1"><rect x="165" y="550" width="4066" height="709"/></clipPath><clipPath id="clip2"><rect x="165" y="803" width="473" height="355"/></clipPath><clipPath id="clip3"><rect x="637" y="803" width="291" height="355"/></clipPath><clipPath id="clip4"><rect x="927" y="803" width="382" height="355"/></clipPath><clipPath id="clip5"><rect x="1308" y="644" width="378" height="726"/></clipPath><clipPath id="clip6"><rect x="1308" y="644" width="378" height="726"/></clipPath><clipPath id="clip7"><rect x="1685" y="803" width="892" height="355"/></clipPath><clipPath id="clip8"><rect x="2576" y="803" width="476" height="355"/></clipPath><clipPath id="clip9"><rect x="3051" y="803" width="438" height="355"/></clipPath><clipPath id="clip10"><rect x="3488" y="803" width="412" height="355"/></clipPath><clipPath id="clip11"><rect x="3899" y="803" width="332" height="355"/></clipPath><clipPath id="clip12"><rect x="165" y="822" width="473" height="552"/></clipPath><clipPath id="clip13"><rect x="637" y="906" width="291" height="356"/></clipPath><clipPath id="clip14"><rect x="927" y="906" width="382" height="356"/></clipPath><clipPath id="clip15"><rect x="1308" y="906" width="378" height="356"/></clipPath><clipPath id="clip16"><rect x="1685" y="589" width="892" height="1096"/></clipPath><clipPath id="clip17"><rect x="1685" y="589" width="892" height="1096"/></clipPath><clipPath id="clip18"><rect x="1685" y="589" width="892" height="1096"/></clipPath><clipPath id="clip19"><rect x="1685" y="589" width="892" height="1096"/></clipPath><clipPath id="clip20"><rect x="2576" y="906" width="476" height="356"/></clipPath><clipPath id="clip21"><rect x="3051" y="906" width="438" height="356"/></clipPath><clipPath id="clip22"><rect x="3488" y="906" width="412" height="356"/></clipPath><clipPath id="clip23"><rect x="3899" y="906" width="332" height="356"/></clipPath><clipPath id="clip24"><rect x="637" y="1070" width="291" height="356"/></clipPath><clipPath id="clip25"><rect x="927" y="1070" width="382" height="356"/></clipPath><clipPath id="clip26"><rect x="1308" y="1070" width="378" height="356"/></clipPath><clipPath id="clip27"><rect x="1685" y="912" width="892" height="726"/></clipPath><clipPath id="clip28"><rect x="1685" y="912" width="892" height="726"/></clipPath><clipPath id="clip29"><rect x="2576" y="1070" width="476" height="356"/></clipPath><clipPath id="clip30"><rect x="3051" y="1070" width="438" height="356"/></clipPath><clipPath id="clip31"><rect x="637" y="1193" width="291" height="356"/></clipPath><clipPath id="clip32"><rect x="927" y="1193" width="382" height="356"/></clipPath><clipPath id="clip33"><rect x="1308" y="1193" width="378" height="356"/></clipPath><clipPath id="clip34"><rect x="1685" y="1034" width="892" height="727"/></clipPath><clipPath id="clip35"><rect x="1685" y="1034" width="892" height="727"/></clipPath><clipPath id="clip36"><rect x="2576" y="1193" width="476" height="356"/></clipPath><clipPath id="clip37"><rect x="3051" y="1193" width="438" height="356"/></clipPath><clipPath id="clip38"><rect x="637" y="1316" width="291" height="356"/></clipPath><clipPath id="clip39"><rect x="927" y="1316" width="382" height="356"/></clipPath><clipPath id="clip40"><rect x="1308" y="1316" width="378" height="356"/></clipPath><clipPath id="clip41"><rect x="1685" y="1157" width="892" height="726"/></clipPath><clipPath id="clip42"><rect x="1685" y="1157" width="892" height="726"/></clipPath><clipPath id="clip43"><rect x="2576" y="1316" width="476" height="356"/></clipPath><clipPath id="clip44"><rect x="3051" y="1316" width="438" height="356"/></clipPath><clipPath id="clip45"><rect x="165" y="841" width="473" height="1706"/></clipPath><clipPath id="clip46"><rect x="165" y="841" width="473" height="1706"/></clipPath><clipPath id="clip47"><rect x="165" y="841" width="473" height="1706"/></clipPath><clipPath id="clip48"><rect x="637" y="1420" width="291" height="355"/></clipPath><clipPath id="clip49"><rect x="927" y="1420" width="382" height="355"/></clipPath><clipPath id="clip50"><rect x="1308" y="1420" width="378" height="355"/></clipPath><clipPath id="clip51"><rect x="1685" y="943" width="892" height="1468"/></clipPath><clipPath id="clip52"><rect x="1685" y="943" width="892" height="1468"/></clipPath><clipPath id="clip53"><rect x="1685" y="943" width="892" height="1468"/></clipPath><clipPath id="clip54"><rect x="1685" y="943" width="892" height="1468"/></clipPath><clipPath id="clip55"><rect x="2576" y="1261" width="476" height="726"/></clipPath><clipPath id="clip56"><rect x="3051" y="1102" width="438" height="1097"/></clipPath><clipPath id="clip57"><rect x="3051" y="1102" width="438" height="1097"/></clipPath><clipPath id="clip58"><rect x="3051" y="1102" width="438" height="1097"/></clipPath><clipPath id="clip59"><rect x="3488" y="1420" width="412" height="355"/></clipPath><clipPath id="clip60"><rect x="3899" y="1420" width="332" height="355"/></clipPath><clipPath id="clip61"><rect x="165" y="1085" width="473" height="1705"/></clipPath><clipPath id="clip62"><rect x="165" y="1085" width="473" height="1705"/></clipPath><clipPath id="clip63"><rect x="165" y="1085" width="473" height="1705"/></clipPath><clipPath id="clip64"><rect x="637" y="1663" width="291" height="356"/></clipPath><clipPath id="clip65"><rect x="927" y="1663" width="382" height="356"/></clipPath><clipPath id="clip66"><rect x="1308" y="1663" width="378" height="356"/></clipPath><clipPath id="clip67"><rect x="1685" y="1504" width="892" height="726"/></clipPath><clipPath id="clip68"><rect x="1685" y="1504" width="892" height="726"/></clipPath><clipPath id="clip69"><rect x="2576" y="1504" width="476" height="726"/></clipPath><clipPath id="clip70"><rect x="3051" y="1504" width="438" height="726"/></clipPath><clipPath id="clip71"><rect x="3051" y="1504" width="438" height="726"/></clipPath><clipPath id="clip72"><rect x="3488" y="1663" width="412" height="356"/></clipPath><clipPath id="clip73"><rect x="3899" y="1663" width="332" height="356"/></clipPath><clipPath id="clip74"><rect x="637" y="1807" width="291" height="355"/></clipPath><clipPath id="clip75"><rect x="927" y="1807" width="382" height="355"/></clipPath><clipPath id="clip76"><rect x="1308" y="1807" width="378" height="355"/></clipPath><clipPath id="clip77"><rect x="1685" y="1648" width="892" height="726"/></clipPath><clipPath id="clip78"><rect x="1685" y="1648" width="892" height="726"/></clipPath><clipPath id="clip79"><rect x="2576" y="1648" width="476" height="726"/></clipPath><clipPath id="clip80"><rect x="3051" y="1648" width="438" height="726"/></clipPath><clipPath id="clip81"><rect x="3051" y="1648" width="438" height="726"/></clipPath><clipPath id="clip82"><rect x="165" y="1104" width="473" height="2282"/></clipPath><clipPath id="clip83"><rect x="165" y="1104" width="473" height="2282"/></clipPath><clipPath id="clip84"><rect x="165" y="1104" width="473" height="2282"/></clipPath><clipPath id="clip85"><rect x="165" y="1104" width="473" height="2282"/></clipPath><clipPath id="clip86"><rect x="637" y="1930" width="291" height="355"/></clipPath><clipPath id="clip87"><rect x="927" y="1930" width="382" height="355"/></clipPath><clipPath id="clip88"><rect x="1308" y="1930" width="378" height="355"/></clipPath><clipPath id="clip89"><rect x="1685" y="1612" width="892" height="1097"/></clipPath><clipPath id="clip90"><rect x="1685" y="1612" width="892" height="1097"/></clipPath><clipPath id="clip91"><rect x="1685" y="1612" width="892" height="1097"/></clipPath><clipPath id="clip92"><rect x="2576" y="1771" width="476" height="726"/></clipPath><clipPath id="clip93"><rect x="3051" y="1453" width="438" height="1468"/></clipPath><clipPath id="clip94"><rect x="3051" y="1453" width="438" height="1468"/></clipPath><clipPath id="clip95"><rect x="3051" y="1453" width="438" height="1468"/></clipPath><clipPath id="clip96"><rect x="3051" y="1453" width="438" height="1468"/></clipPath><clipPath id="clip97"><rect x="3488" y="1930" width="412" height="355"/></clipPath><clipPath id="clip98"><rect x="3899" y="1930" width="332" height="355"/></clipPath><clipPath id="clip99"><rect x="637" y="2139" width="291" height="356"/></clipPath><clipPath id="clip100"><rect x="927" y="2139" width="382" height="356"/></clipPath><clipPath id="clip101"><rect x="1308" y="2139" width="378" height="356"/></clipPath><clipPath id="clip102"><rect x="1685" y="1980" width="892" height="726"/></clipPath><clipPath id="clip103"><rect x="1685" y="1980" width="892" height="726"/></clipPath><clipPath id="clip104"><rect x="2576" y="1980" width="476" height="726"/></clipPath><clipPath id="clip105"><rect x="3051" y="1663" width="438" height="1467"/></clipPath><clipPath id="clip106"><rect x="3051" y="1663" width="438" height="1467"/></clipPath><clipPath id="clip107"><rect x="3051" y="1663" width="438" height="1467"/></clipPath><clipPath id="clip108"><rect x="3051" y="1663" width="438" height="1467"/></clipPath></defs><g clip-path="url(#clip0)" transform="translate(-163 -831)"><path d="M165.62 853.874 4230.79 853.874 4230.79 955.097 165.62 955.097Z" fill="#6EBAB5" fill-rule="evenodd"/><path d="M165.62 955.097 637.314 955.097 637.314 1058.68 165.62 1058.68Z" fill="#6EBAB5" fill-rule="evenodd"/><path d="M637.314 955.097 927.962 955.097 927.962 1058.68 637.314 1058.68Z" fill="#6EBAB5" fill-rule="evenodd"/><path d="M927.962 955.097 1308.97 955.097 1308.97 1058.68 927.962 1058.68Z" fill="#6EBAB5" fill-rule="evenodd"/><path d="M1308.97 955.097 1685.44 955.097 1685.44 1058.68 1308.97 1058.68Z" fill="#6EBAB5" fill-rule="evenodd"/><path d="M1685.44 955.097 2576.08 955.097 2576.08 1058.68 1685.44 1058.68Z" fill="#6EBAB5" fill-rule="evenodd"/><path d="M2576.08 955.097 3051.57 955.097 3051.57 1058.68 2576.08 1058.68Z" fill="#6EBAB5" fill-rule="evenodd"/><path d="M3051.57 955.097 3488.02 955.097 3488.02 1058.68 3051.57 1058.68Z" fill="#6EBAB5" fill-rule="evenodd"/><path d="M3488.02 955.097 3899.63 955.097 3899.63 1058.68 3488.02 1058.68Z" fill="#6EBAB5" fill-rule="evenodd"/><path d="M3899.63 955.097 4230.79 955.097 4230.79 1058.68 3899.63 1058.68Z" fill="#6EBAB5" fill-rule="evenodd"/><path d="M165.62 1058.68 637.314 1058.68 637.314 1572.14 165.62 1572.14Z" fill="#6EBAB5" fill-rule="evenodd"/><path d="M637.314 1058.68 927.962 1058.68 927.962 1222.81 637.314 1222.81Z" fill="#6EBAB5" fill-rule="evenodd"/><path d="M927.962 1058.68 1308.97 1058.68 1308.97 1222.81 927.962 1222.81Z" fill="#6EBAB5" fill-rule="evenodd"/><path d="M1308.97 1058.68 1685.44 1058.68 1685.44 1222.81 1308.97 1222.81Z" fill="#6EBAB5" fill-rule="evenodd"/><path d="M1685.44 1058.68 2576.08 1058.68 2576.08 1222.81 1685.44 1222.81Z" fill="#6EBAB5" fill-rule="evenodd"/><path d="M2576.08 1058.68 3051.57 1058.68 3051.57 1222.81 2576.08 1222.81Z" fill="#6EBAB5" fill-rule="evenodd"/><path d="M3051.57 1058.68 3488.02 1058.68 3488.02 1222.81 3051.57 1222.81Z" fill="#6EBAB5" fill-rule="evenodd"/><path d="M3488.02 1058.68 3899.63 1058.68 3899.63 1572.14 3488.02 1572.14Z" fill="#6EBAB5" fill-rule="evenodd"/><path d="M3899.63 1058.68 4230.79 1058.68 4230.79 1572.14 3899.63 1572.14Z" fill="#6EBAB5" fill-rule="evenodd"/><path d="M637.314 1222.81 927.962 1222.81 927.962 1345.69 637.314 1345.69Z" fill="#6EBAB5" fill-rule="evenodd"/><path d="M927.962 1222.81 1308.97 1222.81 1308.97 1345.69 927.962 1345.69Z" fill="#6EBAB5" fill-rule="evenodd"/><path d="M1308.97 1222.81 1685.44 1222.81 1685.44 1345.69 1308.97 1345.69Z" fill="#6EBAB5" fill-rule="evenodd"/><path d="M1685.44 1222.81 2576.08 1222.81 2576.08 1345.69 1685.44 1345.69Z" fill="#6EBAB5" fill-rule="evenodd"/><path d="M2576.08 1222.81 3051.57 1222.81 3051.57 1345.69 2576.08 1345.69Z" fill="#6EBAB5" fill-rule="evenodd"/><path d="M3051.57 1222.81 3488.02 1222.81 3488.02 1345.69 3051.57 1345.69Z" fill="#6EBAB5" fill-rule="evenodd"/><path d="M637.314 1345.69 927.962 1345.69 927.962 1468.56 637.314 1468.56Z" fill="#6EBAB5" fill-rule="evenodd"/><path d="M927.962 1345.69 1308.97 1345.69 1308.97 1468.56 927.962 1468.56Z" fill="#6EBAB5" fill-rule="evenodd"/><path d="M1308.97 1345.69 1685.44 1345.69 1685.44 1468.56 1308.97 1468.56Z" fill="#6EBAB5" fill-rule="evenodd"/><path d="M1685.44 1345.69 2576.08 1345.69 2576.08 1468.56 1685.44 1468.56Z" fill="#6EBAB5" fill-rule="evenodd"/><path d="M2576.08 1345.69 3051.57 1345.69 3051.57 1468.56 2576.08 1468.56Z" fill="#6EBAB5" fill-rule="evenodd"/><path d="M3051.57 1345.69 3488.02 1345.69 3488.02 1468.56 3051.57 1468.56Z" fill="#6EBAB5" fill-rule="evenodd"/><path d="M637.314 1468.56 927.962 1468.56 927.962 1572.14 637.314 1572.14Z" fill="#6EBAB5" fill-rule="evenodd"/><path d="M927.962 1468.56 1308.97 1468.56 1308.97 1572.14 927.962 1572.14Z" fill="#6EBAB5" fill-rule="evenodd"/><path d="M1308.97 1468.56 1685.44 1468.56 1685.44 1572.14 1308.97 1572.14Z" fill="#6EBAB5" fill-rule="evenodd"/><path d="M1685.44 1468.56 2576.08 1468.56 2576.08 1572.14 1685.44 1572.14Z" fill="#6EBAB5" fill-rule="evenodd"/><path d="M2576.08 1468.56 3051.57 1468.56 3051.57 1572.14 2576.08 1572.14Z" fill="#6EBAB5" fill-rule="evenodd"/><path d="M3051.57 1468.56 3488.02 1468.56 3488.02 1572.14 3051.57 1572.14Z" fill="#6EBAB5" fill-rule="evenodd"/><path d="M165.62 1572.14 637.314 1572.14 637.314 1815.65 165.62 1815.65Z" fill="#6EBAB5" fill-rule="evenodd"/><path d="M637.314 1572.14 927.962 1572.14 927.962 1815.65 637.314 1815.65Z" fill="#6EBAB5" fill-rule="evenodd"/><path d="M927.962 1572.14 1308.97 1572.14 1308.97 1815.65 927.962 1815.65Z" fill="#6EBAB5" fill-rule="evenodd"/><path d="M1308.97 1572.14 1685.44 1572.14 1685.44 1815.65 1308.97 1815.65Z" fill="#6EBAB5" fill-rule="evenodd"/><path d="M1685.44 1572.14 2576.08 1572.14 2576.08 1815.65 1685.44 1815.65Z" fill="#6EBAB5" fill-rule="evenodd"/><path d="M2576.08 1572.14 3051.57 1572.14 3051.57 1815.65 2576.08 1815.65Z" fill="#6EBAB5" fill-rule="evenodd"/><path d="M3051.57 1572.14 3488.02 1572.14 3488.02 1815.65 3051.57 1815.65Z" fill="#6EBAB5" fill-rule="evenodd"/><path d="M3488.02 1572.14 3899.63 1572.14 3899.63 1815.65 3488.02 1815.65Z" fill="#6EBAB5" fill-rule="evenodd"/><path d="M3899.63 1572.14 4230.79 1572.14 4230.79 1815.65 3899.63 1815.65Z" fill="#6EBAB5" fill-rule="evenodd"/><path d="M165.62 1815.65 637.314 1815.65 637.314 2082.03 165.62 2082.03Z" fill="#6EBAB5" fill-rule="evenodd"/><path d="M637.314 1815.65 927.962 1815.65 927.962 1959.16 637.314 1959.16Z" fill="#6EBAB5" fill-rule="evenodd"/><path d="M927.962 1815.65 1308.97 1815.65 1308.97 1959.16 927.962 1959.16Z" fill="#6EBAB5" fill-rule="evenodd"/><path d="M1308.97 1815.65 1685.44 1815.65 1685.44 1959.16 1308.97 1959.16Z" fill="#6EBAB5" fill-rule="evenodd"/><path d="M1685.44 1815.65 2576.08 1815.65 2576.08 1959.16 1685.44 1959.16Z" fill="#6EBAB5" fill-rule="evenodd"/><path d="M2576.08 1815.65 3051.57 1815.65 3051.57 1959.16 2576.08 1959.16Z" fill="#6EBAB5" fill-rule="evenodd"/><path d="M3051.57 1815.65 3488.02 1815.65 3488.02 1959.16 3051.57 1959.16Z" fill="#6EBAB5" fill-rule="evenodd"/><path d="M3488.02 1815.65 3899.63 1815.65 3899.63 2082.03 3488.02 2082.03Z" fill="#6EBAB5" fill-rule="evenodd"/><path d="M3899.63 1815.65 4230.79 1815.65 4230.79 2082.03 3899.63 2082.03Z" fill="#6EBAB5" fill-rule="evenodd"/><path d="M637.314 1959.16 927.962 1959.16 927.962 2082.03 637.314 2082.03Z" fill="#6EBAB5" fill-rule="evenodd"/><path d="M927.962 1959.16 1308.97 1959.16 1308.97 2082.03 927.962 2082.03Z" fill="#6EBAB5" fill-rule="evenodd"/><path d="M1308.97 1959.16 1685.44 1959.16 1685.44 2082.03 1308.97 2082.03Z" fill="#6EBAB5" fill-rule="evenodd"/><path d="M1685.44 1959.16 2576.08 1959.16 2576.08 2082.03 1685.44 2082.03Z" fill="#6EBAB5" fill-rule="evenodd"/><path d="M2576.08 1959.16 3051.57 1959.16 3051.57 2082.03 2576.08 2082.03Z" fill="#6EBAB5" fill-rule="evenodd"/><path d="M3051.57 1959.16 3488.02 1959.16 3488.02 2082.03 3051.57 2082.03Z" fill="#6EBAB5" fill-rule="evenodd"/><path d="M165.62 2082.03 637.314 2082.03 637.314 2501.04 165.62 2501.04Z" fill="#6EBAB5" fill-rule="evenodd"/><path d="M637.314 2082.03 927.962 2082.03 927.962 2291.53 637.314 2291.53Z" fill="#6EBAB5" fill-rule="evenodd"/><path d="M927.962 2082.03 1308.97 2082.03 1308.97 2291.53 927.962 2291.53Z" fill="#6EBAB5" fill-rule="evenodd"/><path d="M1308.97 2082.03 1685.44 2082.03 1685.44 2291.53 1308.97 2291.53Z" fill="#6EBAB5" fill-rule="evenodd"/><path d="M1685.44 2082.03 2576.08 2082.03 2576.08 2291.53 1685.44 2291.53Z" fill="#6EBAB5" fill-rule="evenodd"/><path d="M2576.08 2082.03 3051.57 2082.03 3051.57 2291.53 2576.08 2291.53Z" fill="#6EBAB5" fill-rule="evenodd"/><path d="M3051.57 2082.03 3488.02 2082.03 3488.02 2291.53 3051.57 2291.53Z" fill="#6EBAB5" fill-rule="evenodd"/><path d="M3488.02 2082.03 3899.63 2082.03 3899.63 2501.04 3488.02 2501.04Z" fill="#6EBAB5" fill-rule="evenodd"/><path d="M3899.63 2082.03 4230.79 2082.03 4230.79 2501.04 3899.63 2501.04Z" fill="#6EBAB5" fill-rule="evenodd"/><path d="M637.314 2291.53 927.962 2291.53 927.962 2501.04 637.314 2501.04Z" fill="#6EBAB5" fill-rule="evenodd"/><path d="M927.962 2291.53 1308.97 2291.53 1308.97 2501.04 927.962 2501.04Z" fill="#6EBAB5" fill-rule="evenodd"/><path d="M1308.97 2291.53 1685.44 2291.53 1685.44 2501.04 1308.97 2501.04Z" fill="#6EBAB5" fill-rule="evenodd"/><path d="M1685.44 2291.53 2576.08 2291.53 2576.08 2501.04 1685.44 2501.04Z" fill="#6EBAB5" fill-rule="evenodd"/><path d="M2576.08 2291.53 3051.57 2291.53 3051.57 2501.04 2576.08 2501.04Z" fill="#6EBAB5" fill-rule="evenodd"/><path d="M3051.57 2291.53 3488.02 2291.53 3488.02 2501.04 3051.57 2501.04Z" fill="#6EBAB5" fill-rule="evenodd"/><path d="M637.314 948.222 637.314 2503.33" stroke="#FFFFFF" stroke-width="4.58333" stroke-linejoin="round" stroke-miterlimit="10" fill="none" fill-rule="evenodd"/><path d="M927.962 948.222 927.962 2503.33" stroke="#FFFFFF" stroke-width="4.58333" stroke-linejoin="round" stroke-miterlimit="10" fill="none" fill-rule="evenodd"/><path d="M1308.97 948.222 1308.97 2503.33" stroke="#FFFFFF" stroke-width="4.58333" stroke-linejoin="round" stroke-miterlimit="10" fill="none" fill-rule="evenodd"/><path d="M1685.44 948.222 1685.44 2503.33" stroke="#FFFFFF" stroke-width="4.58333" stroke-linejoin="round" stroke-miterlimit="10" fill="none" fill-rule="evenodd"/><path d="M2576.08 948.222 2576.08 2503.33" stroke="#FFFFFF" stroke-width="4.58333" stroke-linejoin="round" stroke-miterlimit="10" fill="none" fill-rule="evenodd"/><path d="M3051.57 948.222 3051.57 2503.33" stroke="#FFFFFF" stroke-width="4.58333" stroke-linejoin="round" stroke-miterlimit="10" fill="none" fill-rule="evenodd"/><path d="M3488.02 948.222 3488.02 2503.33" stroke="#FFFFFF" stroke-width="4.58333" stroke-linejoin="round" stroke-miterlimit="10" fill="none" fill-rule="evenodd"/><path d="M3899.63 948.222 3899.63 2503.33" stroke="#FFFFFF" stroke-width="4.58333" stroke-linejoin="round" stroke-miterlimit="10" fill="none" fill-rule="evenodd"/><path d="M163.329 955.097 4233.08 955.097" stroke="#FFFFFF" stroke-width="13.75" stroke-linejoin="round" stroke-miterlimit="10" fill="none" fill-rule="evenodd"/><path d="M163.329 1058.68 4233.08 1058.68" stroke="#FFFFFF" stroke-width="4.58333" stroke-linejoin="round" stroke-miterlimit="10" fill="none" fill-rule="evenodd"/><path d="M635.022 1222.81 3490.31 1222.81" stroke="#FFFFFF" stroke-width="4.58333" stroke-linejoin="round" stroke-miterlimit="10" fill="none" fill-rule="evenodd"/><path d="M635.022 1345.69 3490.31 1345.69" stroke="#FFFFFF" stroke-width="4.58333" stroke-linejoin="round" stroke-miterlimit="10" fill="none" fill-rule="evenodd"/><path d="M635.022 1468.56 3490.31 1468.56" stroke="#FFFFFF" stroke-width="4.58333" stroke-linejoin="round" stroke-miterlimit="10" fill="none" fill-rule="evenodd"/><path d="M163.329 1572.14 4233.08 1572.14" stroke="#FFFFFF" stroke-width="4.58333" stroke-linejoin="round" stroke-miterlimit="10" fill="none" fill-rule="evenodd"/><path d="M163.329 1815.65 4233.08 1815.65" stroke="#FFFFFF" stroke-width="4.58333" stroke-linejoin="round" stroke-miterlimit="10" fill="none" fill-rule="evenodd"/><path d="M635.022 1959.16 3490.31 1959.16" stroke="#FFFFFF" stroke-width="4.58333" stroke-linejoin="round" stroke-miterlimit="10" fill="none" fill-rule="evenodd"/><path d="M163.329 2082.03 4233.08 2082.03" stroke="#FFFFFF" stroke-width="4.58333" stroke-linejoin="round" stroke-miterlimit="10" fill="none" fill-rule="evenodd"/><path d="M635.022 2291.53 3490.31 2291.53" stroke="#FFFFFF" stroke-width="4.58333" stroke-linejoin="round" stroke-miterlimit="10" fill="none" fill-rule="evenodd"/><path d="M165.62 851.583 165.62 2503.33" stroke="#FFFFFF" stroke-width="4.58333" stroke-linejoin="round" stroke-miterlimit="10" fill="none" fill-rule="evenodd"/><path d="M4230.79 851.583 4230.79 2503.33" stroke="#FFFFFF" stroke-width="4.58333" stroke-linejoin="round" stroke-miterlimit="10" fill="none" fill-rule="evenodd"/><path d="M163.329 853.874 4233.08 853.874" stroke="#FFFFFF" stroke-width="4.58333" stroke-linejoin="round" stroke-miterlimit="10" fill="none" fill-rule="evenodd"/><path d="M163.329 2501.04 4233.08 2501.04" stroke="#FFFFFF" stroke-width="4.58333" stroke-linejoin="round" stroke-miterlimit="10" fill="none" fill-rule="evenodd"/><g clip-path="url(#clip1)"><text fill="#FFFFFF" font-family="Calibri,Calibri_MSFontService,sans-serif" font-weight="700" font-size="83" transform="matrix(1 0 0 1 174.383 933)">Fase Inicial (31%)</text></g><g clip-path="url(#clip2)"><text fill="#FFFFFF" font-family="Calibri,Calibri_MSFontService,sans-serif" font-weight="700" font-size="41" transform="matrix(1 0 0 1 174.383 995)">Actividades</text></g><g clip-path="url(#clip3)"><text font-family="Calibri,Calibri_MSFontService,sans-serif" font-weight="400" font-size="41" transform="matrix(1 0 0 1 646.076 995)">Tiempo total</text></g><g clip-path="url(#clip4)"><text font-family="Calibri,Calibri_MSFontService,sans-serif" font-weight="400" font-size="41" transform="matrix(1 0 0 1 936.724 995)">Tiempo de inicio</text></g><g clip-path="url(#clip5)"><text font-family="Calibri,Calibri_MSFontService,sans-serif" font-weight="400" font-size="41" transform="matrix(1 0 0 1 1317.73 995)">Tiempo de </text></g><g clip-path="url(#clip6)"><text font-family="Calibri,Calibri_MSFontService,sans-serif" font-weight="400" font-size="41" transform="matrix(1 0 0 1 1317.73 1048)">conclusión </text></g><g clip-path="url(#clip7)"><text font-family="Calibri,Calibri_MSFontService,sans-serif" font-weight="400" font-size="41" transform="matrix(1 0 0 1 1694.2 995)">Tareas</text></g><g clip-path="url(#clip8)"><text font-family="Calibri,Calibri_MSFontService,sans-serif" font-weight="400" font-size="41" transform="matrix(1 0 0 1 2584.85 995)">Recursos materiales</text></g><g clip-path="url(#clip9)"><text font-family="Calibri,Calibri_MSFontService,sans-serif" font-weight="400" font-size="41" transform="matrix(1 0 0 1 3060.33 995)">Recursos tecnológicos</text></g><g clip-path="url(#clip10)"><text font-family="Calibri,Calibri_MSFontService,sans-serif" font-weight="400" font-size="41" transform="matrix(1 0 0 1 3496.78 995)">Recursos financieros</text></g><g clip-path="url(#clip11)"><text font-family="Calibri,Calibri_MSFontService,sans-serif" font-weight="400" font-size="41" transform="matrix(1 0 0 1 3908.4 995)">Responsable</text></g><g clip-path="url(#clip12)"><text fill="#FFFFFF" font-family="Calibri,Calibri_MSFontService,sans-serif" font-weight="700" font-size="64" transform="matrix(1 0 0 1 174.383 1121)">1.Investigación.</text></g><g clip-path="url(#clip13)"><text font-family="Calibri,Calibri_MSFontService,sans-serif" font-weight="400" font-size="41" transform="matrix(1 0 0 1 646.076 1099)">1 dia</text></g><g clip-path="url(#clip14)"><text font-family="Calibri,Calibri_MSFontService,sans-serif" font-weight="400" font-size="41" transform="matrix(1 0 0 1 936.724 1099)">4 de Julio</text></g><g clip-path="url(#clip15)"><text font-family="Calibri,Calibri_MSFontService,sans-serif" font-weight="400" font-size="41" transform="matrix(1 0 0 1 1317.73 1099)">4 de Julio</text></g><g clip-path="url(#clip16)"><text font-family="Calibri,Calibri_MSFontService,sans-serif" font-weight="700" font-size="41" transform="matrix(1 0 0 1 1694.2 1099)">1.1</text></g><g clip-path="url(#clip17)"><text font-family="Calibri,Calibri_MSFontService,sans-serif" font-weight="400" font-size="41" transform="matrix(1 0 0 1 1755.5 1099)">Investigar el estado del agua potable en jalisco y </text></g><g clip-path="url(#clip18)"><text font-family="Calibri,Calibri_MSFontService,sans-serif" font-weight="400" font-size="41" transform="matrix(1 0 0 1 1694.2 1152)">las consecuencias de una sequía y contaminación </text></g><g clip-path="url(#clip19)"><text font-family="Calibri,Calibri_MSFontService,sans-serif" font-weight="400" font-size="41" transform="matrix(1 0 0 1 1694.2 1205)">del recurso.</text></g><g clip-path="url(#clip20)"><text font-family="Calibri,Calibri_MSFontService,sans-serif" font-weight="400" font-size="41" transform="matrix(1 0 0 1 2584.85 1099)">Computadora</text></g><g clip-path="url(#clip21)"><text font-family="Calibri,Calibri_MSFontService,sans-serif" font-weight="400" font-size="41" transform="matrix(1 0 0 1 3060.33 1099)">Internet</text></g><g clip-path="url(#clip22)"><text font-family="Calibri,Calibri_MSFontService,sans-serif" font-weight="400" font-size="41" transform="matrix(1 0 0 1 3496.78 1099)">$350 del internet.</text></g><g clip-path="url(#clip23)"><text font-family="Calibri,Calibri_MSFontService,sans-serif" font-weight="400" font-size="41" transform="matrix(1 0 0 1 3908.4 1099)">Director</text></g><g clip-path="url(#clip24)"><text font-family="Calibri,Calibri_MSFontService,sans-serif" font-weight="400" font-size="41" transform="matrix(1 0 0 1 646.076 1263)">1 dia</text></g><g clip-path="url(#clip25)"><text font-family="Calibri,Calibri_MSFontService,sans-serif" font-weight="400" font-size="41" transform="matrix(1 0 0 1 936.724 1263)">5 de Julio </text></g><g clip-path="url(#clip26)"><text font-family="Calibri,Calibri_MSFontService,sans-serif" font-weight="400" font-size="41" transform="matrix(1 0 0 1 1317.73 1263)">5 de Julio</text></g><g clip-path="url(#clip27)"><text font-family="Calibri,Calibri_MSFontService,sans-serif" font-weight="700" font-size="41" transform="matrix(1 0 0 1 1694.2 1263)">1.2</text></g><text font-family="Calibri,Calibri_MSFontService,sans-serif" font-weight="400" font-size="41" transform="matrix(1 0 0 1 1755.5 1263)">Investigar el estado de sequía y contaminación </text><g clip-path="url(#clip28)"><text font-family="Calibri,Calibri_MSFontService,sans-serif" font-weight="400" font-size="41" transform="matrix(1 0 0 1 1694.2 1316)">del lago de Chapala y las consecuencias.</text></g><g clip-path="url(#clip29)"><text font-family="Calibri,Calibri_MSFontService,sans-serif" font-weight="400" font-size="41" transform="matrix(1 0 0 1 2584.85 1263)">Computadora</text></g><g clip-path="url(#clip30)"><text font-family="Calibri,Calibri_MSFontService,sans-serif" font-weight="400" font-size="41" transform="matrix(1 0 0 1 3060.33 1263)">Internet</text></g><g clip-path="url(#clip31)"><text font-family="Calibri,Calibri_MSFontService,sans-serif" font-weight="400" font-size="41" transform="matrix(1 0 0 1 646.076 1386)">½ dia</text></g><g clip-path="url(#clip32)"><text font-family="Calibri,Calibri_MSFontService,sans-serif" font-weight="400" font-size="41" transform="matrix(1 0 0 1 936.724 1386)">6 de julio</text></g><g clip-path="url(#clip33)"><text font-family="Calibri,Calibri_MSFontService,sans-serif" font-weight="400" font-size="41" transform="matrix(1 0 0 1 1317.73 1386)">6 de julio</text></g><g clip-path="url(#clip34)"><text font-family="Calibri,Calibri_MSFontService,sans-serif" font-weight="700" font-size="41" transform="matrix(1 0 0 1 1694.2 1386)">1.3</text></g><text font-family="Calibri,Calibri_MSFontService,sans-serif" font-weight="400" font-size="41" transform="matrix(1 0 0 1 1755.5 1386)">Investigar actividades y productos de la vida </text><g clip-path="url(#clip35)"><text font-family="Calibri,Calibri_MSFontService,sans-serif" font-weight="400" font-size="41" transform="matrix(1 0 0 1 1694.2 1439)">diaria que contaminen el agua. </text></g><g clip-path="url(#clip36)"><text font-family="Calibri,Calibri_MSFontService,sans-serif" font-weight="400" font-size="41" transform="matrix(1 0 0 1 2584.85 1386)">Computadora</text></g><g clip-path="url(#clip37)"><text font-family="Calibri,Calibri_MSFontService,sans-serif" font-weight="400" font-size="41" transform="matrix(1 0 0 1 3060.33 1386)">Internet</text></g><g clip-path="url(#clip38)"><text font-family="Calibri,Calibri_MSFontService,sans-serif" font-weight="400" font-size="41" transform="matrix(1 0 0 1 646.076 1509)">½ dia</text></g><g clip-path="url(#clip39)"><text font-family="Calibri,Calibri_MSFontService,sans-serif" font-weight="400" font-size="41" transform="matrix(1 0 0 1 936.724 1509)">6 de julio</text></g><g clip-path="url(#clip40)"><text font-family="Calibri,Calibri_MSFontService,sans-serif" font-weight="400" font-size="41" transform="matrix(1 0 0 1 1317.73 1509)">6 de julio</text></g><g clip-path="url(#clip41)"><text font-family="Calibri,Calibri_MSFontService,sans-serif" font-weight="700" font-size="41" transform="matrix(1 0 0 1 1694.2 1509)">1.4</text></g><text font-family="Calibri,Calibri_MSFontService,sans-serif" font-weight="400" font-size="41" transform="matrix(1 0 0 1 1755.5 1509)">Investigar activistas y movimientos sociales a </text><g clip-path="url(#clip42)"><text font-family="Calibri,Calibri_MSFontService,sans-serif" font-weight="400" font-size="41" transform="matrix(1 0 0 1 1694.2 1562)">favor del agua.</text></g><g clip-path="url(#clip43)"><text font-family="Calibri,Calibri_MSFontService,sans-serif" font-weight="400" font-size="41" transform="matrix(1 0 0 1 2584.85 1509)">Computadora</text></g><g clip-path="url(#clip44)"><text font-family="Calibri,Calibri_MSFontService,sans-serif" font-weight="400" font-size="41" transform="matrix(1 0 0 1 3060.33 1509)">Internet</text></g><g clip-path="url(#clip45)"><text fill="#FFFFFF" font-family="Calibri,Calibri_MSFontService,sans-serif" font-weight="700" font-size="64" transform="matrix(1 0 0 1 174.383 1634)">2.Planeación de </text></g><g clip-path="url(#clip46)"><text fill="#FFFFFF" font-family="Calibri,Calibri_MSFontService,sans-serif" font-weight="700" font-size="64" transform="matrix(1 0 0 1 174.383 1716)">contenido para </text></g><g clip-path="url(#clip47)"><text fill="#FFFFFF" font-family="Calibri,Calibri_MSFontService,sans-serif" font-weight="700" font-size="64" transform="matrix(1 0 0 1 174.383 1799)">divulgación.</text></g><g clip-path="url(#clip48)"><text font-family="Calibri,Calibri_MSFontService,sans-serif" font-weight="400" font-size="41" transform="matrix(1 0 0 1 646.076 1612)">1 dia</text></g><g clip-path="url(#clip49)"><text font-family="Calibri,Calibri_MSFontService,sans-serif" font-weight="400" font-size="41" transform="matrix(1 0 0 1 936.724 1612)">7 de julio</text></g><g clip-path="url(#clip50)"><text font-family="Calibri,Calibri_MSFontService,sans-serif" font-weight="400" font-size="41" transform="matrix(1 0 0 1 1317.73 1612)">7 de julio</text></g><g clip-path="url(#clip51)"><text font-family="Calibri,Calibri_MSFontService,sans-serif" font-weight="700" font-size="41" transform="matrix(1 0 0 1 1694.2 1612)">2.1</text></g><text font-family="Calibri,Calibri_MSFontService,sans-serif" font-weight="400" font-size="41" transform="matrix(1 0 0 1 1755.5 1612)">A manera de que el contenido sea interactivo, </text><g clip-path="url(#clip52)"><text font-family="Calibri,Calibri_MSFontService,sans-serif" font-weight="400" font-size="41" transform="matrix(1 0 0 1 1694.2 1665)">planear los posibles archivos correspondiendo al </text></g><g clip-path="url(#clip53)"><text font-family="Calibri,Calibri_MSFontService,sans-serif" font-weight="400" font-size="41" transform="matrix(1 0 0 1 1694.2 1718)">medio por el cual se va a difundir, considerando sus </text></g><g clip-path="url(#clip54)"><text font-family="Calibri,Calibri_MSFontService,sans-serif" font-weight="400" font-size="41" transform="matrix(1 0 0 1 1694.2 1771)">herramientas.</text></g><g clip-path="url(#clip55)"><text font-family="Calibri,Calibri_MSFontService,sans-serif" font-weight="400" font-size="41" transform="matrix(1 0 0 1 2584.85 1612)">Computadora.</text></g><g clip-path="url(#clip56)"><text font-family="Calibri,Calibri_MSFontService,sans-serif" font-weight="400" font-size="41" transform="matrix(1 0 0 1 3060.33 1612)">Canva.</text></g><g clip-path="url(#clip57)"><text font-family="Calibri,Calibri_MSFontService,sans-serif" font-weight="400" font-size="41" transform="matrix(1 0 0 1 3060.33 1665)">Notion.</text></g><g clip-path="url(#clip58)"><text font-family="Calibri,Calibri_MSFontService,sans-serif" font-weight="400" font-size="41" transform="matrix(1 0 0 1 3060.33 1718)">Internet.</text></g><g clip-path="url(#clip59)"><text font-family="Calibri,Calibri_MSFontService,sans-serif" font-weight="400" font-size="41" transform="matrix(1 0 0 1 3496.78 1612)">$350 del internet.</text></g><g clip-path="url(#clip60)"><text font-family="Calibri,Calibri_MSFontService,sans-serif" font-weight="400" font-size="41" transform="matrix(1 0 0 1 3908.4 1612)">Director</text></g><g clip-path="url(#clip61)"><text fill="#FFFFFF" font-family="Calibri,Calibri_MSFontService,sans-serif" font-weight="700" font-size="64" transform="matrix(1 0 0 1 174.383 1878)">3. Elaboración </text></g><g clip-path="url(#clip62)"><text fill="#FFFFFF" font-family="Calibri,Calibri_MSFontService,sans-serif" font-weight="700" font-size="64" transform="matrix(1 0 0 1 174.383 1960)">del contenido </text></g><g clip-path="url(#clip63)"><text fill="#FFFFFF" font-family="Calibri,Calibri_MSFontService,sans-serif" font-weight="700" font-size="64" transform="matrix(1 0 0 1 174.383 2043)">textual.</text></g><g clip-path="url(#clip64)"><text font-family="Calibri,Calibri_MSFontService,sans-serif" font-weight="400" font-size="41" transform="matrix(1 0 0 1 646.076 1856)">½ dia </text></g><g clip-path="url(#clip65)"><text font-family="Calibri,Calibri_MSFontService,sans-serif" font-weight="400" font-size="41" transform="matrix(1 0 0 1 936.724 1856)">8 de julio</text></g><g clip-path="url(#clip66)"><text font-family="Calibri,Calibri_MSFontService,sans-serif" font-weight="400" font-size="41" transform="matrix(1 0 0 1 1317.73 1856)">8 de julio</text></g><g clip-path="url(#clip67)"><text font-family="Calibri,Calibri_MSFontService,sans-serif" font-weight="700" font-size="41" transform="matrix(1 0 0 1 1694.2 1856)">3.1</text></g><text font-family="Calibri,Calibri_MSFontService,sans-serif" font-weight="400" font-size="41" transform="matrix(1 0 0 1 1755.5 1856)">Crear textos con la informacion recabada para </text><g clip-path="url(#clip68)"><text font-family="Calibri,Calibri_MSFontService,sans-serif" font-weight="400" font-size="41" transform="matrix(1 0 0 1 1694.2 1909)">concientizar, tomando en cuenta el punto anterior.</text></g><g clip-path="url(#clip69)"><text font-family="Calibri,Calibri_MSFontService,sans-serif" font-weight="400" font-size="41" transform="matrix(1 0 0 1 2584.85 1856)">Computadora.</text></g><g clip-path="url(#clip70)"><text font-family="Calibri,Calibri_MSFontService,sans-serif" font-weight="400" font-size="41" transform="matrix(1 0 0 1 3060.33 1856)">Internet.</text></g><g clip-path="url(#clip71)"><text font-family="Calibri,Calibri_MSFontService,sans-serif" font-weight="400" font-size="41" transform="matrix(1 0 0 1 3060.33 1909)">Procesador de textos.</text></g><g clip-path="url(#clip72)"><text font-family="Calibri,Calibri_MSFontService,sans-serif" font-weight="400" font-size="41" transform="matrix(1 0 0 1 3496.78 1856)">$350 del internet.</text></g><g clip-path="url(#clip73)"><text font-family="Calibri,Calibri_MSFontService,sans-serif" font-weight="400" font-size="41" transform="matrix(1 0 0 1 3908.4 1856)">Director</text></g><g clip-path="url(#clip74)"><text font-family="Calibri,Calibri_MSFontService,sans-serif" font-weight="400" font-size="41" transform="matrix(1 0 0 1 646.076 1999)">½ dia</text></g><g clip-path="url(#clip75)"><text font-family="Calibri,Calibri_MSFontService,sans-serif" font-weight="400" font-size="41" transform="matrix(1 0 0 1 936.724 1999)">8 de julio</text></g><g clip-path="url(#clip76)"><text font-family="Calibri,Calibri_MSFontService,sans-serif" font-weight="400" font-size="41" transform="matrix(1 0 0 1 1317.73 1999)">8 de julio</text></g><g clip-path="url(#clip77)"><text font-family="Calibri,Calibri_MSFontService,sans-serif" font-weight="700" font-size="41" transform="matrix(1 0 0 1 1694.2 1999)">3.2 </text></g><text font-family="Calibri,Calibri_MSFontService,sans-serif" font-weight="400" font-size="41" transform="matrix(1 0 0 1 1755.5 1999)">Crear una lista de las acciones diarias que se</text><g clip-path="url(#clip78)"><text font-family="Calibri,Calibri_MSFontService,sans-serif" font-weight="400" font-size="41" transform="matrix(1 0 0 1 1694.2 2052)">deberán llevar a cabo para el proyecto.</text></g><g clip-path="url(#clip79)"><text font-family="Calibri,Calibri_MSFontService,sans-serif" font-weight="400" font-size="41" transform="matrix(1 0 0 1 2584.85 1999)">Computadora.</text></g><g clip-path="url(#clip80)"><text font-family="Calibri,Calibri_MSFontService,sans-serif" font-weight="400" font-size="41" transform="matrix(1 0 0 1 3060.33 1999)">Internet.</text></g><g clip-path="url(#clip81)"><text font-family="Calibri,Calibri_MSFontService,sans-serif" font-weight="400" font-size="41" transform="matrix(1 0 0 1 3060.33 2052)">Procesador de textos.</text></g><g clip-path="url(#clip82)"><text fill="#FFFFFF" font-family="Calibri,Calibri_MSFontService,sans-serif" font-weight="700" font-size="64" transform="matrix(1 0 0 1 174.383 2144)">4. Creación de </text></g><g clip-path="url(#clip83)"><text fill="#FFFFFF" font-family="Calibri,Calibri_MSFontService,sans-serif" font-weight="700" font-size="64" transform="matrix(1 0 0 1 174.383 2226)">contenido para </text></g><g clip-path="url(#clip84)"><text fill="#FFFFFF" font-family="Calibri,Calibri_MSFontService,sans-serif" font-weight="700" font-size="64" transform="matrix(1 0 0 1 174.383 2309)">concientizar e </text></g><g clip-path="url(#clip85)"><text fill="#FFFFFF" font-family="Calibri,Calibri_MSFontService,sans-serif" font-weight="700" font-size="64" transform="matrix(1 0 0 1 174.383 2391)">informar.</text></g><g clip-path="url(#clip86)"><text font-family="Calibri,Calibri_MSFontService,sans-serif" font-weight="400" font-size="41" transform="matrix(1 0 0 1 646.076 2122)">3 días </text></g><g clip-path="url(#clip87)"><text font-family="Calibri,Calibri_MSFontService,sans-serif" font-weight="400" font-size="41" transform="matrix(1 0 0 1 936.724 2122)">9 de julio</text></g><g clip-path="url(#clip88)"><text font-family="Calibri,Calibri_MSFontService,sans-serif" font-weight="400" font-size="41" transform="matrix(1 0 0 1 1317.73 2122)">11 de julio</text></g><g clip-path="url(#clip89)"><text font-family="Calibri,Calibri_MSFontService,sans-serif" font-weight="700" font-size="41" transform="matrix(1 0 0 1 1694.2 2122)">4.1</text></g><text font-family="Calibri,Calibri_MSFontService,sans-serif" font-weight="400" font-size="41" transform="matrix(1 0 0 1 1755.5 2122)">Elaborar diferentes tipos de archivos, </text><g clip-path="url(#clip90)"><text font-family="Calibri,Calibri_MSFontService,sans-serif" font-weight="400" font-size="41" transform="matrix(1 0 0 1 1694.2 2175)">correspondientes al medio por el cual se va a </text></g><g clip-path="url(#clip91)"><text font-family="Calibri,Calibri_MSFontService,sans-serif" font-weight="400" font-size="41" transform="matrix(1 0 0 1 1694.2 2228)">difundir, agregando los textos ya elaborados.</text></g><g clip-path="url(#clip92)"><text font-family="Calibri,Calibri_MSFontService,sans-serif" font-weight="400" font-size="41" transform="matrix(1 0 0 1 2584.85 2122)">Computadora.</text></g><g clip-path="url(#clip93)"><text font-family="Calibri,Calibri_MSFontService,sans-serif" font-weight="400" font-size="41" transform="matrix(1 0 0 1 3060.33 2122)">Internet.</text></g><g clip-path="url(#clip94)"><text font-family="Calibri,Calibri_MSFontService,sans-serif" font-weight="400" font-size="41" transform="matrix(1 0 0 1 3060.33 2175)">Canva.</text></g><g clip-path="url(#clip95)"><text font-family="Calibri,Calibri_MSFontService,sans-serif" font-weight="400" font-size="41" transform="matrix(1 0 0 1 3060.33 2228)">Notion.</text></g><g clip-path="url(#clip96)"><text font-family="Calibri,Calibri_MSFontService,sans-serif" font-weight="400" font-size="41" transform="matrix(1 0 0 1 3060.33 2281)">Procesador de textos.</text></g><g clip-path="url(#clip97)"><text font-family="Calibri,Calibri_MSFontService,sans-serif" font-weight="400" font-size="41" transform="matrix(1 0 0 1 3496.78 2122)">$350 del internet.</text></g><g clip-path="url(#clip98)"><text font-family="Calibri,Calibri_MSFontService,sans-serif" font-weight="400" font-size="41" transform="matrix(1 0 0 1 3908.4 2122)">Director</text></g><g clip-path="url(#clip99)"><text font-family="Calibri,Calibri_MSFontService,sans-serif" font-weight="400" font-size="41" transform="matrix(1 0 0 1 646.076 2332)">1 dia</text></g><g clip-path="url(#clip100)"><text font-family="Calibri,Calibri_MSFontService,sans-serif" font-weight="400" font-size="41" transform="matrix(1 0 0 1 936.724 2332)">12 de julio</text></g><g clip-path="url(#clip101)"><text font-family="Calibri,Calibri_MSFontService,sans-serif" font-weight="400" font-size="41" transform="matrix(1 0 0 1 1317.73 2332)">12 de julio</text></g><g clip-path="url(#clip102)"><text font-family="Calibri,Calibri_MSFontService,sans-serif" font-weight="700" font-size="41" transform="matrix(1 0 0 1 1694.2 2332)">4.2</text></g><text font-family="Calibri,Calibri_MSFontService,sans-serif" font-weight="400" font-size="41" transform="matrix(1 0 0 1 1755.5 2332)">Crear invitaciones con la informacion sobre los </text><g clip-path="url(#clip103)"><text font-family="Calibri,Calibri_MSFontService,sans-serif" font-weight="400" font-size="41" transform="matrix(1 0 0 1 1694.2 2385)">movimientos sociales a favor del agua. </text></g><g clip-path="url(#clip104)"><text font-family="Calibri,Calibri_MSFontService,sans-serif" font-weight="400" font-size="41" transform="matrix(1 0 0 1 2584.85 2332)">Computadora.</text></g><g clip-path="url(#clip105)"><text font-family="Calibri,Calibri_MSFontService,sans-serif" font-weight="400" font-size="41" transform="matrix(1 0 0 1 3060.33 2332)">Internet.</text></g><g clip-path="url(#clip106)"><text font-family="Calibri,Calibri_MSFontService,sans-serif" font-weight="400" font-size="41" transform="matrix(1 0 0 1 3060.33 2385)">Canva.</text></g><g clip-path="url(#clip107)"><text font-family="Calibri,Calibri_MSFontService,sans-serif" font-weight="400" font-size="41" transform="matrix(1 0 0 1 3060.33 2438)">Notion</text></g><text font-family="Calibri,Calibri_MSFontService,sans-serif" font-weight="400" font-size="41" transform="matrix(1 0 0 1 3175.49 2438)">.</text><g clip-path="url(#clip108)"><text font-family="Calibri,Calibri_MSFontService,sans-serif" font-weight="400" font-size="41" transform="matrix(1 0 0 1 3060.33 2491)">Redes sociales.</text></g></g></svg>