<svg width="4074" height="1769" xmlns="http://www.w3.org/2000/svg" xmlns:xlink="http://www.w3.org/1999/xlink" xml:space="preserve" overflow="hidden"><defs><clipPath id="clip0"><rect x="163" y="791" width="4074" height="1769"/></clipPath><clipPath id="clip1"><rect x="165" y="510" width="4063" height="709"/></clipPath><clipPath id="clip2"><rect x="165" y="763" width="537" height="355"/></clipPath><clipPath id="clip3"><rect x="701" y="763" width="286" height="355"/></clipPath><clipPath id="clip4"><rect x="986" y="763" width="375" height="355"/></clipPath><clipPath id="clip5"><rect x="1360" y="763" width="571" height="355"/></clipPath><clipPath id="clip6"><rect x="1930" y="763" width="572" height="355"/></clipPath><clipPath id="clip7"><rect x="2501" y="763" width="482" height="355"/></clipPath><clipPath id="clip8"><rect x="2982" y="763" width="430" height="355"/></clipPath><clipPath id="clip9"><rect x="3411" y="763" width="386" height="355"/></clipPath><clipPath id="clip10"><rect x="3796" y="763" width="432" height="355"/></clipPath><clipPath id="clip11"><rect x="165" y="-241" width="537" height="2859"/></clipPath><clipPath id="clip12"><rect x="165" y="-241" width="537" height="2859"/></clipPath><clipPath id="clip13"><rect x="165" y="-241" width="537" height="2859"/></clipPath><clipPath id="clip14"><rect x="165" y="-241" width="537" height="2859"/></clipPath><clipPath id="clip15"><rect x="165" y="-241" width="537" height="2859"/></clipPath><clipPath id="clip16"><rect x="701" y="832" width="286" height="355"/></clipPath><clipPath id="clip17"><rect x="986" y="832" width="375" height="355"/></clipPath><clipPath id="clip18"><rect x="1360" y="832" width="571" height="355"/></clipPath><clipPath id="clip19"><rect x="1930" y="37" width="572" height="2209"/></clipPath><clipPath id="clip20"><rect x="1930" y="37" width="572" height="2209"/></clipPath><clipPath id="clip21"><rect x="1930" y="37" width="572" height="2209"/></clipPath><clipPath id="clip22"><rect x="1930" y="37" width="572" height="2209"/></clipPath><clipPath id="clip23"><rect x="1930" y="37" width="572" height="2209"/></clipPath><clipPath id="clip24"><rect x="1930" y="37" width="572" height="2209"/></clipPath><clipPath id="clip25"><rect x="2501" y="673" width="482" height="726"/></clipPath><clipPath id="clip26"><rect x="2501" y="673" width="482" height="726"/></clipPath><clipPath id="clip27"><rect x="2982" y="673" width="430" height="726"/></clipPath><clipPath id="clip28"><rect x="2982" y="673" width="430" height="726"/></clipPath><clipPath id="clip29"><rect x="3411" y="832" width="386" height="355"/></clipPath><clipPath id="clip30"><rect x="3796" y="832" width="432" height="355"/></clipPath><clipPath id="clip31"><rect x="165" y="167" width="537" height="2859"/></clipPath><clipPath id="clip32"><rect x="165" y="167" width="537" height="2859"/></clipPath><clipPath id="clip33"><rect x="165" y="167" width="537" height="2859"/></clipPath><clipPath id="clip34"><rect x="165" y="167" width="537" height="2859"/></clipPath><clipPath id="clip35"><rect x="165" y="167" width="537" height="2859"/></clipPath><clipPath id="clip36"><rect x="701" y="1240" width="286" height="355"/></clipPath><clipPath id="clip37"><rect x="986" y="1240" width="375" height="355"/></clipPath><clipPath id="clip38"><rect x="1360" y="1240" width="571" height="355"/></clipPath><clipPath id="clip39"><rect x="1930" y="922" width="572" height="1097"/></clipPath><clipPath id="clip40"><rect x="1930" y="922" width="572" height="1097"/></clipPath><clipPath id="clip41"><rect x="1930" y="922" width="572" height="1097"/></clipPath><clipPath id="clip42"><rect x="2501" y="922" width="482" height="1097"/></clipPath><clipPath id="clip43"><rect x="2501" y="922" width="482" height="1097"/></clipPath><clipPath id="clip44"><rect x="2982" y="1081" width="430" height="726"/></clipPath><clipPath id="clip45"><rect x="2982" y="1081" width="430" height="726"/></clipPath><clipPath id="clip46"><rect x="3411" y="1240" width="386" height="355"/></clipPath><clipPath id="clip47"><rect x="3796" y="1240" width="432" height="355"/></clipPath><clipPath id="clip48"><rect x="701" y="1414" width="286" height="356"/></clipPath><clipPath id="clip49"><rect x="986" y="1414" width="375" height="356"/></clipPath><clipPath id="clip50"><rect x="1360" y="1414" width="571" height="356"/></clipPath><clipPath id="clip51"><rect x="1930" y="938" width="572" height="1467"/></clipPath><clipPath id="clip52"><rect x="1930" y="938" width="572" height="1467"/></clipPath><clipPath id="clip53"><rect x="1930" y="938" width="572" height="1467"/></clipPath><clipPath id="clip54"><rect x="1930" y="938" width="572" height="1467"/></clipPath><clipPath id="clip55"><rect x="2501" y="1097" width="482" height="1097"/></clipPath><clipPath id="clip56"><rect x="2501" y="1097" width="482" height="1097"/></clipPath><clipPath id="clip57"><rect x="2982" y="1097" width="430" height="1097"/></clipPath><clipPath id="clip58"><rect x="2982" y="1097" width="430" height="1097"/></clipPath><clipPath id="clip59"><rect x="2982" y="1097" width="430" height="1097"/></clipPath><clipPath id="clip60"><rect x="701" y="1659" width="286" height="356"/></clipPath><clipPath id="clip61"><rect x="986" y="1659" width="375" height="356"/></clipPath><clipPath id="clip62"><rect x="1360" y="1659" width="571" height="356"/></clipPath><clipPath id="clip63"><rect x="1930" y="1183" width="572" height="1467"/></clipPath><clipPath id="clip64"><rect x="1930" y="1183" width="572" height="1467"/></clipPath><clipPath id="clip65"><rect x="1930" y="1183" width="572" height="1467"/></clipPath><clipPath id="clip66"><rect x="1930" y="1183" width="572" height="1467"/></clipPath><clipPath id="clip67"><rect x="1930" y="1183" width="572" height="1467"/></clipPath><clipPath id="clip68"><rect x="2501" y="1342" width="482" height="1096"/></clipPath><clipPath id="clip69"><rect x="2501" y="1342" width="482" height="1096"/></clipPath><clipPath id="clip70"><rect x="2982" y="1342" width="430" height="1096"/></clipPath><clipPath id="clip71"><rect x="2982" y="1342" width="430" height="1096"/></clipPath><clipPath id="clip72"><rect x="2982" y="1342" width="430" height="1096"/></clipPath><clipPath id="clip73"><rect x="701" y="1939" width="286" height="356"/></clipPath><clipPath id="clip74"><rect x="986" y="1939" width="375" height="356"/></clipPath><clipPath id="clip75"><rect x="1360" y="1939" width="571" height="356"/></clipPath><clipPath id="clip76"><rect x="1930" y="1939" width="572" height="356"/></clipPath><clipPath id="clip77"><rect x="2501" y="1939" width="482" height="356"/></clipPath><clipPath id="clip78"><rect x="2982" y="1781" width="430" height="726"/></clipPath><clipPath id="clip79"><rect x="2982" y="1781" width="430" height="726"/></clipPath><clipPath id="clip80"><rect x="165" y="1217" width="537" height="2283"/></clipPath><clipPath id="clip81"><rect x="165" y="1217" width="537" height="2283"/></clipPath><clipPath id="clip82"><rect x="165" y="1217" width="537" height="2283"/></clipPath><clipPath id="clip83"><rect x="165" y="1217" width="537" height="2283"/></clipPath><clipPath id="clip84"><rect x="701" y="2043" width="286" height="355"/></clipPath><clipPath id="clip85"><rect x="986" y="2043" width="375" height="355"/></clipPath><clipPath id="clip86"><rect x="1360" y="2043" width="571" height="355"/></clipPath><clipPath id="clip87"><rect x="1930" y="1884" width="572" height="726"/></clipPath><clipPath id="clip88"><rect x="1930" y="1884" width="572" height="726"/></clipPath><clipPath id="clip89"><rect x="2501" y="1884" width="482" height="726"/></clipPath><clipPath id="clip90"><rect x="2501" y="1884" width="482" height="726"/></clipPath><clipPath id="clip91"><rect x="2982" y="1884" width="430" height="726"/></clipPath><clipPath id="clip92"><rect x="2982" y="1884" width="430" height="726"/></clipPath><clipPath id="clip93"><rect x="3411" y="2043" width="386" height="355"/></clipPath><clipPath id="clip94"><rect x="3796" y="2043" width="432" height="355"/></clipPath><clipPath id="clip95"><rect x="701" y="2147" width="286" height="356"/></clipPath><clipPath id="clip96"><rect x="986" y="2147" width="375" height="356"/></clipPath><clipPath id="clip97"><rect x="1360" y="2147" width="571" height="356"/></clipPath><clipPath id="clip98"><rect x="1930" y="1671" width="572" height="1467"/></clipPath><clipPath id="clip99"><rect x="1930" y="1671" width="572" height="1467"/></clipPath><clipPath id="clip100"><rect x="1930" y="1671" width="572" height="1467"/></clipPath><clipPath id="clip101"><rect x="1930" y="1671" width="572" height="1467"/></clipPath><clipPath id="clip102"><rect x="2501" y="1829" width="482" height="1097"/></clipPath><clipPath id="clip103"><rect x="2501" y="1829" width="482" height="1097"/></clipPath><clipPath id="clip104"><rect x="2982" y="1829" width="430" height="1097"/></clipPath><clipPath id="clip105"><rect x="2982" y="1829" width="430" height="1097"/></clipPath><clipPath id="clip106"><rect x="2982" y="1829" width="430" height="1097"/></clipPath></defs><g clip-path="url(#clip0)" transform="translate(-163 -791)"><path d="M165.621 813.999 4227.19 813.999 4227.19 915.222 165.621 915.222Z" fill="#6EBAB5" fill-rule="evenodd"/><path d="M165.621 915.222 701.681 915.222 701.681 984.081 165.621 984.081Z" fill="#6EBAB5" fill-rule="evenodd"/><path d="M701.681 915.222 986.833 915.222 986.833 984.081 701.681 984.081Z" fill="#6EBAB5" fill-rule="evenodd"/><path d="M986.833 915.222 1360.63 915.222 1360.63 984.081 986.833 984.081Z" fill="#6EBAB5" fill-rule="evenodd"/><path d="M1360.63 915.222 1930.94 915.222 1930.94 984.081 1360.63 984.081Z" fill="#6EBAB5" fill-rule="evenodd"/><path d="M1930.94 915.222 2501.24 915.222 2501.24 984.081 1930.94 984.081Z" fill="#6EBAB5" fill-rule="evenodd"/><path d="M2501.24 915.222 2982.9 915.222 2982.9 984.081 2501.24 984.081Z" fill="#6EBAB5" fill-rule="evenodd"/><path d="M2982.9 915.222 3411.74 915.222 3411.74 984.081 2982.9 984.081Z" fill="#6EBAB5" fill-rule="evenodd"/><path d="M3411.74 915.222 3796.43 915.222 3796.43 984.081 3411.74 984.081Z" fill="#6EBAB5" fill-rule="evenodd"/><path d="M3796.43 915.222 4227.19 915.222 4227.19 984.081 3796.43 984.081Z" fill="#6EBAB5" fill-rule="evenodd"/><path d="M165.621 984.081 701.681 984.081 701.681 1392.36 165.621 1392.36Z" fill="#6EBAB5" fill-rule="evenodd"/><path d="M701.681 984.081 986.833 984.081 986.833 1392.36 701.681 1392.36Z" fill="#6EBAB5" fill-rule="evenodd"/><path d="M986.833 984.081 1360.63 984.081 1360.63 1392.36 986.833 1392.36Z" fill="#6EBAB5" fill-rule="evenodd"/><path d="M1360.63 984.081 1930.94 984.081 1930.94 1392.36 1360.63 1392.36Z" fill="#6EBAB5" fill-rule="evenodd"/><path d="M1930.94 984.081 2501.24 984.081 2501.24 1392.36 1930.94 1392.36Z" fill="#6EBAB5" fill-rule="evenodd"/><path d="M2501.24 984.081 2982.9 984.081 2982.9 1392.36 2501.24 1392.36Z" fill="#6EBAB5" fill-rule="evenodd"/><path d="M2982.9 984.081 3411.74 984.081 3411.74 1392.36 2982.9 1392.36Z" fill="#6EBAB5" fill-rule="evenodd"/><path d="M3411.74 984.081 3796.43 984.081 3796.43 1392.36 3411.74 1392.36Z" fill="#6EBAB5" fill-rule="evenodd"/><path d="M3796.43 984.081 4227.19 984.081 4227.19 1392.36 3796.43 1392.36Z" fill="#6EBAB5" fill-rule="evenodd"/><path d="M165.621 1392.36 701.681 1392.36 701.681 2195.45 165.621 2195.45Z" fill="#6EBAB5" fill-rule="evenodd"/><path d="M701.681 1392.36 986.833 1392.36 986.833 1566.85 701.681 1566.85Z" fill="#6EBAB5" fill-rule="evenodd"/><path d="M986.833 1392.36 1360.63 1392.36 1360.63 1566.85 986.833 1566.85Z" fill="#6EBAB5" fill-rule="evenodd"/><path d="M1360.63 1392.36 1930.94 1392.36 1930.94 1566.85 1360.63 1566.85Z" fill="#6EBAB5" fill-rule="evenodd"/><path d="M1930.94 1392.36 2501.24 1392.36 2501.24 1566.85 1930.94 1566.85Z" fill="#6EBAB5" fill-rule="evenodd"/><path d="M2501.24 1392.36 2982.9 1392.36 2982.9 1566.85 2501.24 1566.85Z" fill="#6EBAB5" fill-rule="evenodd"/><path d="M2982.9 1392.36 3411.74 1392.36 3411.74 1566.85 2982.9 1566.85Z" fill="#6EBAB5" fill-rule="evenodd"/><path d="M3411.74 1392.36 3796.43 1392.36 3796.43 2195.45 3411.74 2195.45Z" fill="#6EBAB5" fill-rule="evenodd"/><path d="M3796.43 1392.36 4227.19 1392.36 4227.19 2195.45 3796.43 2195.45Z" fill="#6EBAB5" fill-rule="evenodd"/><path d="M701.681 1566.85 986.833 1566.85 986.833 1811.75 701.681 1811.75Z" fill="#6EBAB5" fill-rule="evenodd"/><path d="M986.833 1566.85 1360.63 1566.85 1360.63 1811.75 986.833 1811.75Z" fill="#6EBAB5" fill-rule="evenodd"/><path d="M1360.63 1566.85 1930.94 1566.85 1930.94 1811.75 1360.63 1811.75Z" fill="#6EBAB5" fill-rule="evenodd"/><path d="M1930.94 1566.85 2501.24 1566.85 2501.24 1811.75 1930.94 1811.75Z" fill="#6EBAB5" fill-rule="evenodd"/><path d="M2501.24 1566.85 2982.9 1566.85 2982.9 1811.75 2501.24 1811.75Z" fill="#6EBAB5" fill-rule="evenodd"/><path d="M2982.9 1566.85 3411.74 1566.85 3411.74 1811.75 2982.9 1811.75Z" fill="#6EBAB5" fill-rule="evenodd"/><path d="M701.681 1811.75 986.833 1811.75 986.833 2091.86 701.681 2091.86Z" fill="#6EBAB5" fill-rule="evenodd"/><path d="M986.833 1811.75 1360.63 1811.75 1360.63 2091.86 986.833 2091.86Z" fill="#6EBAB5" fill-rule="evenodd"/><path d="M1360.63 1811.75 1930.94 1811.75 1930.94 2091.86 1360.63 2091.86Z" fill="#6EBAB5" fill-rule="evenodd"/><path d="M1930.94 1811.75 2501.24 1811.75 2501.24 2091.86 1930.94 2091.86Z" fill="#6EBAB5" fill-rule="evenodd"/><path d="M2501.24 1811.75 2982.9 1811.75 2982.9 2091.86 2501.24 2091.86Z" fill="#6EBAB5" fill-rule="evenodd"/><path d="M2982.9 1811.75 3411.74 1811.75 3411.74 2091.86 2982.9 2091.86Z" fill="#6EBAB5" fill-rule="evenodd"/><path d="M701.681 2091.86 986.833 2091.86 986.833 2195.45 701.681 2195.45Z" fill="#6EBAB5" fill-rule="evenodd"/><path d="M986.833 2091.86 1360.63 2091.86 1360.63 2195.45 986.833 2195.45Z" fill="#6EBAB5" fill-rule="evenodd"/><path d="M1360.63 2091.86 1930.94 2091.86 1930.94 2195.45 1360.63 2195.45Z" fill="#6EBAB5" fill-rule="evenodd"/><path d="M1930.94 2091.86 2501.24 2091.86 2501.24 2195.45 1930.94 2195.45Z" fill="#6EBAB5" fill-rule="evenodd"/><path d="M2501.24 2091.86 2982.9 2091.86 2982.9 2195.45 2501.24 2195.45Z" fill="#6EBAB5" fill-rule="evenodd"/><path d="M2982.9 2091.86 3411.74 2091.86 3411.74 2195.45 2982.9 2195.45Z" fill="#6EBAB5" fill-rule="evenodd"/><path d="M165.621 2195.45 701.681 2195.45 701.681 2544.42 165.621 2544.42Z" fill="#6EBAB5" fill-rule="evenodd"/><path d="M701.681 2195.45 986.833 2195.45 986.833 2299.51 701.681 2299.51Z" fill="#6EBAB5" fill-rule="evenodd"/><path d="M986.833 2195.45 1360.63 2195.45 1360.63 2299.51 986.833 2299.51Z" fill="#6EBAB5" fill-rule="evenodd"/><path d="M1360.63 2195.45 1930.94 2195.45 1930.94 2299.51 1360.63 2299.51Z" fill="#6EBAB5" fill-rule="evenodd"/><path d="M1930.94 2195.45 2501.24 2195.45 2501.24 2299.51 1930.94 2299.51Z" fill="#6EBAB5" fill-rule="evenodd"/><path d="M2501.24 2195.45 2982.9 2195.45 2982.9 2299.51 2501.24 2299.51Z" fill="#6EBAB5" fill-rule="evenodd"/><path d="M2982.9 2195.45 3411.74 2195.45 3411.74 2299.51 2982.9 2299.51Z" fill="#6EBAB5" fill-rule="evenodd"/><path d="M3411.74 2195.45 3796.43 2195.45 3796.43 2544.42 3411.74 2544.42Z" fill="#6EBAB5" fill-rule="evenodd"/><path d="M3796.43 2195.45 4227.19 2195.45 4227.19 2544.42 3796.43 2544.42Z" fill="#6EBAB5" fill-rule="evenodd"/><path d="M701.681 2299.51 986.833 2299.51 986.833 2544.42 701.681 2544.42Z" fill="#6EBAB5" fill-rule="evenodd"/><path d="M986.833 2299.51 1360.63 2299.51 1360.63 2544.42 986.833 2544.42Z" fill="#6EBAB5" fill-rule="evenodd"/><path d="M1360.63 2299.51 1930.94 2299.51 1930.94 2544.42 1360.63 2544.42Z" fill="#6EBAB5" fill-rule="evenodd"/><path d="M1930.94 2299.51 2501.24 2299.51 2501.24 2544.42 1930.94 2544.42Z" fill="#6EBAB5" fill-rule="evenodd"/><path d="M2501.24 2299.51 2982.9 2299.51 2982.9 2544.42 2501.24 2544.42Z" fill="#6EBAB5" fill-rule="evenodd"/><path d="M2982.9 2299.51 3411.74 2299.51 3411.74 2544.42 2982.9 2544.42Z" fill="#6EBAB5" fill-rule="evenodd"/><path d="M701.681 908.347 701.681 2546.71" stroke="#FFFFFF" stroke-width="4.58333" stroke-linejoin="round" stroke-miterlimit="10" fill="none" fill-rule="evenodd"/><path d="M986.833 908.347 986.833 2546.71" stroke="#FFFFFF" stroke-width="4.58333" stroke-linejoin="round" stroke-miterlimit="10" fill="none" fill-rule="evenodd"/><path d="M1360.63 908.347 1360.63 2546.71" stroke="#FFFFFF" stroke-width="4.58333" stroke-linejoin="round" stroke-miterlimit="10" fill="none" fill-rule="evenodd"/><path d="M1930.94 908.347 1930.94 2546.71" stroke="#FFFFFF" stroke-width="4.58333" stroke-linejoin="round" stroke-miterlimit="10" fill="none" fill-rule="evenodd"/><path d="M2501.24 908.347 2501.24 2546.71" stroke="#FFFFFF" stroke-width="4.58333" stroke-linejoin="round" stroke-miterlimit="10" fill="none" fill-rule="evenodd"/><path d="M2982.9 908.347 2982.9 2546.71" stroke="#FFFFFF" stroke-width="4.58333" stroke-linejoin="round" stroke-miterlimit="10" fill="none" fill-rule="evenodd"/><path d="M3411.74 908.347 3411.74 2546.71" stroke="#FFFFFF" stroke-width="4.58333" stroke-linejoin="round" stroke-miterlimit="10" fill="none" fill-rule="evenodd"/><path d="M3796.43 908.347 3796.43 2546.71" stroke="#FFFFFF" stroke-width="4.58333" stroke-linejoin="round" stroke-miterlimit="10" fill="none" fill-rule="evenodd"/><path d="M163.329 915.222 4229.49 915.222" stroke="#FFFFFF" stroke-width="13.75" stroke-linejoin="round" stroke-miterlimit="10" fill="none" fill-rule="evenodd"/><path d="M163.329 984.081 4229.49 984.081" stroke="#FFFFFF" stroke-width="4.58333" stroke-linejoin="round" stroke-miterlimit="10" fill="none" fill-rule="evenodd"/><path d="M163.329 1392.36 4229.49 1392.36" stroke="#FFFFFF" stroke-width="4.58333" stroke-linejoin="round" stroke-miterlimit="10" fill="none" fill-rule="evenodd"/><path d="M699.389 1566.85 3414.03 1566.85" stroke="#FFFFFF" stroke-width="4.58333" stroke-linejoin="round" stroke-miterlimit="10" fill="none" fill-rule="evenodd"/><path d="M699.389 1811.75 3414.03 1811.75" stroke="#FFFFFF" stroke-width="4.58333" stroke-linejoin="round" stroke-miterlimit="10" fill="none" fill-rule="evenodd"/><path d="M699.389 2091.86 3414.03 2091.86" stroke="#FFFFFF" stroke-width="4.58333" stroke-linejoin="round" stroke-miterlimit="10" fill="none" fill-rule="evenodd"/><path d="M163.329 2195.45 4229.49 2195.45" stroke="#FFFFFF" stroke-width="4.58333" stroke-linejoin="round" stroke-miterlimit="10" fill="none" fill-rule="evenodd"/><path d="M699.389 2299.51 3414.03 2299.51" stroke="#FFFFFF" stroke-width="4.58333" stroke-linejoin="round" stroke-miterlimit="10" fill="none" fill-rule="evenodd"/><path d="M165.621 811.707 165.621 2546.71" stroke="#FFFFFF" stroke-width="4.58333" stroke-linejoin="round" stroke-miterlimit="10" fill="none" fill-rule="evenodd"/><path d="M4227.19 811.707 4227.19 2546.71" stroke="#FFFFFF" stroke-width="4.58333" stroke-linejoin="round" stroke-miterlimit="10" fill="none" fill-rule="evenodd"/><path d="M163.329 813.999 4229.49 813.999" stroke="#FFFFFF" stroke-width="4.58333" stroke-linejoin="round" stroke-miterlimit="10" fill="none" fill-rule="evenodd"/><path d="M163.329 2544.42 4229.49 2544.42" stroke="#FFFFFF" stroke-width="4.58333" stroke-linejoin="round" stroke-miterlimit="10" fill="none" fill-rule="evenodd"/><g clip-path="url(#clip1)"><text fill="#FFFFFF" font-family="Calibri,Calibri_MSFontService,sans-serif" font-weight="700" font-size="83" transform="matrix(1 0 0 1 179.081 893)">Fase Desarrollo (10.35%)</text></g><g clip-path="url(#clip2)"><text fill="#FFFFFF" font-family="Calibri,Calibri_MSFontService,sans-serif" font-weight="700" font-size="41" transform="matrix(1 0 0 1 179.081 955)">Actividades</text></g><g clip-path="url(#clip3)"><text font-family="Calibri,Calibri_MSFontService,sans-serif" font-weight="400" font-size="41" transform="matrix(1 0 0 1 715.141 955)">Tiempo total</text></g><g clip-path="url(#clip4)"><text font-family="Calibri,Calibri_MSFontService,sans-serif" font-weight="400" font-size="41" transform="matrix(1 0 0 1 1000.29 955)">Tiempo de inicio</text></g><g clip-path="url(#clip5)"><text font-family="Calibri,Calibri_MSFontService,sans-serif" font-weight="400" font-size="41" transform="matrix(1 0 0 1 1374.09 955)">Tiempo de conclusión </text></g><g clip-path="url(#clip6)"><text font-family="Calibri,Calibri_MSFontService,sans-serif" font-weight="400" font-size="41" transform="matrix(1 0 0 1 1944.4 955)">Tareas</text></g><g clip-path="url(#clip7)"><text font-family="Calibri,Calibri_MSFontService,sans-serif" font-weight="400" font-size="41" transform="matrix(1 0 0 1 2514.7 955)">Recursos materiales</text></g><g clip-path="url(#clip8)"><text font-family="Calibri,Calibri_MSFontService,sans-serif" font-weight="400" font-size="41" transform="matrix(1 0 0 1 2996.35 955)">Recursos tecnológicos</text></g><g clip-path="url(#clip9)"><text font-family="Calibri,Calibri_MSFontService,sans-serif" font-weight="400" font-size="41" transform="matrix(1 0 0 1 3425.2 955)">Recursos financieros</text></g><g clip-path="url(#clip10)"><text font-family="Calibri,Calibri_MSFontService,sans-serif" font-weight="400" font-size="41" transform="matrix(1 0 0 1 3809.89 955)">Responsable</text></g><g clip-path="url(#clip11)"><text fill="#FFFFFF" font-family="Calibri,Calibri_MSFontService,sans-serif" font-weight="700" font-size="64" transform="matrix(1 0 0 1 179.081 1046)">5. Conseguir </text></g><g clip-path="url(#clip12)"><text fill="#FFFFFF" font-family="Calibri,Calibri_MSFontService,sans-serif" font-weight="700" font-size="64" transform="matrix(1 0 0 1 179.081 1128)">permiso de los </text></g><g clip-path="url(#clip13)"><text fill="#FFFFFF" font-family="Calibri,Calibri_MSFontService,sans-serif" font-weight="700" font-size="64" transform="matrix(1 0 0 1 179.081 1211)">administradores </text></g><g clip-path="url(#clip14)"><text fill="#FFFFFF" font-family="Calibri,Calibri_MSFontService,sans-serif" font-weight="700" font-size="64" transform="matrix(1 0 0 1 179.081 1293)">del grupo vecinal </text></g><g clip-path="url(#clip15)"><text fill="#FFFFFF" font-family="Calibri,Calibri_MSFontService,sans-serif" font-weight="700" font-size="64" transform="matrix(1 0 0 1 179.081 1375)">de WhatsApp.</text></g><g clip-path="url(#clip16)"><text font-family="Calibri,Calibri_MSFontService,sans-serif" font-weight="400" font-size="41" transform="matrix(1 0 0 1 715.141 1024)">½ dia</text></g><g clip-path="url(#clip17)"><text font-family="Calibri,Calibri_MSFontService,sans-serif" font-weight="400" font-size="41" transform="matrix(1 0 0 1 1000.29 1024)">13 de julio</text></g><g clip-path="url(#clip18)"><text font-family="Calibri,Calibri_MSFontService,sans-serif" font-weight="400" font-size="41" transform="matrix(1 0 0 1 1374.09 1024)">13 de julio</text></g><g clip-path="url(#clip19)"><text font-family="Calibri,Calibri_MSFontService,sans-serif" font-weight="700" font-size="41" transform="matrix(1 0 0 1 1944.4 1024)">5.1</text></g><text font-family="Calibri,Calibri_MSFontService,sans-serif" font-weight="400" font-size="41" transform="matrix(1 0 0 1 2005.7 1024)">Explicar a los </text><g clip-path="url(#clip20)"><text font-family="Calibri,Calibri_MSFontService,sans-serif" font-weight="400" font-size="41" transform="matrix(1 0 0 1 1944.4 1077)">administradores, los cuales </text></g><g clip-path="url(#clip21)"><text font-family="Calibri,Calibri_MSFontService,sans-serif" font-weight="400" font-size="41" transform="matrix(1 0 0 1 1944.4 1130)">anteriormente ya habían </text></g><g clip-path="url(#clip22)"><text font-family="Calibri,Calibri_MSFontService,sans-serif" font-weight="400" font-size="41" transform="matrix(1 0 0 1 1944.4 1183)">hablado del tema, la idea </text></g><g clip-path="url(#clip23)"><text font-family="Calibri,Calibri_MSFontService,sans-serif" font-weight="400" font-size="41" transform="matrix(1 0 0 1 1944.4 1236)">general de mi proyecto para </text></g><g clip-path="url(#clip24)"><text font-family="Calibri,Calibri_MSFontService,sans-serif" font-weight="400" font-size="41" transform="matrix(1 0 0 1 1944.4 1289)">conseguir el permiso.</text></g><g clip-path="url(#clip25)"><text font-family="Calibri,Calibri_MSFontService,sans-serif" font-weight="400" font-size="41" transform="matrix(1 0 0 1 2514.7 1024)">Computadora.</text></g><g clip-path="url(#clip26)"><text font-family="Calibri,Calibri_MSFontService,sans-serif" font-weight="400" font-size="41" transform="matrix(1 0 0 1 2514.7 1077)">Celular.</text></g><g clip-path="url(#clip27)"><text font-family="Calibri,Calibri_MSFontService,sans-serif" font-weight="400" font-size="41" transform="matrix(1 0 0 1 2996.35 1024)">Internet.</text></g><g clip-path="url(#clip28)"><text font-family="Calibri,Calibri_MSFontService,sans-serif" font-weight="400" font-size="41" transform="matrix(1 0 0 1 2996.35 1077)">WhatsApp. </text></g><g clip-path="url(#clip29)"><text font-family="Calibri,Calibri_MSFontService,sans-serif" font-weight="400" font-size="41" transform="matrix(1 0 0 1 3425.2 1024)">$350 del internet.</text></g><g clip-path="url(#clip30)"><text font-family="Calibri,Calibri_MSFontService,sans-serif" font-weight="400" font-size="41" transform="matrix(1 0 0 1 3809.89 1024)">Director</text></g><g clip-path="url(#clip31)"><text fill="#FFFFFF" font-family="Calibri,Calibri_MSFontService,sans-serif" font-weight="700" font-size="64" transform="matrix(1 0 0 1 179.081 1454)">6. Concientización </text></g><g clip-path="url(#clip32)"><text fill="#FFFFFF" font-family="Calibri,Calibri_MSFontService,sans-serif" font-weight="700" font-size="64" transform="matrix(1 0 0 1 179.081 1536)">y explicación de mi </text></g><g clip-path="url(#clip33)"><text fill="#FFFFFF" font-family="Calibri,Calibri_MSFontService,sans-serif" font-weight="700" font-size="64" transform="matrix(1 0 0 1 179.081 1619)">proyecto a </text></g><g clip-path="url(#clip34)"><text fill="#FFFFFF" font-family="Calibri,Calibri_MSFontService,sans-serif" font-weight="700" font-size="64" transform="matrix(1 0 0 1 179.081 1701)">habitantes de mi </text></g><g clip-path="url(#clip35)"><text fill="#FFFFFF" font-family="Calibri,Calibri_MSFontService,sans-serif" font-weight="700" font-size="64" transform="matrix(1 0 0 1 179.081 1783)">colonia.  </text></g><g clip-path="url(#clip36)"><text font-family="Calibri,Calibri_MSFontService,sans-serif" font-weight="400" font-size="41" transform="matrix(1 0 0 1 715.141 1432)">½ hora</text></g><g clip-path="url(#clip37)"><text font-family="Calibri,Calibri_MSFontService,sans-serif" font-weight="400" font-size="41" transform="matrix(1 0 0 1 1000.29 1432)">14 de julio</text></g><g clip-path="url(#clip38)"><text font-family="Calibri,Calibri_MSFontService,sans-serif" font-weight="400" font-size="41" transform="matrix(1 0 0 1 1374.09 1432)">14 de julio</text></g><g clip-path="url(#clip39)"><text font-family="Calibri,Calibri_MSFontService,sans-serif" font-weight="700" font-size="41" transform="matrix(1 0 0 1 1944.4 1432)">6.1 </text></g><text font-family="Calibri,Calibri_MSFontService,sans-serif" font-weight="400" font-size="41" transform="matrix(1 0 0 1 2005.7 1432)">Presentarme ante el grupo </text><g clip-path="url(#clip40)"><text font-family="Calibri,Calibri_MSFontService,sans-serif" font-weight="400" font-size="41" transform="matrix(1 0 0 1 1944.4 1485)">vecinal, a mi compañero y a mi </text></g><g clip-path="url(#clip41)"><text font-family="Calibri,Calibri_MSFontService,sans-serif" font-weight="400" font-size="41" transform="matrix(1 0 0 1 1944.4 1538)">proyecto.</text></g><g clip-path="url(#clip42)"><text font-family="Calibri,Calibri_MSFontService,sans-serif" font-weight="400" font-size="41" transform="matrix(1 0 0 1 2514.7 1432)">Computadora.</text></g><g clip-path="url(#clip43)"><text font-family="Calibri,Calibri_MSFontService,sans-serif" font-weight="400" font-size="41" transform="matrix(1 0 0 1 2514.7 1485)">Celular.</text></g><g clip-path="url(#clip44)"><text font-family="Calibri,Calibri_MSFontService,sans-serif" font-weight="400" font-size="41" transform="matrix(1 0 0 1 2996.35 1432)">Internet.</text></g><g clip-path="url(#clip45)"><text font-family="Calibri,Calibri_MSFontService,sans-serif" font-weight="400" font-size="41" transform="matrix(1 0 0 1 2996.35 1485)">WhatsApp.</text></g><g clip-path="url(#clip46)"><text font-family="Calibri,Calibri_MSFontService,sans-serif" font-weight="400" font-size="41" transform="matrix(1 0 0 1 3425.2 1432)">$350 del internet.</text></g><g clip-path="url(#clip47)"><text font-family="Calibri,Calibri_MSFontService,sans-serif" font-weight="400" font-size="41" transform="matrix(1 0 0 1 3809.89 1432)">Director</text></g><g clip-path="url(#clip48)"><text font-family="Calibri,Calibri_MSFontService,sans-serif" font-weight="400" font-size="41" transform="matrix(1 0 0 1 715.141 1607)">2 horas</text></g><g clip-path="url(#clip49)"><text font-family="Calibri,Calibri_MSFontService,sans-serif" font-weight="400" font-size="41" transform="matrix(1 0 0 1 1000.29 1607)">14 de julio</text></g><g clip-path="url(#clip50)"><text font-family="Calibri,Calibri_MSFontService,sans-serif" font-weight="400" font-size="41" transform="matrix(1 0 0 1 1374.09 1607)">14 de julio</text></g><g clip-path="url(#clip51)"><text font-family="Calibri,Calibri_MSFontService,sans-serif" font-weight="700" font-size="41" transform="matrix(1 0 0 1 1944.4 1607)">6.2 </text></g><text font-family="Calibri,Calibri_MSFontService,sans-serif" font-weight="400" font-size="41" transform="matrix(1 0 0 1 2005.7 1607)">Enviar contenido para </text><g clip-path="url(#clip52)"><text font-family="Calibri,Calibri_MSFontService,sans-serif" font-weight="400" font-size="41" transform="matrix(1 0 0 1 1944.4 1660)">concientizar, sobre el estado </text></g><g clip-path="url(#clip53)"><text font-family="Calibri,Calibri_MSFontService,sans-serif" font-weight="400" font-size="41" transform="matrix(1 0 0 1 1944.4 1713)">actual del agua potable y del </text></g><g clip-path="url(#clip54)"><text font-family="Calibri,Calibri_MSFontService,sans-serif" font-weight="400" font-size="41" transform="matrix(1 0 0 1 1944.4 1766)">lago de Chapala.</text></g><g clip-path="url(#clip55)"><text font-family="Calibri,Calibri_MSFontService,sans-serif" font-weight="400" font-size="41" transform="matrix(1 0 0 1 2514.7 1607)">Computadora.</text></g><g clip-path="url(#clip56)"><text font-family="Calibri,Calibri_MSFontService,sans-serif" font-weight="400" font-size="41" transform="matrix(1 0 0 1 2514.7 1660)">Celular.</text></g><g clip-path="url(#clip57)"><text font-family="Calibri,Calibri_MSFontService,sans-serif" font-weight="400" font-size="41" transform="matrix(1 0 0 1 2996.35 1607)">Internet.</text></g><g clip-path="url(#clip58)"><text font-family="Calibri,Calibri_MSFontService,sans-serif" font-weight="400" font-size="41" transform="matrix(1 0 0 1 2996.35 1660)">WhatsApp.</text></g><g clip-path="url(#clip59)"><text font-family="Calibri,Calibri_MSFontService,sans-serif" font-weight="400" font-size="41" transform="matrix(1 0 0 1 2996.35 1713)">Contenido digital.</text></g><g clip-path="url(#clip60)"><text font-family="Calibri,Calibri_MSFontService,sans-serif" font-weight="400" font-size="41" transform="matrix(1 0 0 1 715.141 1852)">½ hora</text></g><g clip-path="url(#clip61)"><text font-family="Calibri,Calibri_MSFontService,sans-serif" font-weight="400" font-size="41" transform="matrix(1 0 0 1 1000.29 1852)">14 de julio</text></g><g clip-path="url(#clip62)"><text font-family="Calibri,Calibri_MSFontService,sans-serif" font-weight="400" font-size="41" transform="matrix(1 0 0 1 1374.09 1852)">14 de julio</text></g><g clip-path="url(#clip63)"><text font-family="Calibri,Calibri_MSFontService,sans-serif" font-weight="700" font-size="41" transform="matrix(1 0 0 1 1944.4 1852)">6.3 </text></g><g clip-path="url(#clip64)"><text font-family="Calibri,Calibri_MSFontService,sans-serif" font-weight="400" font-size="41" transform="matrix(1 0 0 1 2005.7 1852)">Enviar contenido con la lista </text></g><g clip-path="url(#clip65)"><text font-family="Calibri,Calibri_MSFontService,sans-serif" font-weight="400" font-size="41" transform="matrix(1 0 0 1 1944.4 1905)">de acciones sostenibles para </text></g><g clip-path="url(#clip66)"><text font-family="Calibri,Calibri_MSFontService,sans-serif" font-weight="400" font-size="41" transform="matrix(1 0 0 1 1944.4 1958)">reducir el consumo y la </text></g><g clip-path="url(#clip67)"><text font-family="Calibri,Calibri_MSFontService,sans-serif" font-weight="400" font-size="41" transform="matrix(1 0 0 1 1944.4 2011)">contaminación del agua.</text></g><g clip-path="url(#clip68)"><text font-family="Calibri,Calibri_MSFontService,sans-serif" font-weight="400" font-size="41" transform="matrix(1 0 0 1 2514.7 1852)">Computadora.</text></g><g clip-path="url(#clip69)"><text font-family="Calibri,Calibri_MSFontService,sans-serif" font-weight="400" font-size="41" transform="matrix(1 0 0 1 2514.7 1905)">Celular.</text></g><g clip-path="url(#clip70)"><text font-family="Calibri,Calibri_MSFontService,sans-serif" font-weight="400" font-size="41" transform="matrix(1 0 0 1 2996.35 1852)">Internet.</text></g><g clip-path="url(#clip71)"><text font-family="Calibri,Calibri_MSFontService,sans-serif" font-weight="400" font-size="41" transform="matrix(1 0 0 1 2996.35 1905)">WhatsApp.</text></g><g clip-path="url(#clip72)"><text font-family="Calibri,Calibri_MSFontService,sans-serif" font-weight="400" font-size="41" transform="matrix(1 0 0 1 2996.35 1958)">Contenido digital.</text></g><g clip-path="url(#clip73)"><text font-family="Calibri,Calibri_MSFontService,sans-serif" font-weight="400" font-size="41" transform="matrix(1 0 0 1 715.141 2132)">Resto del dia</text></g><g clip-path="url(#clip74)"><text font-family="Calibri,Calibri_MSFontService,sans-serif" font-weight="400" font-size="41" transform="matrix(1 0 0 1 1000.29 2132)">14 de julio</text></g><g clip-path="url(#clip75)"><text font-family="Calibri,Calibri_MSFontService,sans-serif" font-weight="400" font-size="41" transform="matrix(1 0 0 1 1374.09 2132)">14 de julio</text></g><g clip-path="url(#clip76)"><text font-family="Calibri,Calibri_MSFontService,sans-serif" font-weight="700" font-size="41" transform="matrix(1 0 0 1 1944.4 2132)">6.4 </text></g><text font-family="Calibri,Calibri_MSFontService,sans-serif" font-weight="400" font-size="41" transform="matrix(1 0 0 1 2005.7 2132)">Resolver dudas y preguntas</text><g clip-path="url(#clip77)"><text font-family="Calibri,Calibri_MSFontService,sans-serif" font-weight="400" font-size="41" transform="matrix(1 0 0 1 2514.7 2132)">Celular.</text></g><g clip-path="url(#clip78)"><text font-family="Calibri,Calibri_MSFontService,sans-serif" font-weight="400" font-size="41" transform="matrix(1 0 0 1 2996.35 2132)">Internet.</text></g><g clip-path="url(#clip79)"><text font-family="Calibri,Calibri_MSFontService,sans-serif" font-weight="400" font-size="41" transform="matrix(1 0 0 1 2996.35 2185)">WhatsApp.</text></g><g clip-path="url(#clip80)"><text fill="#FFFFFF" font-family="Calibri,Calibri_MSFontService,sans-serif" font-weight="700" font-size="64" transform="matrix(1 0 0 1 179.081 2257)">7. Concientización </text></g><g clip-path="url(#clip81)"><text fill="#FFFFFF" font-family="Calibri,Calibri_MSFontService,sans-serif" font-weight="700" font-size="64" transform="matrix(1 0 0 1 179.081 2339)">y explicación de mi </text></g><g clip-path="url(#clip82)"><text fill="#FFFFFF" font-family="Calibri,Calibri_MSFontService,sans-serif" font-weight="700" font-size="64" transform="matrix(1 0 0 1 179.081 2422)">proyecto a través </text></g><g clip-path="url(#clip83)"><text fill="#FFFFFF" font-family="Calibri,Calibri_MSFontService,sans-serif" font-weight="700" font-size="64" transform="matrix(1 0 0 1 179.081 2504)">de redes sociales.  </text></g><g clip-path="url(#clip84)"><text font-family="Calibri,Calibri_MSFontService,sans-serif" font-weight="400" font-size="41" transform="matrix(1 0 0 1 715.141 2235)">½ hora</text></g><g clip-path="url(#clip85)"><text font-family="Calibri,Calibri_MSFontService,sans-serif" font-weight="400" font-size="41" transform="matrix(1 0 0 1 1000.29 2235)">15 de Julio</text></g><g clip-path="url(#clip86)"><text font-family="Calibri,Calibri_MSFontService,sans-serif" font-weight="400" font-size="41" transform="matrix(1 0 0 1 1374.09 2235)">15 de julio</text></g><g clip-path="url(#clip87)"><text font-family="Calibri,Calibri_MSFontService,sans-serif" font-weight="700" font-size="41" transform="matrix(1 0 0 1 1944.4 2235)">7.1 </text></g><text font-family="Calibri,Calibri_MSFontService,sans-serif" font-weight="400" font-size="41" transform="matrix(1 0 0 1 2005.7 2235)">Presentarme a mí y a mi </text><g clip-path="url(#clip88)"><text font-family="Calibri,Calibri_MSFontService,sans-serif" font-weight="400" font-size="41" transform="matrix(1 0 0 1 1944.4 2288)">proyecto.</text></g><g clip-path="url(#clip89)"><text font-family="Calibri,Calibri_MSFontService,sans-serif" font-weight="400" font-size="41" transform="matrix(1 0 0 1 2514.7 2235)">Computadora.</text></g><g clip-path="url(#clip90)"><text font-family="Calibri,Calibri_MSFontService,sans-serif" font-weight="400" font-size="41" transform="matrix(1 0 0 1 2514.7 2288)">Celular.</text></g><g clip-path="url(#clip91)"><text font-family="Calibri,Calibri_MSFontService,sans-serif" font-weight="400" font-size="41" transform="matrix(1 0 0 1 2996.35 2235)">Internet.</text></g><g clip-path="url(#clip92)"><text font-family="Calibri,Calibri_MSFontService,sans-serif" font-weight="400" font-size="41" transform="matrix(1 0 0 1 2996.35 2288)">Redes sociales.</text></g><g clip-path="url(#clip93)"><text font-family="Calibri,Calibri_MSFontService,sans-serif" font-weight="400" font-size="41" transform="matrix(1 0 0 1 3425.2 2235)">$350 del internet.</text></g><g clip-path="url(#clip94)"><text font-family="Calibri,Calibri_MSFontService,sans-serif" font-weight="400" font-size="41" transform="matrix(1 0 0 1 3809.89 2235)">Director</text></g><g clip-path="url(#clip95)"><text font-family="Calibri,Calibri_MSFontService,sans-serif" font-weight="400" font-size="41" transform="matrix(1 0 0 1 715.141 2340)">Resto de dia</text></g><g clip-path="url(#clip96)"><text font-family="Calibri,Calibri_MSFontService,sans-serif" font-weight="400" font-size="41" transform="matrix(1 0 0 1 1000.29 2340)">15 de Julio</text></g><g clip-path="url(#clip97)"><text font-family="Calibri,Calibri_MSFontService,sans-serif" font-weight="400" font-size="41" transform="matrix(1 0 0 1 1374.09 2340)">15 de julio</text></g><g clip-path="url(#clip98)"><text font-family="Calibri,Calibri_MSFontService,sans-serif" font-weight="700" font-size="41" transform="matrix(1 0 0 1 1944.4 2340)">7.2 </text></g><text font-family="Calibri,Calibri_MSFontService,sans-serif" font-weight="400" font-size="41" transform="matrix(1 0 0 1 2005.7 2340)">Publicar en las diferentes </text><g clip-path="url(#clip99)"><text font-family="Calibri,Calibri_MSFontService,sans-serif" font-weight="400" font-size="41" transform="matrix(1 0 0 1 1944.4 2393)">redes sociales y dependiendo </text></g><g clip-path="url(#clip100)"><text font-family="Calibri,Calibri_MSFontService,sans-serif" font-weight="400" font-size="41" transform="matrix(1 0 0 1 1944.4 2446)">de sus herramientas el </text></g><g clip-path="url(#clip101)"><text font-family="Calibri,Calibri_MSFontService,sans-serif" font-weight="400" font-size="41" transform="matrix(1 0 0 1 1944.4 2499)">contenido realizado.</text></g><g clip-path="url(#clip102)"><text font-family="Calibri,Calibri_MSFontService,sans-serif" font-weight="400" font-size="41" transform="matrix(1 0 0 1 2514.7 2340)">Computadora.</text></g><g clip-path="url(#clip103)"><text font-family="Calibri,Calibri_MSFontService,sans-serif" font-weight="400" font-size="41" transform="matrix(1 0 0 1 2514.7 2393)">Celular.</text></g><g clip-path="url(#clip104)"><text font-family="Calibri,Calibri_MSFontService,sans-serif" font-weight="400" font-size="41" transform="matrix(1 0 0 1 2996.35 2340)">Internet.</text></g><g clip-path="url(#clip105)"><text font-family="Calibri,Calibri_MSFontService,sans-serif" font-weight="400" font-size="41" transform="matrix(1 0 0 1 2996.35 2393)">Redes sociales.</text></g><g clip-path="url(#clip106)"><text font-family="Calibri,Calibri_MSFontService,sans-serif" font-weight="400" font-size="41" transform="matrix(1 0 0 1 2996.35 2446)">Contenido digital.</text></g></g></svg>