<svg xmlns="http://www.w3.org/2000/svg" xmlns:xlink="http://www.w3.org/1999/xlink" xmlns:lucid="lucid" width="1210" height="992.09"><g transform="translate(-20 -40)" lucid:page-tab-id="0_0"><path d="M548 60c17.67 0 32 20.15 32 45s-14.33 45-32 45h-96c-17.67 0-32-20.15-32-45s14.33-45 32-45z" stroke="#5e5e5e" stroke-width="3" fill="#fff"/><use xlink:href="#a" transform="matrix(1,0,0,1,425,65) translate(15.221049382716041 17.77777777777778)"/><use xlink:href="#b" transform="matrix(1,0,0,1,425,65) translate(110.09759259259259 17.77777777777778)"/><use xlink:href="#c" transform="matrix(1,0,0,1,425,65) translate(1.6049382716049365 44.44444444444444)"/><use xlink:href="#d" transform="matrix(1,0,0,1,425,65) translate(104.01234567901236 44.44444444444444)"/><use xlink:href="#e" transform="matrix(1,0,0,1,425,65) translate(36.2087037037037 71.11111111111111)"/><path d="M494.87 223.12a9.86 9.86 0 0 1 10.26 0l104.74 63.76a3.65 3.65 0 0 1 0 6.24l-104.74 63.76a9.86 9.86 0 0 1-10.26 0l-104.74-63.76a3.65 3.65 0 0 1 0-6.24z" stroke="#5e5e5e" stroke-width="3" fill="#fff"/><use xlink:href="#f" transform="matrix(1,0,0,1,390,225) translate(60.056738333333335 48.14448)"/><use xlink:href="#g" transform="matrix(1,0,0,1,390,225) translate(101.28646166666667 48.14448)"/><use xlink:href="#h" transform="matrix(1,0,0,1,390,225) translate(30.83198055555554 69.06888000000001)"/><use xlink:href="#i" transform="matrix(1,0,0,1,390,225) translate(67.7703361111111 69.06888000000001)"/><use xlink:href="#j" transform="matrix(1,0,0,1,390,225) translate(88.35803722222221 69.06888000000001)"/><use xlink:href="#k" transform="matrix(1,0,0,1,390,225) translate(62.256743333333326 89.99328000000001)"/><path d="M500 152.5v49.18" stroke="#5e5e5e" stroke-width="2" fill="none"/><path d="M501 152.53h-2v-1.03h2z" stroke="#5e5e5e" stroke-width=".05" fill="#5e5e5e"/><path d="M500 216.94l-4.64-14.26h9.28z" stroke="#5e5e5e" stroke-width="2" fill="#5e5e5e"/><path d="M501 434.7h-2v-17.52h2zm0-38.86h-2v-35.02h2z" stroke="#5e5e5e" stroke-width=".05" fill="#5e5e5e"/><path d="M500 359.82l1-.05v1.08h-2v-1.1z" fill="#5e5e5e"/><path d="M500 359.8l1.02-.06v1.13h-2.04v-1.13zm-.98 1.02h1.96v-1.03l-.98.04-.98-.05z" stroke="#5e5e5e" stroke-width=".05" fill="#5e5e5e"/><path d="M500 449.97l-4.64-14.27h9.28z" fill="#5e5e5e"/><path d="M500 453.2l-6-18.5h12zm-3.26-16.5l3.26 10.03 3.26-10.03z" stroke="#5e5e5e" stroke-width=".05" fill="#5e5e5e"/><use xlink:href="#l" transform="matrix(1,0,0,1,491.60493827160496,395.84490582527513) translate(0.005000000000000782 14.222222222222223)"/><path d="M322.36 291h-22.4v-2h22.4zm63.5 0h-39.9v-2h39.9z" stroke="#5e5e5e" stroke-width=".05" fill="#5e5e5e"/><path d="M386.86 290l.1 1h-1.12v-2h1.13z" fill="#5e5e5e"/><path d="M386.9 290l.1 1.02h-1.2v-2.04h1.2zm-1.04-.98v1.96h1.08l-.1-.98.1-.98z" stroke="#5e5e5e" stroke-width=".05" fill="#5e5e5e"/><path d="M298.97 294.64L284.7 290l14.27-4.64z" fill="#5e5e5e"/><path d="M299.97 296l-18.5-6 18.5-6zm-12.03-6l10.03 3.26v-6.52z" stroke="#5e5e5e" stroke-width=".05" fill="#5e5e5e"/><use xlink:href="#m" transform="matrix(1,0,0,1,322.36115579820506,279.3333333333333) translate(0.005000000000000782 14.222222222222223)"/><path d="M420 460.67a6 6 0 0 1 6-6h148a6 6 0 0 1 6 6v118.66a6 6 0 0 1-6 6H426a6 6 0 0 1-6-6z" stroke="#5e5e5e" stroke-width="3" fill="#fff"/><use xlink:href="#n" transform="matrix(1,0,0,1,432,466.6666666666667) translate(29.790123456790127 17.77777777777778)"/><use xlink:href="#o" transform="matrix(1,0,0,1,432,466.6666666666667) translate(19.882716049382708 44.44444444444444)"/><use xlink:href="#d" transform="matrix(1,0,0,1,432,466.6666666666667) translate(45.808641975308646 71.11111111111111)"/><use xlink:href="#p" transform="matrix(1,0,0,1,432,466.6666666666667) translate(9.450617283950614 97.77777777777777)"/><path d="M40 148.33a6 6 0 0 1 6-6h228a6 6 0 0 1 6 6v283.34a6 6 0 0 1-6 6H46a6 6 0 0 1-6-6z" stroke="#5e5e5e" stroke-width="3" fill="#fff"/><use xlink:href="#q" transform="matrix(1,0,0,1,52,154.33333333333337) translate(11.79629629629629 34.77777777777778)"/><use xlink:href="#r" transform="matrix(1,0,0,1,52,154.33333333333337) translate(114.14197530864197 34.77777777777778)"/><use xlink:href="#s" transform="matrix(1,0,0,1,52,154.33333333333337) translate(137.53703703703704 34.77777777777778)"/><use xlink:href="#t" transform="matrix(1,0,0,1,52,154.33333333333337) translate(51.24074074074075 61.44444444444445)"/><use xlink:href="#u" transform="matrix(1,0,0,1,52,154.33333333333337) translate(82.10493827160494 61.44444444444445)"/><use xlink:href="#v" transform="matrix(1,0,0,1,52,154.33333333333337) translate(153.64814814814815 61.44444444444445)"/><use xlink:href="#w" transform="matrix(1,0,0,1,52,154.33333333333337) translate(18.617283950617292 88.11111111111111)"/><use xlink:href="#x" transform="matrix(1,0,0,1,52,154.33333333333337) translate(167.8148148148148 88.11111111111111)"/><use xlink:href="#y" transform="matrix(1,0,0,1,52,154.33333333333337) translate(28.401234567901227 114.7777777777778)"/><use xlink:href="#z" transform="matrix(1,0,0,1,52,154.33333333333337) translate(83.95679012345678 114.7777777777778)"/><use xlink:href="#b" transform="matrix(1,0,0,1,52,154.33333333333337) translate(162.9074074074074 114.7777777777778)"/><use xlink:href="#A" transform="matrix(1,0,0,1,52,154.33333333333337) translate(11.240740740740748 141.44444444444446)"/><use xlink:href="#B" transform="matrix(1,0,0,1,52,154.33333333333337) translate(78.9567901234568 141.44444444444446)"/><use xlink:href="#C" transform="matrix(1,0,0,1,52,154.33333333333337) translate(96.24074074074075 141.44444444444446)"/><use xlink:href="#D" transform="matrix(1,0,0,1,52,154.33333333333337) translate(131.98148148148147 141.44444444444446)"/><use xlink:href="#b" transform="matrix(1,0,0,1,52,154.33333333333337) translate(180.0679012345679 141.44444444444446)"/><use xlink:href="#E" transform="matrix(1,0,0,1,52,154.33333333333337) translate(63.617283950617285 168.11111111111111)"/><use xlink:href="#F" transform="matrix(1,0,0,1,52,154.33333333333337) translate(23.493827160493822 194.77777777777777)"/><use xlink:href="#v" transform="matrix(1,0,0,1,52,154.33333333333337) translate(181.39506172839506 194.77777777777777)"/><use xlink:href="#G" transform="matrix(1,0,0,1,52,154.33333333333337) translate(57.38271604938272 221.44444444444443)"/><use xlink:href="#b" transform="matrix(1,0,0,1,52,154.33333333333337) translate(133.92592592592592 221.44444444444443)"/><use xlink:href="#H" transform="matrix(1,0,0,1,52,154.33333333333337) translate(1.9506172839506064 248.1111111111111)"/><use xlink:href="#I" transform="matrix(1,0,0,1,52,154.33333333333337) translate(119.1111111111111 248.1111111111111)"/><path d="M160 440.13V514a6 6 0 0 0 6 6h234.03" stroke="#5e5e5e" stroke-width="2" fill="none"/><path d="M161 440.16h-2v-1.03h2z" stroke="#5e5e5e" stroke-width=".05" fill="#5e5e5e"/><path d="M415.3 520l-14.27 4.64v-9.28z" stroke="#5e5e5e" stroke-width="2" fill="#5e5e5e"/><path d="M805 463.08a9 9 0 0 1 10 0l80 53.34a4 4 0 0 1 0 6.66l-80 53.34a9 9 0 0 1-10 0l-80-53.34a4 4 0 0 1 0-6.66z" stroke="#5e5e5e" stroke-width="3" fill="#fff"/><use xlink:href="#J" transform="matrix(1,0,0,1,725,464.7511733333333) translate(47.577754444444444 35.65448000000001)"/><use xlink:href="#K" transform="matrix(1,0,0,1,725,464.7511733333333) translate(24.219676666666654 56.578880000000005)"/><use xlink:href="#L" transform="matrix(1,0,0,1,725,464.7511733333333) translate(82.77783444444445 56.578880000000005)"/><use xlink:href="#M" transform="matrix(1,0,0,1,725,464.7511733333333) translate(108.85196777777779 56.578880000000005)"/><use xlink:href="#N" transform="matrix(1,0,0,1,725,464.7511733333333) translate(134.9261011111111 56.578880000000005)"/><use xlink:href="#O" transform="matrix(1,0,0,1,725,464.7511733333333) translate(47.604915 77.50328)"/><path d="M730 686a6 6 0 0 1 6-6h148a6 6 0 0 1 6 6v108a6 6 0 0 1-6 6H736a6 6 0 0 1-6-6z" stroke="#5e5e5e" stroke-width="3" fill="#fff"/><g><use xlink:href="#P" transform="matrix(1,0,0,1,742,692) translate(35.9320987654321 38.77777777777778)"/><use xlink:href="#Q" transform="matrix(1,0,0,1,742,692) translate(27.938271604938272 65.44444444444446)"/></g><path d="M899.3 519.75h59a.12.12 0 0 1 .12.13.12.12 0 0 0 .12.12h41.5" stroke="#5e5e5e" stroke-width="2" fill="none"/><path d="M899.32 520.75h-1.12l.1-1-.1-1h1.12z" stroke="#5e5e5e" stroke-width=".05" fill="#5e5e5e"/><path d="M1015.3 520l-14.27 4.64v-9.28z" stroke="#5e5e5e" stroke-width="2" fill="#5e5e5e"/><g><use xlink:href="#R" transform="matrix(1,0,0,1,956.955020530791,513.0877561726987) translate(0.004999999999999893 1.777777777777778)"/></g><path d="M1020 466a6 6 0 0 1 6-6h148a6 6 0 0 1 6 6v108a6 6 0 0 1-6 6h-148a6 6 0 0 1-6-6z" stroke="#5e5e5e" stroke-width="3" fill="#fff"/><g><use xlink:href="#S" transform="matrix(1,0,0,1,1032,472) translate(7.785048333333322 42.64448)"/><use xlink:href="#T" transform="matrix(1,0,0,1,1032,472) translate(67.48394944444445 42.64448)"/><use xlink:href="#U" transform="matrix(1,0,0,1,1032,472) translate(6.644304999999989 63.56888000000001)"/><use xlink:href="#V" transform="matrix(1,0,0,1,1032,472) translate(33.80486055555555 63.56888000000001)"/></g><path d="M990 666a6 6 0 0 1 6-6h208a6 6 0 0 1 6 6v148a6 6 0 0 1-6 6H996a6 6 0 0 1-6-6z" stroke="#5e5e5e" stroke-width="3" fill="#fff"/><g><use xlink:href="#W" transform="matrix(1,0,0,1,1002,672) translate(25.291192777777752 19.89448)"/><use xlink:href="#X" transform="matrix(1,0,0,1,1002,672) translate(84.88145166666666 19.89448)"/><use xlink:href="#g" transform="matrix(1,0,0,1,1002,672) translate(112.04200722222222 19.89448)"/><use xlink:href="#Y" transform="matrix(1,0,0,1,1002,672) translate(48.59494944444444 40.81888000000001)"/><use xlink:href="#Z" transform="matrix(1,0,0,1,1002,672) translate(137.62725055555558 40.81888000000001)"/><use xlink:href="#aa" transform="matrix(1,0,0,1,1002,672) translate(3.589908888888857 61.743280000000006)"/><use xlink:href="#U" transform="matrix(1,0,0,1,1002,672) translate(122.87906888888888 61.743280000000006)"/><use xlink:href="#ab" transform="matrix(1,0,0,1,1002,672) translate(150.03962444444446 61.743280000000006)"/><use xlink:href="#ac" transform="matrix(1,0,0,1,1002,672) translate(13.36770888888887 82.66768)"/><use xlink:href="#h" transform="matrix(1,0,0,1,1002,672) translate(77.35797777777778 82.66768)"/><use xlink:href="#ad" transform="matrix(1,0,0,1,1002,672) translate(114.29633333333334 82.66768)"/><use xlink:href="#ae" transform="matrix(1,0,0,1,1002,672) translate(134.88403444444447 82.66768)"/><use xlink:href="#af" transform="matrix(1,0,0,1,1002,672) translate(160.90384666666668 82.66768)"/><use xlink:href="#ag" transform="matrix(1,0,0,1,1002,672) translate(7.8812766666666505 103.59208000000001)"/><use xlink:href="#ad" transform="matrix(1,0,0,1,1002,672) translate(45.906054444444436 103.59208000000001)"/><use xlink:href="#ah" transform="matrix(1,0,0,1,1002,672) translate(66.49375555555555 103.59208000000001)"/><use xlink:href="#ai" transform="matrix(1,0,0,1,1002,672) translate(156.6124788888889 103.59208000000001)"/><use xlink:href="#aj" transform="matrix(1,0,0,1,1002,672) translate(50.822115 124.51648000000002)"/></g><path d="M420 673.9a6 6 0 0 1 6-6h148a6 6 0 0 1 6 6V814a6 6 0 0 1-6 6H426a6 6 0 0 1-6-6z" stroke="#5e5e5e" stroke-width="3" fill="#fff"/><g><use xlink:href="#ak" transform="matrix(1,0,0,1,432,679.9112799999999) translate(14.846792777777772 15.644480000000001)"/><use xlink:href="#al" transform="matrix(1,0,0,1,432,679.9112799999999) translate(69.00494055555555 15.644480000000001)"/><use xlink:href="#h" transform="matrix(1,0,0,1,432,679.9112799999999) translate(41.95302722222222 36.56888000000001)"/><use xlink:href="#am" transform="matrix(1,0,0,1,432,679.9112799999999) translate(78.89138277777778 36.56888000000001)"/><use xlink:href="#j" transform="matrix(1,0,0,1,432,679.9112799999999) translate(17.59000888888888 57.493280000000006)"/><use xlink:href="#an" transform="matrix(1,0,0,1,432,679.9112799999999) translate(5.041832222222212 78.41768)"/><use xlink:href="#ao" transform="matrix(1,0,0,1,432,679.9112799999999) translate(91.9012888888889 78.41768)"/><use xlink:href="#ap" transform="matrix(1,0,0,1,432,679.9112799999999) translate(7.785048333333322 99.34208000000001)"/><use xlink:href="#aq" transform="matrix(1,0,0,1,432,679.9112799999999) translate(117.35072944444445 99.34208000000001)"/><use xlink:href="#ar" transform="matrix(1,0,0,1,432,679.9112799999999) translate(30.083864444444444 120.26648000000002)"/></g><path d="M810 580.44v79.6" stroke="#5e5e5e" stroke-width="2" fill="none"/><path d="M810 579.44l1-.06v1.08h-2v-1.08z" stroke="#5e5e5e" stroke-width=".05" fill="#5e5e5e"/><path d="M810 675.3l-4.64-14.27h9.28z" stroke="#5e5e5e" stroke-width="2" fill="#5e5e5e"/><g><use xlink:href="#R" transform="matrix(1,0,0,1,818,627.6535883576211) translate(0.004999999999999893 1.777777777777778)"/></g><path d="M892.46 740h77.57" stroke="#5e5e5e" stroke-width="2" fill="none"/><path d="M892.5 741h-1.04v-2h1.03z" stroke="#5e5e5e" stroke-width=".05" fill="#5e5e5e"/><path d="M985.3 740l-14.27 4.64v-9.28z" stroke="#5e5e5e" stroke-width="2" fill="#5e5e5e"/><path d="M740 866a6 6 0 0 1 6-6h148a6 6 0 0 1 6 6v140.1a6 6 0 0 1-6 6H746a6 6 0 0 1-6-6z" stroke="#5e5e5e" stroke-width="3" fill="#fff"/><g><use xlink:href="#as" transform="matrix(1,0,0,1,752,872) translate(17.56284833333332 15.644480000000001)"/><use xlink:href="#at" transform="matrix(1,0,0,1,752,872) translate(96.70870722222223 15.644480000000001)"/><use xlink:href="#au" transform="matrix(1,0,0,1,752,872) translate(29.486332222222217 36.56888000000001)"/><use xlink:href="#av" transform="matrix(1,0,0,1,752,872) translate(91.35807777777778 36.56888000000001)"/><use xlink:href="#aw" transform="matrix(1,0,0,1,752,872) translate(22.940638333333325 57.493280000000006)"/><use xlink:href="#ax" transform="matrix(1,0,0,1,752,872) translate(19.19248166666666 78.41768)"/><use xlink:href="#ay" transform="matrix(1,0,0,1,752,872) translate(1.8097261111111038 99.34208000000001)"/><use xlink:href="#az" transform="matrix(1,0,0,1,752,872) translate(92.96055055555557 99.34208000000001)"/><use xlink:href="#U" transform="matrix(1,0,0,1,752,872) translate(15.362843333333323 120.26648000000002)"/><use xlink:href="#aA" transform="matrix(1,0,0,1,752,872) translate(42.523398888888885 120.26648000000002)"/></g><path d="M582.46 520h120.77" stroke="#5e5e5e" stroke-width="2" fill="none"/><path d="M582.5 521h-1.04v-2h1.03z" stroke="#5e5e5e" stroke-width=".05" fill="#5e5e5e"/><path d="M718.5 520l-14.27 4.64v-9.28z" stroke="#5e5e5e" stroke-width="2" fill="#5e5e5e"/><path d="M500 587.8v60.15" stroke="#5e5e5e" stroke-width="2" fill="none"/><path d="M501 587.82h-2v-1.02h2z" stroke="#5e5e5e" stroke-width=".05" fill="#5e5e5e"/><path d="M500 663.2l-4.64-14.25h9.28z" stroke="#5e5e5e" stroke-width="2" fill="#5e5e5e"/><path d="M1100 582.46v57.57" stroke="#5e5e5e" stroke-width="2" fill="none"/><path d="M1101 582.5h-2v-1.04h2z" stroke="#5e5e5e" stroke-width=".05" fill="#5e5e5e"/><path d="M1100 655.3l-4.64-14.27h9.28z" stroke="#5e5e5e" stroke-width="2" fill="#5e5e5e"/><path d="M1100 822.46v107.58a6 6 0 0 1-6 6H919.97" stroke="#5e5e5e" stroke-width="2" fill="none"/><path d="M1101 822.5h-2v-1.04h2z" stroke="#5e5e5e" stroke-width=".05" fill="#5e5e5e"/><path d="M904.7 936.04l14.27-4.63v9.28z" stroke="#5e5e5e" stroke-width="2" fill="#5e5e5e"/><path d="M500 822.46v107.58a6 6 0 0 0 6 6h214.03" stroke="#5e5e5e" stroke-width="2" fill="none"/><path d="M501 822.5h-2v-1.04h2z" stroke="#5e5e5e" stroke-width=".05" fill="#5e5e5e"/><path d="M735.3 936.04l-14.27 4.64v-9.27z" stroke="#5e5e5e" stroke-width="2" fill="#5e5e5e"/><defs><path fill="#333" d="M212-179c-10-28-35-45-73-45-59 0-87 40-87 99 0 60 29 101 89 101 43 0 62-24 78-52l27 14C228-24 195 4 139 4 59 4 22-46 18-125c-6-104 99-153 187-111 19 9 31 26 39 46" id="aB"/><path fill="#333" d="M114-163C36-179 61-72 57 0H25l-1-190h30c1 12-1 29 2 39 6-27 23-49 58-41v29" id="aC"/><path fill="#333" d="M100-194c63 0 86 42 84 106H49c0 40 14 67 53 68 26 1 43-12 49-29l28 8c-11 28-37 45-77 45C44 4 14-33 15-96c1-61 26-98 85-98zm52 81c6-60-76-77-97-28-3 7-6 17-6 28h103" id="aD"/><path fill="#333" d="M141-36C126-15 110 5 73 4 37 3 15-17 15-53c-1-64 63-63 125-63 3-35-9-54-41-54-24 1-41 7-42 31l-33-3c5-37 33-52 76-52 45 0 72 20 72 64v82c-1 20 7 32 28 27v20c-31 9-61-2-59-35zM48-53c0 20 12 33 32 33 41-3 63-29 60-74-43 2-92-5-92 41" id="aE"/><path fill="#333" d="M96-169c-40 0-48 33-48 73s9 75 48 75c24 0 41-14 43-38l32 2c-6 37-31 61-74 61-59 0-76-41-82-99-10-93 101-131 147-64 4 7 5 14 7 22l-32 3c-4-21-16-35-41-35" id="aF"/><path fill="#333" d="M24-231v-30h32v30H24zM24 0v-190h32V0H24" id="aG"/><path fill="#333" d="M100-194c62-1 85 37 85 99 1 63-27 99-86 99S16-35 15-95c0-66 28-99 85-99zM99-20c44 1 53-31 53-75 0-43-8-75-51-75s-53 32-53 75 10 74 51 75zM76-211c8-23 27-35 38-54h36v5l-58 49H76" id="aH"/><path fill="#333" d="M117-194c89-4 53 116 60 194h-32v-121c0-31-8-49-39-48C34-167 62-67 57 0H25l-1-190h30c1 10-1 24 2 32 11-22 29-35 61-36" id="aI"/><g id="a"><use transform="matrix(0.06172839506172839,0,0,0.06172839506172839,0,0)" xlink:href="#aB"/><use transform="matrix(0.06172839506172839,0,0,0.06172839506172839,15.987654320987653,0)" xlink:href="#aC"/><use transform="matrix(0.06172839506172839,0,0,0.06172839506172839,23.333333333333332,0)" xlink:href="#aD"/><use transform="matrix(0.06172839506172839,0,0,0.06172839506172839,35.67901234567901,0)" xlink:href="#aE"/><use transform="matrix(0.06172839506172839,0,0,0.06172839506172839,48.02469135802469,0)" xlink:href="#aF"/><use transform="matrix(0.06172839506172839,0,0,0.06172839506172839,59.1358024691358,0)" xlink:href="#aG"/><use transform="matrix(0.06172839506172839,0,0,0.06172839506172839,64.01234567901234,0)" xlink:href="#aH"/><use transform="matrix(0.06172839506172839,0,0,0.06172839506172839,76.35802469135803,0)" xlink:href="#aI"/></g><path fill="#333" d="M85-194c31 0 48 13 60 33l-1-100h32l1 261h-30c-2-10 0-23-3-31C134-8 116 4 85 4 32 4 16-35 15-94c0-66 23-100 70-100zm9 24c-40 0-46 34-46 75 0 40 6 74 45 74 42 0 51-32 51-76 0-42-9-74-50-73" id="aJ"/><g id="b"><use transform="matrix(0.06172839506172839,0,0,0.06172839506172839,0,0)" xlink:href="#aJ"/><use transform="matrix(0.06172839506172839,0,0,0.06172839506172839,12.345679012345679,0)" xlink:href="#aD"/></g><path fill="#333" d="M100-194c62-1 85 37 85 99 1 63-27 99-86 99S16-35 15-95c0-66 28-99 85-99zM99-20c44 1 53-31 53-75 0-43-8-75-51-75s-53 32-53 75 10 74 51 75" id="aK"/><path fill="#333" d="M59-47c-2 24 18 29 38 22v24C64 9 27 4 27-40v-127H5v-23h24l9-43h21v43h35v23H59v120" id="aL"/><g id="c"><use transform="matrix(0.06172839506172839,0,0,0.06172839506172839,0,0)" xlink:href="#aF"/><use transform="matrix(0.06172839506172839,0,0,0.06172839506172839,11.11111111111111,0)" xlink:href="#aK"/><use transform="matrix(0.06172839506172839,0,0,0.06172839506172839,23.45679012345679,0)" xlink:href="#aI"/><use transform="matrix(0.06172839506172839,0,0,0.06172839506172839,35.80246913580247,0)" xlink:href="#aL"/><use transform="matrix(0.06172839506172839,0,0,0.06172839506172839,41.97530864197531,0)" xlink:href="#aD"/><use transform="matrix(0.06172839506172839,0,0,0.06172839506172839,54.32098765432099,0)" xlink:href="#aI"/><use transform="matrix(0.06172839506172839,0,0,0.06172839506172839,66.66666666666667,0)" xlink:href="#aG"/><use transform="matrix(0.06172839506172839,0,0,0.06172839506172839,71.54320987654322,0)" xlink:href="#aJ"/><use transform="matrix(0.06172839506172839,0,0,0.06172839506172839,83.8888888888889,0)" xlink:href="#aK"/></g><path fill="#333" d="M115-194c55 1 70 41 70 98S169 2 115 4C84 4 66-9 55-30l1 105H24l-1-265h31l2 30c10-21 28-34 59-34zm-8 174c40 0 45-34 45-75s-6-73-45-74c-42 0-51 32-51 76 0 43 10 73 51 73" id="aM"/><g id="d"><use transform="matrix(0.06172839506172839,0,0,0.06172839506172839,0,0)" xlink:href="#aM"/><use transform="matrix(0.06172839506172839,0,0,0.06172839506172839,12.345679012345679,0)" xlink:href="#aE"/><use transform="matrix(0.06172839506172839,0,0,0.06172839506172839,24.691358024691358,0)" xlink:href="#aC"/><use transform="matrix(0.06172839506172839,0,0,0.06172839506172839,32.03703703703704,0)" xlink:href="#aE"/></g><path fill="#333" d="M108 0H70L1-190h34L89-25l56-165h34" id="aN"/><path fill="#333" d="M84 4C-5 8 30-112 23-190h32v120c0 31 7 50 39 49 72-2 45-101 50-169h31l1 190h-30c-1-10 1-25-2-33-11 22-28 36-60 37" id="aO"/><path fill="#333" d="M24 0v-261h32V0H24" id="aP"/><path fill="#333" d="M177-190C167-65 218 103 67 71c-23-6-38-20-44-43l32-5c15 47 100 32 89-28v-30C133-14 115 1 83 1 29 1 15-40 15-95c0-56 16-97 71-98 29-1 48 16 59 35 1-10 0-23 2-32h30zM94-22c36 0 50-32 50-73 0-42-14-75-50-75-39 0-46 34-46 75s6 73 46 73" id="aQ"/><g id="e"><use transform="matrix(0.06172839506172839,0,0,0.06172839506172839,0,0)" xlink:href="#aJ"/><use transform="matrix(0.06172839506172839,0,0,0.06172839506172839,12.345679012345679,0)" xlink:href="#aG"/><use transform="matrix(0.06172839506172839,0,0,0.06172839506172839,17.22222222222222,0)" xlink:href="#aN"/><use transform="matrix(0.06172839506172839,0,0,0.06172839506172839,28.333333333333332,0)" xlink:href="#aO"/><use transform="matrix(0.06172839506172839,0,0,0.06172839506172839,40.67901234567901,0)" xlink:href="#aP"/><use transform="matrix(0.06172839506172839,0,0,0.06172839506172839,45.55555555555556,0)" xlink:href="#aQ"/><use transform="matrix(0.06172839506172839,0,0,0.06172839506172839,57.901234567901234,0)" xlink:href="#aE"/><use transform="matrix(0.06172839506172839,0,0,0.06172839506172839,70.24691358024691,0)" xlink:href="#aC"/></g><path d="M107 61C57 61 25 39 23-9c-2-65 71-58 78-115h30c1 64-76 54-76 114 0 30 21 42 52 43 32 0 53-17 56-46l32 2c-6 46-36 72-88 72zm26-251v35H99v-35h34" id="aR"/><path d="M185-189c-5-48-123-54-124 2 14 75 158 14 163 119 3 78-121 87-175 55-17-10-28-26-33-46l33-7c5 56 141 63 141-1 0-78-155-14-162-118-5-82 145-84 179-34 5 7 8 16 11 25" id="aS"/><path d="M100-194c63 0 86 42 84 106H49c0 40 14 67 53 68 26 1 43-12 49-29l28 8c-11 28-37 45-77 45C44 4 14-33 15-96c1-61 26-98 85-98zm52 81c6-60-76-77-97-28-3 7-6 17-6 28h103" id="aT"/><g id="f"><use transform="matrix(0.05432111111111112,0,0,0.05432111111111112,0,0)" xlink:href="#aR"/><use transform="matrix(0.05432111111111112,0,0,0.05432111111111112,11.896323333333335,0)" xlink:href="#aS"/><use transform="matrix(0.05432111111111112,0,0,0.05432111111111112,24.933390000000003,0)" xlink:href="#aT"/></g><path d="M96-169c-40 0-48 33-48 73s9 75 48 75c24 0 41-14 43-38l32 2c-6 37-31 61-74 61-59 0-76-41-82-99-10-93 101-131 147-64 4 7 5 14 7 22l-32 3c-4-21-16-35-41-35" id="aU"/><path d="M84 4C-5 8 30-112 23-190h32v120c0 31 7 50 39 49 72-2 45-101 50-169h31l1 190h-30c-1-10 1-25-2-33-11 22-28 36-60 37" id="aV"/><path d="M117-194c89-4 53 116 60 194h-32v-121c0-31-8-49-39-48C34-167 62-67 57 0H25l-1-190h30c1 10-1 24 2 32 11-22 29-35 61-36" id="aW"/><path d="M59-47c-2 24 18 29 38 22v24C64 9 27 4 27-40v-127H5v-23h24l9-43h21v43h35v23H59v120" id="aX"/><path d="M141-36C126-15 110 5 73 4 37 3 15-17 15-53c-1-64 63-63 125-63 3-35-9-54-41-54-24 1-41 7-42 31l-33-3c5-37 33-52 76-52 45 0 72 20 72 64v82c-1 20 7 32 28 27v20c-31 9-61-2-59-35zM48-53c0 20 12 33 32 33 41-3 63-29 60-74-43 2-92-5-92 41" id="aY"/><g id="g"><use transform="matrix(0.05432111111111112,0,0,0.05432111111111112,0,0)" xlink:href="#aU"/><use transform="matrix(0.05432111111111112,0,0,0.05432111111111112,9.777800000000001,0)" xlink:href="#aV"/><use transform="matrix(0.05432111111111112,0,0,0.05432111111111112,20.642022222222224,0)" xlink:href="#aT"/><use transform="matrix(0.05432111111111112,0,0,0.05432111111111112,31.506244444444448,0)" xlink:href="#aW"/><use transform="matrix(0.05432111111111112,0,0,0.05432111111111112,42.37046666666667,0)" xlink:href="#aX"/><use transform="matrix(0.05432111111111112,0,0,0.05432111111111112,47.802577777777785,0)" xlink:href="#aY"/></g><path d="M100-194c62-1 85 37 85 99 1 63-27 99-86 99S16-35 15-95c0-66 28-99 85-99zM99-20c44 1 53-31 53-75 0-43-8-75-51-75s-53 32-53 75 10 74 51 75" id="aZ"/><g id="h"><use transform="matrix(0.05432111111111112,0,0,0.05432111111111112,0,0)" xlink:href="#aU"/><use transform="matrix(0.05432111111111112,0,0,0.05432111111111112,9.777800000000001,0)" xlink:href="#aZ"/><use transform="matrix(0.05432111111111112,0,0,0.05432111111111112,20.642022222222224,0)" xlink:href="#aW"/></g><path d="M24 0v-261h32V0H24" id="ba"/><g id="i"><use transform="matrix(0.05432111111111112,0,0,0.05432111111111112,0,0)" xlink:href="#ba"/><use transform="matrix(0.05432111111111112,0,0,0.05432111111111112,4.291367777777778,0)" xlink:href="#aY"/></g><path d="M24-231v-30h32v30H24zM24 0v-190h32V0H24" id="bb"/><path d="M101-234c-31-9-42 10-38 44h38v23H63V0H32v-167H5v-23h27c-7-52 17-82 69-68v24" id="bc"/><path d="M114-163C36-179 61-72 57 0H25l-1-190h30c1 12-1 29 2 39 6-27 23-49 58-41v29" id="bd"/><path d="M210-169c-67 3-38 105-44 169h-31v-121c0-29-5-50-35-48C34-165 62-65 56 0H25l-1-190h30c1 10-1 24 2 32 10-44 99-50 107 0 11-21 27-35 58-36 85-2 47 119 55 194h-31v-121c0-29-5-49-35-48" id="be"/><g id="j"><use transform="matrix(0.05432111111111112,0,0,0.05432111111111112,0,0)" xlink:href="#bb"/><use transform="matrix(0.05432111111111112,0,0,0.05432111111111112,4.291367777777778,0)" xlink:href="#aW"/><use transform="matrix(0.05432111111111112,0,0,0.05432111111111112,15.155590000000005,0)" xlink:href="#bc"/><use transform="matrix(0.05432111111111112,0,0,0.05432111111111112,20.587701111111116,0)" xlink:href="#aZ"/><use transform="matrix(0.05432111111111112,0,0,0.05432111111111112,31.451923333333337,0)" xlink:href="#bd"/><use transform="matrix(0.05432111111111112,0,0,0.05432111111111112,37.91613555555556,0)" xlink:href="#be"/><use transform="matrix(0.05432111111111112,0,0,0.05432111111111112,54.158147777777785,0)" xlink:href="#aY"/><use transform="matrix(0.05432111111111112,0,0,0.05432111111111112,65.02237000000001,0)" xlink:href="#aU"/><use transform="matrix(0.05432111111111112,0,0,0.05432111111111112,74.80017000000001,0)" xlink:href="#bb"/><use transform="matrix(0.05432111111111112,0,0,0.05432111111111112,79.09153777777779,0)" xlink:href="#aZ"/><use transform="matrix(0.05432111111111112,0,0,0.05432111111111112,89.95576000000001,0)" xlink:href="#aW"/></g><path d="M135-143c-3-34-86-38-87 0 15 53 115 12 119 90S17 21 10-45l28-5c4 36 97 45 98 0-10-56-113-15-118-90-4-57 82-63 122-42 12 7 21 19 24 35" id="bf"/><path d="M103-251c84 0 111 97 45 133-19 10-37 24-39 52H78c0-63 77-55 77-114 0-30-21-42-52-43-32 0-53 17-56 46l-32-2c7-45 34-72 88-72zM77 0v-35h34V0H77" id="bg"/><g id="k"><use transform="matrix(0.05432111111111112,0,0,0.05432111111111112,0,0)" xlink:href="#aW"/><use transform="matrix(0.05432111111111112,0,0,0.05432111111111112,10.864222222222224,0)" xlink:href="#aT"/><use transform="matrix(0.05432111111111112,0,0,0.05432111111111112,21.72844444444445,0)" xlink:href="#aU"/><use transform="matrix(0.05432111111111112,0,0,0.05432111111111112,31.506244444444448,0)" xlink:href="#aT"/><use transform="matrix(0.05432111111111112,0,0,0.05432111111111112,42.37046666666667,0)" xlink:href="#bf"/><use transform="matrix(0.05432111111111112,0,0,0.05432111111111112,52.14826666666667,0)" xlink:href="#aY"/><use transform="matrix(0.05432111111111112,0,0,0.05432111111111112,63.012488888888896,0)" xlink:href="#bd"/><use transform="matrix(0.05432111111111112,0,0,0.05432111111111112,69.47670111111111,0)" xlink:href="#bb"/><use transform="matrix(0.05432111111111112,0,0,0.05432111111111112,73.76806888888889,0)" xlink:href="#aY"/><use transform="matrix(0.05432111111111112,0,0,0.05432111111111112,84.63229111111112,0)" xlink:href="#bg"/></g><path fill="#333" d="M169-182c-1-43-94-46-97-3 18 66 151 10 154 114 3 95-165 93-204 36-6-8-10-19-12-30l50-8c3 46 112 56 116 5-17-69-150-10-154-114-4-87 153-88 188-35 5 8 8 18 10 28" id="bh"/><path fill="#333" d="M25 0v-190h50V0H25zm-5-208v-5l45-51h45v8l-60 48H20" id="bi"/><g id="l"><use transform="matrix(0.04938271604938272,0,0,0.04938271604938272,0,0)" xlink:href="#bh"/><use transform="matrix(0.04938271604938272,0,0,0.04938271604938272,11.851851851851853,0)" xlink:href="#bi"/></g><path fill="#333" d="M175 0L67-191c6 58 2 128 3 191H24v-248h59L193-55c-6-58-2-129-3-193h46V0h-61" id="bj"/><path fill="#333" d="M110-194c64 0 96 36 96 99 0 64-35 99-97 99-61 0-95-36-95-99 0-62 34-99 96-99zm-1 164c35 0 45-28 45-65 0-40-10-65-43-65-34 0-45 26-45 65 0 36 10 65 43 65" id="bk"/><g id="m"><use transform="matrix(0.04938271604938272,0,0,0.04938271604938272,0,0)" xlink:href="#bj"/><use transform="matrix(0.04938271604938272,0,0,0.04938271604938272,12.790123456790125,0)" xlink:href="#bk"/></g><path fill="#333" d="M30-248c87 1 191-15 191 75 0 78-77 80-158 76V0H30v-248zm33 125c57 0 124 11 124-50 0-59-68-47-124-48v98" id="bl"/><g id="n"><use transform="matrix(0.06172839506172839,0,0,0.06172839506172839,0,0)" xlink:href="#bl"/><use transform="matrix(0.06172839506172839,0,0,0.06172839506172839,14.814814814814813,0)" xlink:href="#aP"/><use transform="matrix(0.06172839506172839,0,0,0.06172839506172839,19.691358024691354,0)" xlink:href="#aE"/><use transform="matrix(0.06172839506172839,0,0,0.06172839506172839,32.03703703703703,0)" xlink:href="#aI"/><use transform="matrix(0.06172839506172839,0,0,0.06172839506172839,44.38271604938271,0)" xlink:href="#aD"/><use transform="matrix(0.06172839506172839,0,0,0.06172839506172839,56.728395061728385,0)" xlink:href="#aE"/><use transform="matrix(0.06172839506172839,0,0,0.06172839506172839,69.07407407407406,0)" xlink:href="#aC"/></g><g id="o"><use transform="matrix(0.06172839506172839,0,0,0.06172839506172839,0,0)" xlink:href="#aF"/><use transform="matrix(0.06172839506172839,0,0,0.06172839506172839,11.11111111111111,0)" xlink:href="#aK"/><use transform="matrix(0.06172839506172839,0,0,0.06172839506172839,23.45679012345679,0)" xlink:href="#aI"/><use transform="matrix(0.06172839506172839,0,0,0.06172839506172839,35.80246913580247,0)" xlink:href="#aL"/><use transform="matrix(0.06172839506172839,0,0,0.06172839506172839,41.97530864197531,0)" xlink:href="#aD"/><use transform="matrix(0.06172839506172839,0,0,0.06172839506172839,54.32098765432099,0)" xlink:href="#aI"/><use transform="matrix(0.06172839506172839,0,0,0.06172839506172839,66.66666666666667,0)" xlink:href="#aG"/><use transform="matrix(0.06172839506172839,0,0,0.06172839506172839,71.54320987654322,0)" xlink:href="#aJ"/><use transform="matrix(0.06172839506172839,0,0,0.06172839506172839,83.8888888888889,0)" xlink:href="#aK"/></g><path fill="#333" d="M33 0v-38h34V0H33" id="bm"/><g id="p"><use transform="matrix(0.06172839506172839,0,0,0.06172839506172839,0,0)" xlink:href="#aJ"/><use transform="matrix(0.06172839506172839,0,0,0.06172839506172839,12.345679012345679,0)" xlink:href="#aG"/><use transform="matrix(0.06172839506172839,0,0,0.06172839506172839,17.22222222222222,0)" xlink:href="#aN"/><use transform="matrix(0.06172839506172839,0,0,0.06172839506172839,28.333333333333332,0)" xlink:href="#aO"/><use transform="matrix(0.06172839506172839,0,0,0.06172839506172839,40.67901234567901,0)" xlink:href="#aP"/><use transform="matrix(0.06172839506172839,0,0,0.06172839506172839,45.55555555555556,0)" xlink:href="#aQ"/><use transform="matrix(0.06172839506172839,0,0,0.06172839506172839,57.901234567901234,0)" xlink:href="#aE"/><use transform="matrix(0.06172839506172839,0,0,0.06172839506172839,70.24691358024691,0)" xlink:href="#aF"/><use transform="matrix(0.06172839506172839,0,0,0.06172839506172839,81.35802469135803,0)" xlink:href="#aG"/><use transform="matrix(0.06172839506172839,0,0,0.06172839506172839,86.23456790123457,0)" xlink:href="#aH"/><use transform="matrix(0.06172839506172839,0,0,0.06172839506172839,98.58024691358025,0)" xlink:href="#aI"/><use transform="matrix(0.06172839506172839,0,0,0.06172839506172839,110.92592592592594,0)" xlink:href="#bm"/></g><path fill="#333" d="M33 0v-248h34V0H33" id="bn"/><path fill="#333" d="M135-143c-3-34-86-38-87 0 15 53 115 12 119 90S17 21 10-45l28-5c4 36 97 45 98 0-10-56-113-15-118-90-4-57 82-63 122-42 12 7 21 19 24 35" id="bo"/><g id="q"><use transform="matrix(0.06172839506172839,0,0,0.06172839506172839,0,0)" xlink:href="#bn"/><use transform="matrix(0.06172839506172839,0,0,0.06172839506172839,6.172839506172839,0)" xlink:href="#aI"/><use transform="matrix(0.06172839506172839,0,0,0.06172839506172839,18.51851851851852,0)" xlink:href="#aN"/><use transform="matrix(0.06172839506172839,0,0,0.06172839506172839,29.62962962962963,0)" xlink:href="#aD"/><use transform="matrix(0.06172839506172839,0,0,0.06172839506172839,41.97530864197531,0)" xlink:href="#bo"/><use transform="matrix(0.06172839506172839,0,0,0.06172839506172839,53.08641975308642,0)" xlink:href="#aL"/><use transform="matrix(0.06172839506172839,0,0,0.06172839506172839,59.25925925925926,0)" xlink:href="#aG"/><use transform="matrix(0.06172839506172839,0,0,0.06172839506172839,64.1358024691358,0)" xlink:href="#aQ"/><use transform="matrix(0.06172839506172839,0,0,0.06172839506172839,76.48148148148148,0)" xlink:href="#aE"/><use transform="matrix(0.06172839506172839,0,0,0.06172839506172839,88.82716049382717,0)" xlink:href="#aC"/></g><g id="r"><use transform="matrix(0.06172839506172839,0,0,0.06172839506172839,0,0)" xlink:href="#aD"/><use transform="matrix(0.06172839506172839,0,0,0.06172839506172839,12.345679012345679,0)" xlink:href="#aP"/></g><g id="s"><use transform="matrix(0.06172839506172839,0,0,0.06172839506172839,0,0)" xlink:href="#aD"/><use transform="matrix(0.06172839506172839,0,0,0.06172839506172839,12.345679012345679,0)" xlink:href="#bo"/><use transform="matrix(0.06172839506172839,0,0,0.06172839506172839,23.45679012345679,0)" xlink:href="#aL"/><use transform="matrix(0.06172839506172839,0,0,0.06172839506172839,29.62962962962963,0)" xlink:href="#aE"/><use transform="matrix(0.06172839506172839,0,0,0.06172839506172839,41.97530864197531,0)" xlink:href="#aJ"/><use transform="matrix(0.06172839506172839,0,0,0.06172839506172839,54.32098765432099,0)" xlink:href="#aK"/></g><g id="t"><use transform="matrix(0.06172839506172839,0,0,0.06172839506172839,0,0)" xlink:href="#aJ"/><use transform="matrix(0.06172839506172839,0,0,0.06172839506172839,12.345679012345679,0)" xlink:href="#aD"/></g><path fill="#333" d="M145-31C134-9 116 4 85 4 32 4 16-35 15-94c0-59 17-99 70-100 32-1 48 14 60 33 0-11-1-24 2-32h30l-1 268h-32zM93-21c41 0 51-33 51-76s-8-73-50-73c-40 0-46 35-46 75s5 74 45 74" id="bp"/><g id="u"><use transform="matrix(0.06172839506172839,0,0,0.06172839506172839,0,0)" xlink:href="#bo"/><use transform="matrix(0.06172839506172839,0,0,0.06172839506172839,11.11111111111111,0)" xlink:href="#aD"/><use transform="matrix(0.06172839506172839,0,0,0.06172839506172839,23.45679012345679,0)" xlink:href="#bp"/><use transform="matrix(0.06172839506172839,0,0,0.06172839506172839,35.80246913580247,0)" xlink:href="#aO"/><use transform="matrix(0.06172839506172839,0,0,0.06172839506172839,48.148148148148145,0)" xlink:href="#aG"/><use transform="matrix(0.06172839506172839,0,0,0.06172839506172839,53.02469135802469,0)" xlink:href="#aE"/></g><path fill="#333" d="M179-190L93 31C79 59 56 82 12 73V49c39 6 53-20 64-50L1-190h34L92-34l54-156h33" id="bq"/><use transform="matrix(0.06172839506172839,0,0,0.06172839506172839,0,0)" xlink:href="#bq" id="v"/><path fill="#333" d="M210-169c-67 3-38 105-44 169h-31v-121c0-29-5-50-35-48C34-165 62-65 56 0H25l-1-190h30c1 10-1 24 2 32 10-44 99-50 107 0 11-21 27-35 58-36 85-2 47 119 55 194h-31v-121c0-29-5-49-35-48" id="br"/><g id="w"><use transform="matrix(0.06172839506172839,0,0,0.06172839506172839,0,0)" xlink:href="#aF"/><use transform="matrix(0.06172839506172839,0,0,0.06172839506172839,11.11111111111111,0)" xlink:href="#aK"/><use transform="matrix(0.06172839506172839,0,0,0.06172839506172839,23.45679012345679,0)" xlink:href="#aI"/><use transform="matrix(0.06172839506172839,0,0,0.06172839506172839,35.80246913580247,0)" xlink:href="#aL"/><use transform="matrix(0.06172839506172839,0,0,0.06172839506172839,41.97530864197531,0)" xlink:href="#aE"/><use transform="matrix(0.06172839506172839,0,0,0.06172839506172839,54.32098765432099,0)" xlink:href="#br"/><use transform="matrix(0.06172839506172839,0,0,0.06172839506172839,72.77777777777777,0)" xlink:href="#aG"/><use transform="matrix(0.06172839506172839,0,0,0.06172839506172839,77.65432098765432,0)" xlink:href="#aI"/><use transform="matrix(0.06172839506172839,0,0,0.06172839506172839,90,0)" xlink:href="#aE"/><use transform="matrix(0.06172839506172839,0,0,0.06172839506172839,102.34567901234568,0)" xlink:href="#aF"/><use transform="matrix(0.06172839506172839,0,0,0.06172839506172839,113.4567901234568,0)" xlink:href="#aG"/><use transform="matrix(0.06172839506172839,0,0,0.06172839506172839,118.33333333333334,0)" xlink:href="#aH"/><use transform="matrix(0.06172839506172839,0,0,0.06172839506172839,130.679012345679,0)" xlink:href="#aI"/></g><g id="x"><use transform="matrix(0.06172839506172839,0,0,0.06172839506172839,0,0)" xlink:href="#aJ"/><use transform="matrix(0.06172839506172839,0,0,0.06172839506172839,12.345679012345679,0)" xlink:href="#aD"/><use transform="matrix(0.06172839506172839,0,0,0.06172839506172839,24.691358024691358,0)" xlink:href="#aP"/></g><g id="y"><use transform="matrix(0.06172839506172839,0,0,0.06172839506172839,0,0)" xlink:href="#aE"/><use transform="matrix(0.06172839506172839,0,0,0.06172839506172839,12.345679012345679,0)" xlink:href="#aQ"/><use transform="matrix(0.06172839506172839,0,0,0.06172839506172839,24.691358024691358,0)" xlink:href="#aO"/><use transform="matrix(0.06172839506172839,0,0,0.06172839506172839,37.03703703703704,0)" xlink:href="#aE"/></g><path fill="#333" d="M115-194c53 0 69 39 70 98 0 66-23 100-70 100C84 3 66-7 56-30L54 0H23l1-261h32v101c10-23 28-34 59-34zm-8 174c40 0 45-34 45-75 0-40-5-75-45-74-42 0-51 32-51 76 0 43 10 73 51 73" id="bs"/><g id="z"><use transform="matrix(0.06172839506172839,0,0,0.06172839506172839,0,0)" xlink:href="#aM"/><use transform="matrix(0.06172839506172839,0,0,0.06172839506172839,12.345679012345679,0)" xlink:href="#aK"/><use transform="matrix(0.06172839506172839,0,0,0.06172839506172839,24.691358024691358,0)" xlink:href="#aL"/><use transform="matrix(0.06172839506172839,0,0,0.06172839506172839,30.864197530864196,0)" xlink:href="#aE"/><use transform="matrix(0.06172839506172839,0,0,0.06172839506172839,43.20987654320987,0)" xlink:href="#bs"/><use transform="matrix(0.06172839506172839,0,0,0.06172839506172839,55.55555555555555,0)" xlink:href="#aP"/><use transform="matrix(0.06172839506172839,0,0,0.06172839506172839,60.432098765432094,0)" xlink:href="#aD"/></g><path fill="#333" d="M24-231v-30h32v30H24zM-9 49c24 4 33-6 33-30v-209h32V24c2 40-23 58-65 49V49" id="bt"/><g id="A"><use transform="matrix(0.06172839506172839,0,0,0.06172839506172839,0,0)" xlink:href="#bt"/><use transform="matrix(0.06172839506172839,0,0,0.06172839506172839,4.876543209876543,0)" xlink:href="#aE"/><use transform="matrix(0.06172839506172839,0,0,0.06172839506172839,17.22222222222222,0)" xlink:href="#aP"/><use transform="matrix(0.06172839506172839,0,0,0.06172839506172839,22.098765432098766,0)" xlink:href="#aG"/><use transform="matrix(0.06172839506172839,0,0,0.06172839506172839,26.97530864197531,0)" xlink:href="#bo"/><use transform="matrix(0.06172839506172839,0,0,0.06172839506172839,38.08641975308642,0)" xlink:href="#aF"/><use transform="matrix(0.06172839506172839,0,0,0.06172839506172839,49.19753086419753,0)" xlink:href="#aK"/></g><use transform="matrix(0.06172839506172839,0,0,0.06172839506172839,0,0)" xlink:href="#bq" id="B"/><g id="C"><use transform="matrix(0.06172839506172839,0,0,0.06172839506172839,0,0)" xlink:href="#aJ"/><use transform="matrix(0.06172839506172839,0,0,0.06172839506172839,12.345679012345679,0)" xlink:href="#aD"/><use transform="matrix(0.06172839506172839,0,0,0.06172839506172839,24.691358024691358,0)" xlink:href="#aP"/></g><g id="D"><use transform="matrix(0.06172839506172839,0,0,0.06172839506172839,0,0)" xlink:href="#aP"/><use transform="matrix(0.06172839506172839,0,0,0.06172839506172839,4.876543209876543,0)" xlink:href="#aE"/><use transform="matrix(0.06172839506172839,0,0,0.06172839506172839,17.22222222222222,0)" xlink:href="#aQ"/><use transform="matrix(0.06172839506172839,0,0,0.06172839506172839,29.5679012345679,0)" xlink:href="#aK"/></g><path fill="#333" d="M106-169C34-169 62-67 57 0H25v-261h32l-1 103c12-21 28-36 61-36 89 0 53 116 60 194h-32v-121c2-32-8-49-39-48" id="bu"/><g id="E"><use transform="matrix(0.06172839506172839,0,0,0.06172839506172839,0,0)" xlink:href="#aB"/><use transform="matrix(0.06172839506172839,0,0,0.06172839506172839,15.987654320987653,0)" xlink:href="#bu"/><use transform="matrix(0.06172839506172839,0,0,0.06172839506172839,28.333333333333332,0)" xlink:href="#aE"/><use transform="matrix(0.06172839506172839,0,0,0.06172839506172839,40.67901234567901,0)" xlink:href="#aM"/><use transform="matrix(0.06172839506172839,0,0,0.06172839506172839,53.02469135802469,0)" xlink:href="#aE"/><use transform="matrix(0.06172839506172839,0,0,0.06172839506172839,65.37037037037037,0)" xlink:href="#aP"/><use transform="matrix(0.06172839506172839,0,0,0.06172839506172839,70.24691358024691,0)" xlink:href="#aE"/><use transform="matrix(0.06172839506172839,0,0,0.06172839506172839,82.5925925925926,0)" xlink:href="#bm"/></g><g id="F"><use transform="matrix(0.06172839506172839,0,0,0.06172839506172839,0,0)" xlink:href="#aB"/><use transform="matrix(0.06172839506172839,0,0,0.06172839506172839,15.987654320987653,0)" xlink:href="#aK"/><use transform="matrix(0.06172839506172839,0,0,0.06172839506172839,28.333333333333332,0)" xlink:href="#aI"/><use transform="matrix(0.06172839506172839,0,0,0.06172839506172839,40.67901234567901,0)" xlink:href="#aF"/><use transform="matrix(0.06172839506172839,0,0,0.06172839506172839,51.79012345679013,0)" xlink:href="#aD"/><use transform="matrix(0.06172839506172839,0,0,0.06172839506172839,64.13580246913581,0)" xlink:href="#aF"/><use transform="matrix(0.06172839506172839,0,0,0.06172839506172839,75.24691358024693,0)" xlink:href="#aO"/><use transform="matrix(0.06172839506172839,0,0,0.06172839506172839,87.59259259259261,0)" xlink:href="#aD"/><use transform="matrix(0.06172839506172839,0,0,0.06172839506172839,99.9382716049383,0)" xlink:href="#aI"/><use transform="matrix(0.06172839506172839,0,0,0.06172839506172839,112.28395061728398,0)" xlink:href="#aF"/><use transform="matrix(0.06172839506172839,0,0,0.06172839506172839,123.39506172839509,0)" xlink:href="#aG"/><use transform="matrix(0.06172839506172839,0,0,0.06172839506172839,128.27160493827162,0)" xlink:href="#aE"/><use transform="matrix(0.06172839506172839,0,0,0.06172839506172839,140.6172839506173,0)" xlink:href="#bo"/></g><g id="G"><use transform="matrix(0.06172839506172839,0,0,0.06172839506172839,0,0)" xlink:href="#aF"/><use transform="matrix(0.06172839506172839,0,0,0.06172839506172839,11.11111111111111,0)" xlink:href="#aE"/><use transform="matrix(0.06172839506172839,0,0,0.06172839506172839,23.45679012345679,0)" xlink:href="#aO"/><use transform="matrix(0.06172839506172839,0,0,0.06172839506172839,35.80246913580247,0)" xlink:href="#bo"/><use transform="matrix(0.06172839506172839,0,0,0.06172839506172839,46.91358024691358,0)" xlink:href="#aE"/><use transform="matrix(0.06172839506172839,0,0,0.06172839506172839,59.25925925925926,0)" xlink:href="#bo"/></g><g id="H"><use transform="matrix(0.06172839506172839,0,0,0.06172839506172839,0,0)" xlink:href="#aE"/><use transform="matrix(0.06172839506172839,0,0,0.06172839506172839,12.345679012345679,0)" xlink:href="#aF"/><use transform="matrix(0.06172839506172839,0,0,0.06172839506172839,23.45679012345679,0)" xlink:href="#aL"/><use transform="matrix(0.06172839506172839,0,0,0.06172839506172839,29.62962962962963,0)" xlink:href="#aG"/><use transform="matrix(0.06172839506172839,0,0,0.06172839506172839,34.50617283950617,0)" xlink:href="#aN"/><use transform="matrix(0.06172839506172839,0,0,0.06172839506172839,45.61728395061728,0)" xlink:href="#aG"/><use transform="matrix(0.06172839506172839,0,0,0.06172839506172839,50.49382716049382,0)" xlink:href="#aJ"/><use transform="matrix(0.06172839506172839,0,0,0.06172839506172839,62.8395061728395,0)" xlink:href="#aE"/><use transform="matrix(0.06172839506172839,0,0,0.06172839506172839,75.18518518518518,0)" xlink:href="#aJ"/><use transform="matrix(0.06172839506172839,0,0,0.06172839506172839,87.53086419753086,0)" xlink:href="#aD"/><use transform="matrix(0.06172839506172839,0,0,0.06172839506172839,99.87654320987654,0)" xlink:href="#bo"/></g><g id="I"><use transform="matrix(0.06172839506172839,0,0,0.06172839506172839,0,0)" xlink:href="#aF"/><use transform="matrix(0.06172839506172839,0,0,0.06172839506172839,11.11111111111111,0)" xlink:href="#aK"/><use transform="matrix(0.06172839506172839,0,0,0.06172839506172839,23.45679012345679,0)" xlink:href="#aL"/><use transform="matrix(0.06172839506172839,0,0,0.06172839506172839,29.62962962962963,0)" xlink:href="#aG"/><use transform="matrix(0.06172839506172839,0,0,0.06172839506172839,34.50617283950617,0)" xlink:href="#aJ"/><use transform="matrix(0.06172839506172839,0,0,0.06172839506172839,46.85185185185185,0)" xlink:href="#aG"/><use transform="matrix(0.06172839506172839,0,0,0.06172839506172839,51.72839506172839,0)" xlink:href="#aE"/><use transform="matrix(0.06172839506172839,0,0,0.06172839506172839,64.07407407407408,0)" xlink:href="#aI"/><use transform="matrix(0.06172839506172839,0,0,0.06172839506172839,76.41975308641976,0)" xlink:href="#aE"/><use transform="matrix(0.06172839506172839,0,0,0.06172839506172839,88.76543209876544,0)" xlink:href="#bm"/></g><path d="M30-248c87 1 191-15 191 75 0 78-77 80-158 76V0H30v-248zm33 125c57 0 124 11 124-50 0-59-68-47-124-48v98" id="bv"/><path d="M145-31C134-9 116 4 85 4 32 4 16-35 15-94c0-59 17-99 70-100 32-1 48 14 60 33 0-11-1-24 2-32h30l-1 268h-32zM93-21c41 0 51-33 51-76s-8-73-50-73c-40 0-46 35-46 75s5 74 45 74" id="bw"/><g id="J"><use transform="matrix(0.05432111111111112,0,0,0.05432111111111112,0,0)" xlink:href="#aR"/><use transform="matrix(0.05432111111111112,0,0,0.05432111111111112,11.896323333333335,0)" xlink:href="#bv"/><use transform="matrix(0.05432111111111112,0,0,0.05432111111111112,24.933390000000003,0)" xlink:href="#aZ"/><use transform="matrix(0.05432111111111112,0,0,0.05432111111111112,35.79761222222223,0)" xlink:href="#bd"/><use transform="matrix(0.05432111111111112,0,0,0.05432111111111112,42.26182444444445,0)" xlink:href="#bw"/><use transform="matrix(0.05432111111111112,0,0,0.05432111111111112,53.126046666666674,0)" xlink:href="#aV"/><use transform="matrix(0.05432111111111112,0,0,0.05432111111111112,63.9902688888889,0)" xlink:href="#aT"/></g><path d="M85-194c31 0 48 13 60 33l-1-100h32l1 261h-30c-2-10 0-23-3-31C134-8 116 4 85 4 32 4 16-35 15-94c0-66 23-100 70-100zm9 24c-40 0-46 34-46 75 0 40 6 74 45 74 42 0 51-32 51-76 0-42-9-74-50-73" id="bx"/><g id="K"><use transform="matrix(0.05432111111111112,0,0,0.05432111111111112,0,0)" xlink:href="#be"/><use transform="matrix(0.05432111111111112,0,0,0.05432111111111112,16.242012222222225,0)" xlink:href="#aT"/><use transform="matrix(0.05432111111111112,0,0,0.05432111111111112,27.10623444444445,0)" xlink:href="#bx"/><use transform="matrix(0.05432111111111112,0,0,0.05432111111111112,37.97045666666668,0)" xlink:href="#bb"/><use transform="matrix(0.05432111111111112,0,0,0.05432111111111112,42.26182444444446,0)" xlink:href="#aZ"/></g><g id="L"><use transform="matrix(0.05432111111111112,0,0,0.05432111111111112,0,0)" xlink:href="#bf"/><use transform="matrix(0.05432111111111112,0,0,0.05432111111111112,9.777800000000001,0)" xlink:href="#aT"/></g><path d="M108 0H70L1-190h34L89-25l56-165h34" id="by"/><g id="M"><use transform="matrix(0.05432111111111112,0,0,0.05432111111111112,0,0)" xlink:href="#by"/><use transform="matrix(0.05432111111111112,0,0,0.05432111111111112,9.777800000000001,0)" xlink:href="#aY"/></g><use transform="matrix(0.05432111111111112,0,0,0.05432111111111112,0,0)" xlink:href="#aY" id="N"/><g id="O"><use transform="matrix(0.05432111111111112,0,0,0.05432111111111112,0,0)" xlink:href="#bx"/><use transform="matrix(0.05432111111111112,0,0,0.05432111111111112,10.864222222222224,0)" xlink:href="#bb"/><use transform="matrix(0.05432111111111112,0,0,0.05432111111111112,15.155590000000005,0)" xlink:href="#bc"/><use transform="matrix(0.05432111111111112,0,0,0.05432111111111112,20.587701111111116,0)" xlink:href="#aV"/><use transform="matrix(0.05432111111111112,0,0,0.05432111111111112,31.451923333333337,0)" xlink:href="#aW"/><use transform="matrix(0.05432111111111112,0,0,0.05432111111111112,42.316145555555565,0)" xlink:href="#bx"/><use transform="matrix(0.05432111111111112,0,0,0.05432111111111112,53.18036777777779,0)" xlink:href="#bb"/><use transform="matrix(0.05432111111111112,0,0,0.05432111111111112,57.47173555555556,0)" xlink:href="#bd"/><use transform="matrix(0.05432111111111112,0,0,0.05432111111111112,63.935947777777784,0)" xlink:href="#bg"/></g><path fill="#333" d="M233-177c-1 41-23 64-60 70L243 0h-38l-65-103H63V0H30v-248c88 3 205-21 203 71zM63-129c60-2 137 13 137-47 0-61-80-42-137-45v92" id="bz"/><g id="P"><use transform="matrix(0.06172839506172839,0,0,0.06172839506172839,0,0)" xlink:href="#bz"/><use transform="matrix(0.06172839506172839,0,0,0.06172839506172839,15.987654320987653,0)" xlink:href="#aD"/><use transform="matrix(0.06172839506172839,0,0,0.06172839506172839,28.333333333333332,0)" xlink:href="#aJ"/><use transform="matrix(0.06172839506172839,0,0,0.06172839506172839,40.67901234567901,0)" xlink:href="#aD"/><use transform="matrix(0.06172839506172839,0,0,0.06172839506172839,53.02469135802469,0)" xlink:href="#bo"/></g><g id="Q"><use transform="matrix(0.06172839506172839,0,0,0.06172839506172839,0,0)" xlink:href="#bo"/><use transform="matrix(0.06172839506172839,0,0,0.06172839506172839,11.11111111111111,0)" xlink:href="#aK"/><use transform="matrix(0.06172839506172839,0,0,0.06172839506172839,23.45679012345679,0)" xlink:href="#aF"/><use transform="matrix(0.06172839506172839,0,0,0.06172839506172839,34.5679012345679,0)" xlink:href="#aG"/><use transform="matrix(0.06172839506172839,0,0,0.06172839506172839,39.44444444444444,0)" xlink:href="#aE"/><use transform="matrix(0.06172839506172839,0,0,0.06172839506172839,51.79012345679012,0)" xlink:href="#aP"/><use transform="matrix(0.06172839506172839,0,0,0.06172839506172839,56.666666666666664,0)" xlink:href="#aD"/><use transform="matrix(0.06172839506172839,0,0,0.06172839506172839,69.01234567901234,0)" xlink:href="#bo"/></g><g id="R"><use transform="matrix(0.00617283950617284,0,0,0.00617283950617284,0,0)" xlink:href="#bj"/><use transform="matrix(0.00617283950617284,0,0,0.00617283950617284,1.5987654320987656,0)" xlink:href="#bk"/></g><path d="M143 4C61 4 22-44 18-125c-5-107 100-154 193-111 17 8 29 25 37 43l-32 9c-13-25-37-40-76-40-61 0-88 39-88 99 0 61 29 100 91 101 35 0 62-11 79-27v-45h-74v-28h105v86C228-13 192 4 143 4" id="bA"/><path d="M115-194c55 1 70 41 70 98S169 2 115 4C84 4 66-9 55-30l1 105H24l-1-265h31l2 30c10-21 28-34 59-34zm-8 174c40 0 45-34 45-75s-6-73-45-74c-42 0-51 32-51 76 0 43 10 73 51 73" id="bB"/><g id="S"><use transform="matrix(0.05432111111111112,0,0,0.05432111111111112,0,0)" xlink:href="#bA"/><use transform="matrix(0.05432111111111112,0,0,0.05432111111111112,15.209911111111113,0)" xlink:href="#bd"/><use transform="matrix(0.05432111111111112,0,0,0.05432111111111112,21.674123333333334,0)" xlink:href="#aV"/><use transform="matrix(0.05432111111111112,0,0,0.05432111111111112,32.53834555555556,0)" xlink:href="#bB"/><use transform="matrix(0.05432111111111112,0,0,0.05432111111111112,43.40256777777778,0)" xlink:href="#aZ"/></g><g id="T"><use transform="matrix(0.05432111111111112,0,0,0.05432111111111112,0,0)" xlink:href="#by"/><use transform="matrix(0.05432111111111112,0,0,0.05432111111111112,9.777800000000001,0)" xlink:href="#aT"/><use transform="matrix(0.05432111111111112,0,0,0.05432111111111112,20.642022222222224,0)" xlink:href="#aU"/><use transform="matrix(0.05432111111111112,0,0,0.05432111111111112,30.41982222222222,0)" xlink:href="#bb"/><use transform="matrix(0.05432111111111112,0,0,0.05432111111111112,34.71119,0)" xlink:href="#aW"/><use transform="matrix(0.05432111111111112,0,0,0.05432111111111112,45.575412222222226,0)" xlink:href="#aY"/><use transform="matrix(0.05432111111111112,0,0,0.05432111111111112,56.43963444444445,0)" xlink:href="#ba"/></g><g id="U"><use transform="matrix(0.05432111111111112,0,0,0.05432111111111112,0,0)" xlink:href="#bx"/><use transform="matrix(0.05432111111111112,0,0,0.05432111111111112,10.864222222222224,0)" xlink:href="#aT"/></g><path d="M266 0h-40l-56-210L115 0H75L2-248h35L96-30l15-64 43-154h32l59 218 59-218h35" id="bC"/><path d="M106-169C34-169 62-67 57 0H25v-261h32l-1 103c12-21 28-36 61-36 89 0 53 116 60 194h-32v-121c2-32-8-49-39-48" id="bD"/><path d="M205 0l-28-72H64L36 0H1l101-248h38L239 0h-34zm-38-99l-47-123c-12 45-31 82-46 123h93" id="bE"/><path d="M33 0v-38h34V0H33" id="bF"/><g id="V"><use transform="matrix(0.05432111111111112,0,0,0.05432111111111112,0,0)" xlink:href="#bC"/><use transform="matrix(0.05432111111111112,0,0,0.05432111111111112,18.41485666666667,0)" xlink:href="#bD"/><use transform="matrix(0.05432111111111112,0,0,0.05432111111111112,29.279078888888893,0)" xlink:href="#aY"/><use transform="matrix(0.05432111111111112,0,0,0.05432111111111112,40.143301111111114,0)" xlink:href="#aX"/><use transform="matrix(0.05432111111111112,0,0,0.05432111111111112,45.575412222222226,0)" xlink:href="#bf"/><use transform="matrix(0.05432111111111112,0,0,0.05432111111111112,55.353212222222226,0)" xlink:href="#bE"/><use transform="matrix(0.05432111111111112,0,0,0.05432111111111112,68.3902788888889,0)" xlink:href="#bB"/><use transform="matrix(0.05432111111111112,0,0,0.05432111111111112,79.25450111111113,0)" xlink:href="#bB"/><use transform="matrix(0.05432111111111112,0,0,0.05432111111111112,90.11872333333335,0)" xlink:href="#bF"/></g><path d="M127-220V0H93v-220H8v-28h204v28h-85" id="bG"/><g id="W"><use transform="matrix(0.05432111111111112,0,0,0.05432111111111112,0,0)" xlink:href="#bG"/><use transform="matrix(0.05432111111111112,0,0,0.05432111111111112,9.72347888888889,0)" xlink:href="#aZ"/><use transform="matrix(0.05432111111111112,0,0,0.05432111111111112,20.587701111111116,0)" xlink:href="#be"/><use transform="matrix(0.05432111111111112,0,0,0.05432111111111112,36.829713333333345,0)" xlink:href="#aY"/><use transform="matrix(0.05432111111111112,0,0,0.05432111111111112,47.69393555555557,0)" xlink:href="#bd"/></g><g id="X"><use transform="matrix(0.05432111111111112,0,0,0.05432111111111112,0,0)" xlink:href="#aT"/><use transform="matrix(0.05432111111111112,0,0,0.05432111111111112,10.864222222222224,0)" xlink:href="#aW"/></g><g id="Y"><use transform="matrix(0.05432111111111112,0,0,0.05432111111111112,0,0)" xlink:href="#bc"/><use transform="matrix(0.05432111111111112,0,0,0.05432111111111112,5.432111111111112,0)" xlink:href="#aV"/><use transform="matrix(0.05432111111111112,0,0,0.05432111111111112,16.296333333333337,0)" xlink:href="#aW"/><use transform="matrix(0.05432111111111112,0,0,0.05432111111111112,27.16055555555556,0)" xlink:href="#aU"/><use transform="matrix(0.05432111111111112,0,0,0.05432111111111112,36.93835555555556,0)" xlink:href="#bb"/><use transform="matrix(0.05432111111111112,0,0,0.05432111111111112,41.22972333333334,0)" xlink:href="#aZ"/><use transform="matrix(0.05432111111111112,0,0,0.05432111111111112,52.093945555555564,0)" xlink:href="#aW"/><use transform="matrix(0.05432111111111112,0,0,0.05432111111111112,62.95816777777779,0)" xlink:href="#aT"/><use transform="matrix(0.05432111111111112,0,0,0.05432111111111112,73.82239000000001,0)" xlink:href="#bf"/></g><path d="M179-190L93 31C79 59 56 82 12 73V49c39 6 53-20 64-50L1-190h34L92-34l54-156h33" id="bH"/><use transform="matrix(0.05432111111111112,0,0,0.05432111111111112,0,0)" xlink:href="#bH" id="Z"/><g id="aa"><use transform="matrix(0.05432111111111112,0,0,0.05432111111111112,0,0)" xlink:href="#bD"/><use transform="matrix(0.05432111111111112,0,0,0.05432111111111112,10.864222222222224,0)" xlink:href="#aT"/><use transform="matrix(0.05432111111111112,0,0,0.05432111111111112,21.72844444444445,0)" xlink:href="#bd"/><use transform="matrix(0.05432111111111112,0,0,0.05432111111111112,28.19265666666667,0)" xlink:href="#bd"/><use transform="matrix(0.05432111111111112,0,0,0.05432111111111112,34.656868888888894,0)" xlink:href="#aY"/><use transform="matrix(0.05432111111111112,0,0,0.05432111111111112,45.52109111111112,0)" xlink:href="#be"/><use transform="matrix(0.05432111111111112,0,0,0.05432111111111112,61.76310333333334,0)" xlink:href="#bb"/><use transform="matrix(0.05432111111111112,0,0,0.05432111111111112,66.05447111111113,0)" xlink:href="#aT"/><use transform="matrix(0.05432111111111112,0,0,0.05432111111111112,76.91869333333335,0)" xlink:href="#aW"/><use transform="matrix(0.05432111111111112,0,0,0.05432111111111112,87.78291555555558,0)" xlink:href="#aX"/><use transform="matrix(0.05432111111111112,0,0,0.05432111111111112,93.21502666666669,0)" xlink:href="#aY"/><use transform="matrix(0.05432111111111112,0,0,0.05432111111111112,104.07924888888891,0)" xlink:href="#bf"/></g><g id="ab"><use transform="matrix(0.05432111111111112,0,0,0.05432111111111112,0,0)" xlink:href="#aU"/><use transform="matrix(0.05432111111111112,0,0,0.05432111111111112,9.777800000000001,0)" xlink:href="#aY"/><use transform="matrix(0.05432111111111112,0,0,0.05432111111111112,20.642022222222224,0)" xlink:href="#bx"/><use transform="matrix(0.05432111111111112,0,0,0.05432111111111112,31.506244444444448,0)" xlink:href="#aY"/></g><path d="M68-38c1 34 0 65-14 84H32c9-13 17-26 17-46H33v-38h35" id="bI"/><g id="ac"><use transform="matrix(0.05432111111111112,0,0,0.05432111111111112,0,0)" xlink:href="#be"/><use transform="matrix(0.05432111111111112,0,0,0.05432111111111112,16.242012222222225,0)" xlink:href="#aT"/><use transform="matrix(0.05432111111111112,0,0,0.05432111111111112,27.10623444444445,0)" xlink:href="#bx"/><use transform="matrix(0.05432111111111112,0,0,0.05432111111111112,37.97045666666668,0)" xlink:href="#bb"/><use transform="matrix(0.05432111111111112,0,0,0.05432111111111112,42.26182444444446,0)" xlink:href="#aZ"/><use transform="matrix(0.05432111111111112,0,0,0.05432111111111112,53.12604666666668,0)" xlink:href="#bI"/></g><g id="ad"><use transform="matrix(0.05432111111111112,0,0,0.05432111111111112,0,0)" xlink:href="#aT"/><use transform="matrix(0.05432111111111112,0,0,0.05432111111111112,10.864222222222224,0)" xlink:href="#ba"/></g><g id="ae"><use transform="matrix(0.05432111111111112,0,0,0.05432111111111112,0,0)" xlink:href="#bc"/><use transform="matrix(0.05432111111111112,0,0,0.05432111111111112,5.432111111111112,0)" xlink:href="#bb"/><use transform="matrix(0.05432111111111112,0,0,0.05432111111111112,9.723478888888891,0)" xlink:href="#aW"/></g><g id="af"><use transform="matrix(0.05432111111111112,0,0,0.05432111111111112,0,0)" xlink:href="#bx"/><use transform="matrix(0.05432111111111112,0,0,0.05432111111111112,10.864222222222224,0)" xlink:href="#aT"/></g><g id="ag"><use transform="matrix(0.05432111111111112,0,0,0.05432111111111112,0,0)" xlink:href="#bw"/><use transform="matrix(0.05432111111111112,0,0,0.05432111111111112,10.864222222222224,0)" xlink:href="#aV"/><use transform="matrix(0.05432111111111112,0,0,0.05432111111111112,21.72844444444445,0)" xlink:href="#aT"/></g><g id="ah"><use transform="matrix(0.05432111111111112,0,0,0.05432111111111112,0,0)" xlink:href="#aU"/><use transform="matrix(0.05432111111111112,0,0,0.05432111111111112,9.777800000000001,0)" xlink:href="#aZ"/><use transform="matrix(0.05432111111111112,0,0,0.05432111111111112,20.642022222222224,0)" xlink:href="#aW"/><use transform="matrix(0.05432111111111112,0,0,0.05432111111111112,31.506244444444448,0)" xlink:href="#aX"/><use transform="matrix(0.05432111111111112,0,0,0.05432111111111112,36.93835555555556,0)" xlink:href="#aT"/><use transform="matrix(0.05432111111111112,0,0,0.05432111111111112,47.802577777777785,0)" xlink:href="#aW"/><use transform="matrix(0.05432111111111112,0,0,0.05432111111111112,58.66680000000001,0)" xlink:href="#bb"/><use transform="matrix(0.05432111111111112,0,0,0.05432111111111112,62.95816777777779,0)" xlink:href="#bx"/><use transform="matrix(0.05432111111111112,0,0,0.05432111111111112,73.82239000000001,0)" xlink:href="#aZ"/></g><g id="ai"><use transform="matrix(0.05432111111111112,0,0,0.05432111111111112,0,0)" xlink:href="#bf"/><use transform="matrix(0.05432111111111112,0,0,0.05432111111111112,9.777800000000001,0)" xlink:href="#aT"/><use transform="matrix(0.05432111111111112,0,0,0.05432111111111112,20.642022222222224,0)" xlink:href="#aY"/></g><g id="aj"><use transform="matrix(0.05432111111111112,0,0,0.05432111111111112,0,0)" xlink:href="#bb"/><use transform="matrix(0.05432111111111112,0,0,0.05432111111111112,4.291367777777778,0)" xlink:href="#aW"/><use transform="matrix(0.05432111111111112,0,0,0.05432111111111112,15.155590000000005,0)" xlink:href="#aX"/><use transform="matrix(0.05432111111111112,0,0,0.05432111111111112,20.587701111111116,0)" xlink:href="#aT"/><use transform="matrix(0.05432111111111112,0,0,0.05432111111111112,31.451923333333337,0)" xlink:href="#bd"/><use transform="matrix(0.05432111111111112,0,0,0.05432111111111112,37.91613555555556,0)" xlink:href="#aY"/><use transform="matrix(0.05432111111111112,0,0,0.05432111111111112,48.78035777777779,0)" xlink:href="#aU"/><use transform="matrix(0.05432111111111112,0,0,0.05432111111111112,58.55815777777779,0)" xlink:href="#aX"/><use transform="matrix(0.05432111111111112,0,0,0.05432111111111112,63.9902688888889,0)" xlink:href="#bb"/><use transform="matrix(0.05432111111111112,0,0,0.05432111111111112,68.28163666666667,0)" xlink:href="#by"/><use transform="matrix(0.05432111111111112,0,0,0.05432111111111112,78.05943666666667,0)" xlink:href="#aZ"/><use transform="matrix(0.05432111111111112,0,0,0.05432111111111112,88.9236588888889,0)" xlink:href="#bF"/></g><path d="M212-179c-10-28-35-45-73-45-59 0-87 40-87 99 0 60 29 101 89 101 43 0 62-24 78-52l27 14C228-24 195 4 139 4 59 4 22-46 18-125c-6-104 99-153 187-111 19 9 31 26 39 46" id="bJ"/><g id="ak"><use transform="matrix(0.05432111111111112,0,0,0.05432111111111112,0,0)" xlink:href="#bJ"/><use transform="matrix(0.05432111111111112,0,0,0.05432111111111112,14.06916777777778,0)" xlink:href="#bd"/><use transform="matrix(0.05432111111111112,0,0,0.05432111111111112,20.53338,0)" xlink:href="#aT"/><use transform="matrix(0.05432111111111112,0,0,0.05432111111111112,31.397602222222226,0)" xlink:href="#aY"/><use transform="matrix(0.05432111111111112,0,0,0.05432111111111112,42.26182444444445,0)" xlink:href="#bd"/></g><path d="M141 0L90-78 38 0H4l68-98-65-92h35l48 74 47-74h35l-64 92 68 98h-35" id="bK"/><g id="al"><use transform="matrix(0.05432111111111112,0,0,0.05432111111111112,0,0)" xlink:href="#aX"/><use transform="matrix(0.05432111111111112,0,0,0.05432111111111112,5.432111111111112,0)" xlink:href="#aT"/><use transform="matrix(0.05432111111111112,0,0,0.05432111111111112,16.296333333333337,0)" xlink:href="#bK"/><use transform="matrix(0.05432111111111112,0,0,0.05432111111111112,26.074133333333336,0)" xlink:href="#aX"/><use transform="matrix(0.05432111111111112,0,0,0.05432111111111112,31.506244444444448,0)" xlink:href="#aZ"/><use transform="matrix(0.05432111111111112,0,0,0.05432111111111112,42.37046666666667,0)" xlink:href="#bf"/></g><g id="am"><use transform="matrix(0.05432111111111112,0,0,0.05432111111111112,0,0)" xlink:href="#ba"/><use transform="matrix(0.05432111111111112,0,0,0.05432111111111112,4.291367777777778,0)" xlink:href="#aY"/></g><path d="M115-194c53 0 69 39 70 98 0 66-23 100-70 100C84 3 66-7 56-30L54 0H23l1-261h32v101c10-23 28-34 59-34zm-8 174c40 0 45-34 45-75 0-40-5-75-45-74-42 0-51 32-51 76 0 43 10 73 51 73" id="bL"/><g id="an"><use transform="matrix(0.05432111111111112,0,0,0.05432111111111112,0,0)" xlink:href="#bd"/><use transform="matrix(0.05432111111111112,0,0,0.05432111111111112,6.464212222222223,0)" xlink:href="#aT"/><use transform="matrix(0.05432111111111112,0,0,0.05432111111111112,17.328434444444447,0)" xlink:href="#aU"/><use transform="matrix(0.05432111111111112,0,0,0.05432111111111112,27.106234444444446,0)" xlink:href="#aY"/><use transform="matrix(0.05432111111111112,0,0,0.05432111111111112,37.97045666666667,0)" xlink:href="#bL"/><use transform="matrix(0.05432111111111112,0,0,0.05432111111111112,48.834678888888895,0)" xlink:href="#aY"/><use transform="matrix(0.05432111111111112,0,0,0.05432111111111112,59.69890111111112,0)" xlink:href="#bx"/><use transform="matrix(0.05432111111111112,0,0,0.05432111111111112,70.56312333333335,0)" xlink:href="#aY"/></g><g id="ao"><use transform="matrix(0.05432111111111112,0,0,0.05432111111111112,0,0)" xlink:href="#bB"/><use transform="matrix(0.05432111111111112,0,0,0.05432111111111112,10.864222222222224,0)" xlink:href="#aY"/><use transform="matrix(0.05432111111111112,0,0,0.05432111111111112,21.72844444444445,0)" xlink:href="#bd"/><use transform="matrix(0.05432111111111112,0,0,0.05432111111111112,28.19265666666667,0)" xlink:href="#aY"/></g><path d="M9 0v-24l116-142H16v-24h144v24L44-24h123V0H9" id="bM"/><g id="ap"><use transform="matrix(0.05432111111111112,0,0,0.05432111111111112,0,0)" xlink:href="#aU"/><use transform="matrix(0.05432111111111112,0,0,0.05432111111111112,9.777800000000001,0)" xlink:href="#aZ"/><use transform="matrix(0.05432111111111112,0,0,0.05432111111111112,20.642022222222224,0)" xlink:href="#aW"/><use transform="matrix(0.05432111111111112,0,0,0.05432111111111112,31.506244444444448,0)" xlink:href="#aU"/><use transform="matrix(0.05432111111111112,0,0,0.05432111111111112,41.28404444444445,0)" xlink:href="#bb"/><use transform="matrix(0.05432111111111112,0,0,0.05432111111111112,45.575412222222226,0)" xlink:href="#aT"/><use transform="matrix(0.05432111111111112,0,0,0.05432111111111112,56.43963444444445,0)" xlink:href="#aW"/><use transform="matrix(0.05432111111111112,0,0,0.05432111111111112,67.30385666666668,0)" xlink:href="#aX"/><use transform="matrix(0.05432111111111112,0,0,0.05432111111111112,72.73596777777779,0)" xlink:href="#bb"/><use transform="matrix(0.05432111111111112,0,0,0.05432111111111112,77.02733555555557,0)" xlink:href="#bM"/><use transform="matrix(0.05432111111111112,0,0,0.05432111111111112,86.80513555555557,0)" xlink:href="#aY"/><use transform="matrix(0.05432111111111112,0,0,0.05432111111111112,97.66935777777779,0)" xlink:href="#bd"/></g><use transform="matrix(0.05432111111111112,0,0,0.05432111111111112,0,0)" xlink:href="#aT" id="aq"/><g id="ar"><use transform="matrix(0.05432111111111112,0,0,0.05432111111111112,0,0)" xlink:href="#bb"/><use transform="matrix(0.05432111111111112,0,0,0.05432111111111112,4.291367777777778,0)" xlink:href="#aW"/><use transform="matrix(0.05432111111111112,0,0,0.05432111111111112,15.155590000000005,0)" xlink:href="#bc"/><use transform="matrix(0.05432111111111112,0,0,0.05432111111111112,20.587701111111116,0)" xlink:href="#aZ"/><use transform="matrix(0.05432111111111112,0,0,0.05432111111111112,31.451923333333337,0)" xlink:href="#bd"/><use transform="matrix(0.05432111111111112,0,0,0.05432111111111112,37.91613555555556,0)" xlink:href="#be"/><use transform="matrix(0.05432111111111112,0,0,0.05432111111111112,54.158147777777785,0)" xlink:href="#aY"/><use transform="matrix(0.05432111111111112,0,0,0.05432111111111112,65.02237000000001,0)" xlink:href="#bd"/><use transform="matrix(0.05432111111111112,0,0,0.05432111111111112,70.40016,0)" xlink:href="#bF"/></g><path d="M30 0v-248h187v28H63v79h144v27H63v87h162V0H30" id="bN"/><g id="as"><use transform="matrix(0.05432111111111112,0,0,0.05432111111111112,0,0)" xlink:href="#bN"/><use transform="matrix(0.05432111111111112,0,0,0.05432111111111112,13.037066666666668,0)" xlink:href="#ba"/><use transform="matrix(0.05432111111111112,0,0,0.05432111111111112,17.328434444444447,0)" xlink:href="#aY"/><use transform="matrix(0.05432111111111112,0,0,0.05432111111111112,28.19265666666667,0)" xlink:href="#bL"/><use transform="matrix(0.05432111111111112,0,0,0.05432111111111112,39.056878888888896,0)" xlink:href="#aZ"/><use transform="matrix(0.05432111111111112,0,0,0.05432111111111112,49.92110111111112,0)" xlink:href="#bd"/><use transform="matrix(0.05432111111111112,0,0,0.05432111111111112,56.38531333333334,0)" xlink:href="#aY"/><use transform="matrix(0.05432111111111112,0,0,0.05432111111111112,67.24953555555557,0)" xlink:href="#bd"/></g><g id="at"><use transform="matrix(0.05432111111111112,0,0,0.05432111111111112,0,0)" xlink:href="#aT"/><use transform="matrix(0.05432111111111112,0,0,0.05432111111111112,10.864222222222224,0)" xlink:href="#aW"/></g><g id="au"><use transform="matrix(0.05432111111111112,0,0,0.05432111111111112,0,0)" xlink:href="#bJ"/><use transform="matrix(0.05432111111111112,0,0,0.05432111111111112,14.06916777777778,0)" xlink:href="#aY"/><use transform="matrix(0.05432111111111112,0,0,0.05432111111111112,24.933390000000003,0)" xlink:href="#aW"/><use transform="matrix(0.05432111111111112,0,0,0.05432111111111112,35.79761222222223,0)" xlink:href="#by"/><use transform="matrix(0.05432111111111112,0,0,0.05432111111111112,45.575412222222226,0)" xlink:href="#aY"/></g><g id="av"><use transform="matrix(0.05432111111111112,0,0,0.05432111111111112,0,0)" xlink:href="#aT"/><use transform="matrix(0.05432111111111112,0,0,0.05432111111111112,10.864222222222224,0)" xlink:href="#ba"/></g><g id="aw"><use transform="matrix(0.05432111111111112,0,0,0.05432111111111112,0,0)" xlink:href="#aU"/><use transform="matrix(0.05432111111111112,0,0,0.05432111111111112,9.777800000000001,0)" xlink:href="#aZ"/><use transform="matrix(0.05432111111111112,0,0,0.05432111111111112,20.642022222222224,0)" xlink:href="#aW"/><use transform="matrix(0.05432111111111112,0,0,0.05432111111111112,31.506244444444448,0)" xlink:href="#aX"/><use transform="matrix(0.05432111111111112,0,0,0.05432111111111112,36.93835555555556,0)" xlink:href="#aT"/><use transform="matrix(0.05432111111111112,0,0,0.05432111111111112,47.802577777777785,0)" xlink:href="#aW"/><use transform="matrix(0.05432111111111112,0,0,0.05432111111111112,58.66680000000001,0)" xlink:href="#bb"/><use transform="matrix(0.05432111111111112,0,0,0.05432111111111112,62.95816777777779,0)" xlink:href="#bx"/><use transform="matrix(0.05432111111111112,0,0,0.05432111111111112,73.82239000000001,0)" xlink:href="#aZ"/><use transform="matrix(0.05432111111111112,0,0,0.05432111111111112,84.68661222222224,0)" xlink:href="#bF"/></g><path d="M233-177c-1 41-23 64-60 70L243 0h-38l-65-103H63V0H30v-248c88 3 205-21 203 71zM63-129c60-2 137 13 137-47 0-61-80-42-137-45v92" id="bO"/><g id="ax"><use transform="matrix(0.05432111111111112,0,0,0.05432111111111112,0,0)" xlink:href="#bO"/><use transform="matrix(0.05432111111111112,0,0,0.05432111111111112,14.06916777777778,0)" xlink:href="#aT"/><use transform="matrix(0.05432111111111112,0,0,0.05432111111111112,24.933390000000003,0)" xlink:href="#aY"/><use transform="matrix(0.05432111111111112,0,0,0.05432111111111112,35.79761222222223,0)" xlink:href="#ba"/><use transform="matrix(0.05432111111111112,0,0,0.05432111111111112,40.08898000000001,0)" xlink:href="#bb"/><use transform="matrix(0.05432111111111112,0,0,0.05432111111111112,44.380347777777786,0)" xlink:href="#bM"/><use transform="matrix(0.05432111111111112,0,0,0.05432111111111112,54.158147777777785,0)" xlink:href="#aY"/><use transform="matrix(0.05432111111111112,0,0,0.05432111111111112,65.02237000000001,0)" xlink:href="#aW"/><use transform="matrix(0.05432111111111112,0,0,0.05432111111111112,75.88659222222223,0)" xlink:href="#bx"/><use transform="matrix(0.05432111111111112,0,0,0.05432111111111112,86.75081444444446,0)" xlink:href="#aZ"/></g><g id="ay"><use transform="matrix(0.05432111111111112,0,0,0.05432111111111112,0,0)" xlink:href="#bx"/><use transform="matrix(0.05432111111111112,0,0,0.05432111111111112,10.864222222222224,0)" xlink:href="#bb"/><use transform="matrix(0.05432111111111112,0,0,0.05432111111111112,15.155590000000005,0)" xlink:href="#bc"/><use transform="matrix(0.05432111111111112,0,0,0.05432111111111112,20.587701111111116,0)" xlink:href="#aT"/><use transform="matrix(0.05432111111111112,0,0,0.05432111111111112,31.451923333333337,0)" xlink:href="#bd"/><use transform="matrix(0.05432111111111112,0,0,0.05432111111111112,37.91613555555556,0)" xlink:href="#aT"/><use transform="matrix(0.05432111111111112,0,0,0.05432111111111112,48.78035777777779,0)" xlink:href="#aW"/><use transform="matrix(0.05432111111111112,0,0,0.05432111111111112,59.644580000000005,0)" xlink:href="#aX"/><use transform="matrix(0.05432111111111112,0,0,0.05432111111111112,65.07669111111113,0)" xlink:href="#aT"/><use transform="matrix(0.05432111111111112,0,0,0.05432111111111112,75.94091333333336,0)" xlink:href="#bf"/></g><g id="az"><use transform="matrix(0.05432111111111112,0,0,0.05432111111111112,0,0)" xlink:href="#aX"/><use transform="matrix(0.05432111111111112,0,0,0.05432111111111112,5.432111111111112,0)" xlink:href="#bb"/><use transform="matrix(0.05432111111111112,0,0,0.05432111111111112,9.723478888888891,0)" xlink:href="#bB"/><use transform="matrix(0.05432111111111112,0,0,0.05432111111111112,20.587701111111116,0)" xlink:href="#aZ"/><use transform="matrix(0.05432111111111112,0,0,0.05432111111111112,31.451923333333337,0)" xlink:href="#bf"/></g><g id="aA"><use transform="matrix(0.05432111111111112,0,0,0.05432111111111112,0,0)" xlink:href="#aY"/><use transform="matrix(0.05432111111111112,0,0,0.05432111111111112,10.864222222222224,0)" xlink:href="#bd"/><use transform="matrix(0.05432111111111112,0,0,0.05432111111111112,17.328434444444447,0)" xlink:href="#aU"/><use transform="matrix(0.05432111111111112,0,0,0.05432111111111112,27.106234444444446,0)" xlink:href="#bD"/><use transform="matrix(0.05432111111111112,0,0,0.05432111111111112,37.97045666666667,0)" xlink:href="#bb"/><use transform="matrix(0.05432111111111112,0,0,0.05432111111111112,42.26182444444445,0)" xlink:href="#by"/><use transform="matrix(0.05432111111111112,0,0,0.05432111111111112,52.03962444444445,0)" xlink:href="#aZ"/><use transform="matrix(0.05432111111111112,0,0,0.05432111111111112,62.903846666666674,0)" xlink:href="#bf"/><use transform="matrix(0.05432111111111112,0,0,0.05432111111111112,72.68164666666668,0)" xlink:href="#bF"/></g></defs></g></svg>