<svg width="4077" height="2244" xmlns="http://www.w3.org/2000/svg" xmlns:xlink="http://www.w3.org/1999/xlink" xml:space="preserve" overflow="hidden"><defs><clipPath id="clip0"><rect x="163" y="756" width="4077" height="2244"/></clipPath><clipPath id="clip1"><rect x="165" y="475" width="4066" height="709"/></clipPath><clipPath id="clip2"><rect x="165" y="728" width="442" height="355"/></clipPath><clipPath id="clip3"><rect x="606" y="728" width="345" height="355"/></clipPath><clipPath id="clip4"><rect x="950" y="728" width="358" height="355"/></clipPath><clipPath id="clip5"><rect x="1307" y="728" width="407" height="355"/></clipPath><clipPath id="clip6"><rect x="1713" y="728" width="831" height="355"/></clipPath><clipPath id="clip7"><rect x="2543" y="728" width="452" height="355"/></clipPath><clipPath id="clip8"><rect x="2994" y="728" width="473" height="355"/></clipPath><clipPath id="clip9"><rect x="3466" y="569" width="354" height="726"/></clipPath><clipPath id="clip10"><rect x="3466" y="569" width="354" height="726"/></clipPath><clipPath id="clip11"><rect x="3819" y="728" width="412" height="355"/></clipPath><clipPath id="clip12"><rect x="165" y="5" width="442" height="2283"/></clipPath><clipPath id="clip13"><rect x="165" y="5" width="442" height="2283"/></clipPath><clipPath id="clip14"><rect x="165" y="5" width="442" height="2283"/></clipPath><clipPath id="clip15"><rect x="165" y="5" width="442" height="2283"/></clipPath><clipPath id="clip16"><rect x="606" y="355" width="345" height="1467"/></clipPath><clipPath id="clip17"><rect x="950" y="831" width="358" height="356"/></clipPath><clipPath id="clip18"><rect x="1307" y="831" width="407" height="356"/></clipPath><clipPath id="clip19"><rect x="1713" y="513" width="831" height="1097"/></clipPath><clipPath id="clip20"><rect x="1713" y="513" width="831" height="1097"/></clipPath><clipPath id="clip21"><rect x="1713" y="513" width="831" height="1097"/></clipPath><clipPath id="clip22"><rect x="2543" y="355" width="452" height="1467"/></clipPath><clipPath id="clip23"><rect x="2543" y="355" width="452" height="1467"/></clipPath><clipPath id="clip24"><rect x="2543" y="355" width="452" height="1467"/></clipPath><clipPath id="clip25"><rect x="2994" y="355" width="473" height="1467"/></clipPath><clipPath id="clip26"><rect x="2994" y="355" width="473" height="1467"/></clipPath><clipPath id="clip27"><rect x="2994" y="355" width="473" height="1467"/></clipPath><clipPath id="clip28"><rect x="2994" y="355" width="473" height="1467"/></clipPath><clipPath id="clip29"><rect x="3466" y="831" width="354" height="356"/></clipPath><clipPath id="clip30"><rect x="3819" y="831" width="412" height="356"/></clipPath><clipPath id="clip31"><rect x="165" y="1073" width="442" height="552"/></clipPath><clipPath id="clip32"><rect x="606" y="1157" width="345" height="355"/></clipPath><clipPath id="clip33"><rect x="950" y="1157" width="358" height="355"/></clipPath><clipPath id="clip34"><rect x="1307" y="1157" width="407" height="355"/></clipPath><clipPath id="clip35"><rect x="1713" y="680" width="831" height="1468"/></clipPath><clipPath id="clip36"><rect x="1713" y="680" width="831" height="1468"/></clipPath><clipPath id="clip37"><rect x="1713" y="680" width="831" height="1468"/></clipPath><clipPath id="clip38"><rect x="1713" y="680" width="831" height="1468"/></clipPath><clipPath id="clip39"><rect x="2543" y="1157" width="452" height="355"/></clipPath><clipPath id="clip40"><rect x="2994" y="998" width="473" height="726"/></clipPath><clipPath id="clip41"><rect x="2994" y="998" width="473" height="726"/></clipPath><clipPath id="clip42"><rect x="3466" y="1157" width="354" height="355"/></clipPath><clipPath id="clip43"><rect x="3819" y="1157" width="412" height="355"/></clipPath><clipPath id="clip44"><rect x="606" y="1456" width="345" height="355"/></clipPath><clipPath id="clip45"><rect x="950" y="1456" width="358" height="355"/></clipPath><clipPath id="clip46"><rect x="1307" y="1456" width="407" height="355"/></clipPath><clipPath id="clip47"><rect x="1713" y="1297" width="831" height="726"/></clipPath><clipPath id="clip48"><rect x="1713" y="1297" width="831" height="726"/></clipPath><clipPath id="clip49"><rect x="2543" y="1138" width="452" height="1097"/></clipPath><clipPath id="clip50"><rect x="2543" y="1138" width="452" height="1097"/></clipPath><clipPath id="clip51"><rect x="2994" y="1297" width="473" height="726"/></clipPath><clipPath id="clip52"><rect x="2994" y="1297" width="473" height="726"/></clipPath><clipPath id="clip53"><rect x="606" y="1612" width="345" height="356"/></clipPath><clipPath id="clip54"><rect x="950" y="1612" width="358" height="356"/></clipPath><clipPath id="clip55"><rect x="1307" y="1612" width="407" height="356"/></clipPath><clipPath id="clip56"><rect x="1713" y="1453" width="831" height="727"/></clipPath><clipPath id="clip57"><rect x="1713" y="1453" width="831" height="727"/></clipPath><clipPath id="clip58"><rect x="1713" y="1453" width="831" height="727"/></clipPath><clipPath id="clip59"><rect x="2543" y="1295" width="452" height="1096"/></clipPath><clipPath id="clip60"><rect x="2543" y="1295" width="452" height="1096"/></clipPath><clipPath id="clip61"><rect x="2994" y="1453" width="473" height="727"/></clipPath><clipPath id="clip62"><rect x="2994" y="1453" width="473" height="727"/></clipPath><clipPath id="clip63"><rect x="165" y="-1276" width="442" height="7473"/></clipPath><clipPath id="clip64"><rect x="165" y="-1276" width="442" height="7473"/></clipPath><clipPath id="clip65"><rect x="165" y="-1276" width="442" height="7473"/></clipPath><clipPath id="clip66"><rect x="606" y="1775" width="345" height="355"/></clipPath><clipPath id="clip67"><rect x="950" y="1775" width="358" height="355"/></clipPath><clipPath id="clip68"><rect x="1307" y="1775" width="407" height="355"/></clipPath><clipPath id="clip69"><rect x="1713" y="1616" width="831" height="726"/></clipPath><clipPath id="clip70"><rect x="1713" y="1616" width="831" height="726"/></clipPath><clipPath id="clip71"><rect x="1713" y="1616" width="831" height="726"/></clipPath><clipPath id="clip72"><rect x="2543" y="1616" width="452" height="726"/></clipPath><clipPath id="clip73"><rect x="2994" y="1457" width="473" height="1097"/></clipPath><clipPath id="clip74"><rect x="2994" y="1457" width="473" height="1097"/></clipPath><clipPath id="clip75"><rect x="2994" y="1457" width="473" height="1097"/></clipPath><clipPath id="clip76"><rect x="3466" y="1616" width="354" height="726"/></clipPath><clipPath id="clip77"><rect x="3819" y="1616" width="412" height="726"/></clipPath><clipPath id="clip78"><rect x="606" y="1937" width="345" height="355"/></clipPath><clipPath id="clip79"><rect x="950" y="1937" width="358" height="355"/></clipPath><clipPath id="clip80"><rect x="1307" y="1937" width="407" height="355"/></clipPath><clipPath id="clip81"><rect x="1713" y="1302" width="831" height="1838"/></clipPath><clipPath id="clip82"><rect x="1713" y="1302" width="831" height="1838"/></clipPath><clipPath id="clip83"><rect x="1713" y="1302" width="831" height="1838"/></clipPath><clipPath id="clip84"><rect x="1713" y="1302" width="831" height="1838"/></clipPath><clipPath id="clip85"><rect x="1713" y="1302" width="831" height="1838"/></clipPath><clipPath id="clip86"><rect x="2543" y="1778" width="452" height="726"/></clipPath><clipPath id="clip87"><rect x="2543" y="1778" width="452" height="726"/></clipPath><clipPath id="clip88"><rect x="2994" y="1460" width="473" height="1468"/></clipPath><clipPath id="clip89"><rect x="2994" y="1460" width="473" height="1468"/></clipPath><clipPath id="clip90"><rect x="2994" y="1460" width="473" height="1468"/></clipPath><clipPath id="clip91"><rect x="2994" y="1460" width="473" height="1468"/></clipPath><clipPath id="clip92"><rect x="606" y="2200" width="345" height="355"/></clipPath><clipPath id="clip93"><rect x="950" y="2200" width="358" height="355"/></clipPath><clipPath id="clip94"><rect x="1307" y="2200" width="407" height="355"/></clipPath><clipPath id="clip95"><rect x="1713" y="1723" width="831" height="1467"/></clipPath><clipPath id="clip96"><rect x="1713" y="1723" width="831" height="1467"/></clipPath><clipPath id="clip97"><rect x="1713" y="1723" width="831" height="1467"/></clipPath><clipPath id="clip98"><rect x="1713" y="1723" width="831" height="1467"/></clipPath><clipPath id="clip99"><rect x="2543" y="1882" width="452" height="1097"/></clipPath><clipPath id="clip100"><rect x="2543" y="1882" width="452" height="1097"/></clipPath><clipPath id="clip101"><rect x="2994" y="1723" width="473" height="1467"/></clipPath><clipPath id="clip102"><rect x="2994" y="1723" width="473" height="1467"/></clipPath><clipPath id="clip103"><rect x="2994" y="1723" width="473" height="1467"/></clipPath><clipPath id="clip104"><rect x="2994" y="1723" width="473" height="1467"/></clipPath></defs><g clip-path="url(#clip0)" transform="translate(-163 -756)"><path d="M165.621 778.8 4230.09 778.8 4230.09 880.023 165.621 880.023Z" fill="#6EBAB5" fill-rule="evenodd"/><path d="M165.621 880.023 606.805 880.023 606.805 983.606 165.621 983.606Z" fill="#6EBAB5" fill-rule="evenodd"/><path d="M606.805 880.023 950.965 880.023 950.965 983.606 606.805 983.606Z" fill="#6EBAB5" fill-rule="evenodd"/><path d="M950.965 880.023 1307.33 880.023 1307.33 983.606 950.965 983.606Z" fill="#6EBAB5" fill-rule="evenodd"/><path d="M1307.33 880.023 1713.17 880.023 1713.17 983.606 1307.33 983.606Z" fill="#6EBAB5" fill-rule="evenodd"/><path d="M1713.17 880.023 2543.5 880.023 2543.5 983.606 1713.17 983.606Z" fill="#6EBAB5" fill-rule="evenodd"/><path d="M2543.5 880.023 2994.14 880.023 2994.14 983.606 2543.5 983.606Z" fill="#6EBAB5" fill-rule="evenodd"/><path d="M2994.14 880.023 3466.08 880.023 3466.08 983.606 2994.14 983.606Z" fill="#6EBAB5" fill-rule="evenodd"/><path d="M3466.08 880.023 3819.42 880.023 3819.42 983.606 3466.08 983.606Z" fill="#6EBAB5" fill-rule="evenodd"/><path d="M3819.42 880.023 4230.09 880.023 4230.09 983.606 3819.42 983.606Z" fill="#6EBAB5" fill-rule="evenodd"/><path d="M165.621 983.606 606.805 983.606 606.805 1309.5 165.621 1309.5Z" fill="#6EBAB5" fill-rule="evenodd"/><path d="M606.805 983.606 950.965 983.606 950.965 1309.5 606.805 1309.5Z" fill="#6EBAB5" fill-rule="evenodd"/><path d="M950.965 983.606 1307.33 983.606 1307.33 1309.5 950.965 1309.5Z" fill="#6EBAB5" fill-rule="evenodd"/><path d="M1307.33 983.606 1713.17 983.606 1713.17 1309.5 1307.33 1309.5Z" fill="#6EBAB5" fill-rule="evenodd"/><path d="M1713.17 983.606 2543.5 983.606 2543.5 1309.5 1713.17 1309.5Z" fill="#6EBAB5" fill-rule="evenodd"/><path d="M2543.5 983.606 2994.14 983.606 2994.14 1309.5 2543.5 1309.5Z" fill="#6EBAB5" fill-rule="evenodd"/><path d="M2994.14 983.606 3466.08 983.606 3466.08 1309.5 2994.14 1309.5Z" fill="#6EBAB5" fill-rule="evenodd"/><path d="M3466.08 983.606 3819.42 983.606 3819.42 1309.5 3466.08 1309.5Z" fill="#6EBAB5" fill-rule="evenodd"/><path d="M3819.42 983.606 4230.09 983.606 4230.09 1309.5 3819.42 1309.5Z" fill="#6EBAB5" fill-rule="evenodd"/><path d="M165.621 1309.5 606.805 1309.5 606.805 1927.1 165.621 1927.1Z" fill="#6EBAB5" fill-rule="evenodd"/><path d="M606.805 1309.5 950.965 1309.5 950.965 1608.18 606.805 1608.18Z" fill="#6EBAB5" fill-rule="evenodd"/><path d="M950.965 1309.5 1307.33 1309.5 1307.33 1608.18 950.965 1608.18Z" fill="#6EBAB5" fill-rule="evenodd"/><path d="M1307.33 1309.5 1713.17 1309.5 1713.17 1608.18 1307.33 1608.18Z" fill="#6EBAB5" fill-rule="evenodd"/><path d="M1713.17 1309.5 2543.5 1309.5 2543.5 1608.18 1713.17 1608.18Z" fill="#6EBAB5" fill-rule="evenodd"/><path d="M2543.5 1309.5 2994.14 1309.5 2994.14 1608.18 2543.5 1608.18Z" fill="#6EBAB5" fill-rule="evenodd"/><path d="M2994.14 1309.5 3466.08 1309.5 3466.08 1608.18 2994.14 1608.18Z" fill="#6EBAB5" fill-rule="evenodd"/><path d="M3466.08 1309.5 3819.42 1309.5 3819.42 1927.1 3466.08 1927.1Z" fill="#6EBAB5" fill-rule="evenodd"/><path d="M3819.42 1309.5 4230.09 1309.5 4230.09 1927.1 3819.42 1927.1Z" fill="#6EBAB5" fill-rule="evenodd"/><path d="M606.805 1608.18 950.965 1608.18 950.965 1764.73 606.805 1764.73Z" fill="#6EBAB5" fill-rule="evenodd"/><path d="M950.965 1608.18 1307.33 1608.18 1307.33 1764.73 950.965 1764.73Z" fill="#6EBAB5" fill-rule="evenodd"/><path d="M1307.33 1608.18 1713.17 1608.18 1713.17 1764.73 1307.33 1764.73Z" fill="#6EBAB5" fill-rule="evenodd"/><path d="M1713.17 1608.18 2543.5 1608.18 2543.5 1764.73 1713.17 1764.73Z" fill="#6EBAB5" fill-rule="evenodd"/><path d="M2543.5 1608.18 2994.14 1608.18 2994.14 1764.73 2543.5 1764.73Z" fill="#6EBAB5" fill-rule="evenodd"/><path d="M2994.14 1608.18 3466.08 1608.18 3466.08 1764.73 2994.14 1764.73Z" fill="#6EBAB5" fill-rule="evenodd"/><path d="M606.805 1764.73 950.965 1764.73 950.965 1927.1 606.805 1927.1Z" fill="#6EBAB5" fill-rule="evenodd"/><path d="M950.965 1764.73 1307.33 1764.73 1307.33 1927.1 950.965 1927.1Z" fill="#6EBAB5" fill-rule="evenodd"/><path d="M1307.33 1764.73 1713.17 1764.73 1713.17 1927.1 1307.33 1927.1Z" fill="#6EBAB5" fill-rule="evenodd"/><path d="M1713.17 1764.73 2543.5 1764.73 2543.5 1927.1 1713.17 1927.1Z" fill="#6EBAB5" fill-rule="evenodd"/><path d="M2543.5 1764.73 2994.14 1764.73 2994.14 1927.1 2543.5 1927.1Z" fill="#6EBAB5" fill-rule="evenodd"/><path d="M2994.14 1764.73 3466.08 1764.73 3466.08 1927.1 2994.14 1927.1Z" fill="#6EBAB5" fill-rule="evenodd"/><path d="M165.621 1927.1 606.805 1927.1 606.805 2994.46 165.621 2994.46Z" fill="#6EBAB5" fill-rule="evenodd"/><path d="M606.805 1927.1 950.965 1927.1 950.965 2089.47 606.805 2089.47Z" fill="#6EBAB5" fill-rule="evenodd"/><path d="M950.965 1927.1 1307.33 1927.1 1307.33 2089.47 950.965 2089.47Z" fill="#6EBAB5" fill-rule="evenodd"/><path d="M1307.33 1927.1 1713.17 1927.1 1713.17 2089.47 1307.33 2089.47Z" fill="#6EBAB5" fill-rule="evenodd"/><path d="M1713.17 1927.1 2543.5 1927.1 2543.5 2089.47 1713.17 2089.47Z" fill="#6EBAB5" fill-rule="evenodd"/><path d="M2543.5 1927.1 2994.14 1927.1 2994.14 2089.47 2543.5 2089.47Z" fill="#6EBAB5" fill-rule="evenodd"/><path d="M2994.14 1927.1 3466.08 1927.1 3466.08 2089.47 2994.14 2089.47Z" fill="#6EBAB5" fill-rule="evenodd"/><path d="M3466.08 1927.1 3819.42 1927.1 3819.42 2994.46 3466.08 2994.46Z" fill="#6EBAB5" fill-rule="evenodd"/><path d="M3819.42 1927.1 4230.09 1927.1 4230.09 2994.46 3819.42 2994.46Z" fill="#6EBAB5" fill-rule="evenodd"/><path d="M606.805 2089.47 950.965 2089.47 950.965 2351.93 606.805 2351.93Z" fill="#6EBAB5" fill-rule="evenodd"/><path d="M950.965 2089.47 1307.33 2089.47 1307.33 2351.93 950.965 2351.93Z" fill="#6EBAB5" fill-rule="evenodd"/><path d="M1307.33 2089.47 1713.17 2089.47 1713.17 2351.93 1307.33 2351.93Z" fill="#6EBAB5" fill-rule="evenodd"/><path d="M1713.17 2089.47 2543.5 2089.47 2543.5 2351.93 1713.17 2351.93Z" fill="#6EBAB5" fill-rule="evenodd"/><path d="M2543.5 2089.47 2994.14 2089.47 2994.14 2351.93 2543.5 2351.93Z" fill="#6EBAB5" fill-rule="evenodd"/><path d="M2994.14 2089.47 3466.08 2089.47 3466.08 2351.93 2994.14 2351.93Z" fill="#6EBAB5" fill-rule="evenodd"/><path d="M606.805 2351.93 950.965 2351.93 950.965 2994.46 606.805 2994.46Z" fill="#6EBAB5" fill-rule="evenodd"/><path d="M950.965 2351.93 1307.33 2351.93 1307.33 2994.46 950.965 2994.46Z" fill="#6EBAB5" fill-rule="evenodd"/><path d="M1307.33 2351.93 1713.17 2351.93 1713.17 2994.46 1307.33 2994.46Z" fill="#6EBAB5" fill-rule="evenodd"/><path d="M1713.17 2351.93 2543.5 2351.93 2543.5 2994.46 1713.17 2994.46Z" fill="#6EBAB5" fill-rule="evenodd"/><path d="M2543.5 2351.93 2994.14 2351.93 2994.14 2994.46 2543.5 2994.46Z" fill="#6EBAB5" fill-rule="evenodd"/><path d="M2994.14 2351.93 3466.08 2351.93 3466.08 2994.46 2994.14 2994.46Z" fill="#6EBAB5" fill-rule="evenodd"/><path d="M606.805 873.148 606.805 2996.76" stroke="#FFFFFF" stroke-width="4.58333" stroke-linejoin="round" stroke-miterlimit="10" fill="none" fill-rule="evenodd"/><path d="M950.965 873.148 950.965 2996.76" stroke="#FFFFFF" stroke-width="4.58333" stroke-linejoin="round" stroke-miterlimit="10" fill="none" fill-rule="evenodd"/><path d="M1307.33 873.148 1307.33 2996.76" stroke="#FFFFFF" stroke-width="4.58333" stroke-linejoin="round" stroke-miterlimit="10" fill="none" fill-rule="evenodd"/><path d="M1713.17 873.148 1713.17 2996.76" stroke="#FFFFFF" stroke-width="4.58333" stroke-linejoin="round" stroke-miterlimit="10" fill="none" fill-rule="evenodd"/><path d="M2543.5 873.148 2543.5 2996.76" stroke="#FFFFFF" stroke-width="4.58333" stroke-linejoin="round" stroke-miterlimit="10" fill="none" fill-rule="evenodd"/><path d="M2994.14 873.148 2994.14 2996.76" stroke="#FFFFFF" stroke-width="4.58333" stroke-linejoin="round" stroke-miterlimit="10" fill="none" fill-rule="evenodd"/><path d="M3466.08 873.148 3466.08 2996.76" stroke="#FFFFFF" stroke-width="4.58333" stroke-linejoin="round" stroke-miterlimit="10" fill="none" fill-rule="evenodd"/><path d="M3819.42 873.148 3819.42 2996.76" stroke="#FFFFFF" stroke-width="4.58333" stroke-linejoin="round" stroke-miterlimit="10" fill="none" fill-rule="evenodd"/><path d="M163.329 880.023 4232.38 880.023" stroke="#FFFFFF" stroke-width="13.75" stroke-linejoin="round" stroke-miterlimit="10" fill="none" fill-rule="evenodd"/><path d="M163.329 983.606 4232.38 983.606" stroke="#FFFFFF" stroke-width="4.58333" stroke-linejoin="round" stroke-miterlimit="10" fill="none" fill-rule="evenodd"/><path d="M163.329 1309.5 4232.38 1309.5" stroke="#FFFFFF" stroke-width="4.58333" stroke-linejoin="round" stroke-miterlimit="10" fill="none" fill-rule="evenodd"/><path d="M604.513 1608.18 3468.37 1608.18" stroke="#FFFFFF" stroke-width="4.58333" stroke-linejoin="round" stroke-miterlimit="10" fill="none" fill-rule="evenodd"/><path d="M604.513 1764.73 3468.37 1764.73" stroke="#FFFFFF" stroke-width="4.58333" stroke-linejoin="round" stroke-miterlimit="10" fill="none" fill-rule="evenodd"/><path d="M163.329 1927.1 4232.38 1927.1" stroke="#FFFFFF" stroke-width="4.58333" stroke-linejoin="round" stroke-miterlimit="10" fill="none" fill-rule="evenodd"/><path d="M604.513 2089.47 3468.37 2089.47" stroke="#FFFFFF" stroke-width="4.58333" stroke-linejoin="round" stroke-miterlimit="10" fill="none" fill-rule="evenodd"/><path d="M604.513 2351.93 3468.37 2351.93" stroke="#FFFFFF" stroke-width="4.58333" stroke-linejoin="round" stroke-miterlimit="10" fill="none" fill-rule="evenodd"/><path d="M165.621 776.508 165.621 2996.76" stroke="#FFFFFF" stroke-width="4.58333" stroke-linejoin="round" stroke-miterlimit="10" fill="none" fill-rule="evenodd"/><path d="M4230.09 776.508 4230.09 2996.76" stroke="#FFFFFF" stroke-width="4.58333" stroke-linejoin="round" stroke-miterlimit="10" fill="none" fill-rule="evenodd"/><path d="M163.329 778.8 4232.38 778.8" stroke="#FFFFFF" stroke-width="4.58333" stroke-linejoin="round" stroke-miterlimit="10" fill="none" fill-rule="evenodd"/><path d="M163.329 2994.46 4232.38 2994.46" stroke="#FFFFFF" stroke-width="4.58333" stroke-linejoin="round" stroke-miterlimit="10" fill="none" fill-rule="evenodd"/><g clip-path="url(#clip1)"><text fill="#FFFFFF" font-family="Calibri,Calibri_MSFontService,sans-serif" font-weight="700" font-size="83" transform="matrix(1 0 0 1 176.043 858)">Fase consecución (58.65%)</text></g><g clip-path="url(#clip2)"><text fill="#FFFFFF" font-family="Calibri,Calibri_MSFontService,sans-serif" font-weight="700" font-size="41" transform="matrix(1 0 0 1 176.043 920)">Actividades</text></g><g clip-path="url(#clip3)"><text font-family="Calibri,Calibri_MSFontService,sans-serif" font-weight="400" font-size="41" transform="matrix(1 0 0 1 617.227 920)">Tiempo total</text></g><g clip-path="url(#clip4)"><text font-family="Calibri,Calibri_MSFontService,sans-serif" font-weight="400" font-size="41" transform="matrix(1 0 0 1 961.387 920)">Tiempo de inicio</text></g><g clip-path="url(#clip5)"><text font-family="Calibri,Calibri_MSFontService,sans-serif" font-weight="400" font-size="41" transform="matrix(1 0 0 1 1317.75 920)">Tiempo de conclusión </text></g><g clip-path="url(#clip6)"><text font-family="Calibri,Calibri_MSFontService,sans-serif" font-weight="400" font-size="41" transform="matrix(1 0 0 1 1723.6 920)">Tareas</text></g><g clip-path="url(#clip7)"><text font-family="Calibri,Calibri_MSFontService,sans-serif" font-weight="400" font-size="41" transform="matrix(1 0 0 1 2553.92 920)">Recursos materiales</text></g><g clip-path="url(#clip8)"><text font-family="Calibri,Calibri_MSFontService,sans-serif" font-weight="400" font-size="41" transform="matrix(1 0 0 1 3004.56 920)">Recursos tecnológicos</text></g><g clip-path="url(#clip9)"><text font-family="Calibri,Calibri_MSFontService,sans-serif" font-weight="400" font-size="41" transform="matrix(1 0 0 1 3476.5 920)">Recursos </text></g><g clip-path="url(#clip10)"><text font-family="Calibri,Calibri_MSFontService,sans-serif" font-weight="400" font-size="41" transform="matrix(1 0 0 1 3476.5 973)">financieros</text></g><g clip-path="url(#clip11)"><text font-family="Calibri,Calibri_MSFontService,sans-serif" font-weight="400" font-size="41" transform="matrix(1 0 0 1 3829.84 920)">Responsable</text></g><g clip-path="url(#clip12)"><text fill="#FFFFFF" font-family="Calibri,Calibri_MSFontService,sans-serif" font-weight="700" font-size="64" transform="matrix(1 0 0 1 176.043 1046)">8. Llevar a cabo </text></g><g clip-path="url(#clip13)"><text fill="#FFFFFF" font-family="Calibri,Calibri_MSFontService,sans-serif" font-weight="700" font-size="64" transform="matrix(1 0 0 1 176.043 1128)">diariamente las </text></g><g clip-path="url(#clip14)"><text fill="#FFFFFF" font-family="Calibri,Calibri_MSFontService,sans-serif" font-weight="700" font-size="64" transform="matrix(1 0 0 1 176.043 1211)">acciones </text></g><g clip-path="url(#clip15)"><text fill="#FFFFFF" font-family="Calibri,Calibri_MSFontService,sans-serif" font-weight="700" font-size="64" transform="matrix(1 0 0 1 176.043 1293)">planteadas.</text></g><g clip-path="url(#clip16)"><text font-family="Calibri,Calibri_MSFontService,sans-serif" font-weight="400" font-size="41" transform="matrix(1 0 0 1 617.227 1183)">17 días</text></g><g clip-path="url(#clip17)"><text font-family="Calibri,Calibri_MSFontService,sans-serif" font-weight="400" font-size="41" transform="matrix(1 0 0 1 961.387 1024)">15 de Julio</text></g><g clip-path="url(#clip18)"><text font-family="Calibri,Calibri_MSFontService,sans-serif" font-weight="400" font-size="41" transform="matrix(1 0 0 1 1317.75 1024)">31 Julio</text></g><g clip-path="url(#clip19)"><text font-family="Calibri,Calibri_MSFontService,sans-serif" font-weight="700" font-size="41" transform="matrix(1 0 0 1 1723.6 1024)">8.1 </text></g><text font-family="Calibri,Calibri_MSFontService,sans-serif" font-weight="400" font-size="41" transform="matrix(1 0 0 1 1784.9 1024)">Llevar a cabo diariamente las acciones </text><g clip-path="url(#clip20)"><text font-family="Calibri,Calibri_MSFontService,sans-serif" font-weight="400" font-size="41" transform="matrix(1 0 0 1 1723.6 1077)">planteadas para reducir el consumo de agua y </text></g><g clip-path="url(#clip21)"><text font-family="Calibri,Calibri_MSFontService,sans-serif" font-weight="400" font-size="41" transform="matrix(1 0 0 1 1723.6 1130)">reducir la contaminación.</text></g><g clip-path="url(#clip22)"><text font-family="Calibri,Calibri_MSFontService,sans-serif" font-weight="400" font-size="41" transform="matrix(1 0 0 1 2553.92 1024)">Cubetas.</text></g><g clip-path="url(#clip23)"><text font-family="Calibri,Calibri_MSFontService,sans-serif" font-weight="400" font-size="41" transform="matrix(1 0 0 1 2553.92 1077)">Contenedores.</text></g><g clip-path="url(#clip24)"><text font-family="Calibri,Calibri_MSFontService,sans-serif" font-weight="400" font-size="41" transform="matrix(1 0 0 1 2553.92 1130)">Celular.</text></g><g clip-path="url(#clip25)"><text font-family="Calibri,Calibri_MSFontService,sans-serif" font-weight="400" font-size="41" transform="matrix(1 0 0 1 3004.56 1024)">Internet.</text></g><g clip-path="url(#clip26)"><text font-family="Calibri,Calibri_MSFontService,sans-serif" font-weight="400" font-size="41" transform="matrix(1 0 0 1 3004.56 1077)">WhatsApp. </text></g><g clip-path="url(#clip27)"><text font-family="Calibri,Calibri_MSFontService,sans-serif" font-weight="400" font-size="41" transform="matrix(1 0 0 1 3004.56 1130)">Contenido de </text></g><g clip-path="url(#clip28)"><text font-family="Calibri,Calibri_MSFontService,sans-serif" font-weight="400" font-size="41" transform="matrix(1 0 0 1 3004.56 1183)">concientización.</text></g><g clip-path="url(#clip29)"><text font-family="Calibri,Calibri_MSFontService,sans-serif" font-weight="400" font-size="41" transform="matrix(1 0 0 1 3476.5 1024)">$350 del internet.</text></g><g clip-path="url(#clip30)"><text font-family="Calibri,Calibri_MSFontService,sans-serif" font-weight="400" font-size="41" transform="matrix(1 0 0 1 3829.84 1024)">Director</text></g><g clip-path="url(#clip31)"><text fill="#FFFFFF" font-family="Calibri,Calibri_MSFontService,sans-serif" font-weight="700" font-size="64" transform="matrix(1 0 0 1 176.043 1371)">9. Encuestas </text></g><g clip-path="url(#clip32)"><text font-family="Calibri,Calibri_MSFontService,sans-serif" font-weight="400" font-size="41" transform="matrix(1 0 0 1 617.227 1349)">1 dia</text></g><g clip-path="url(#clip33)"><text font-family="Calibri,Calibri_MSFontService,sans-serif" font-weight="400" font-size="41" transform="matrix(1 0 0 1 961.387 1349)">18 de julio</text></g><g clip-path="url(#clip34)"><text font-family="Calibri,Calibri_MSFontService,sans-serif" font-weight="400" font-size="41" transform="matrix(1 0 0 1 1317.75 1349)">18 de julio</text></g><g clip-path="url(#clip35)"><text font-family="Calibri,Calibri_MSFontService,sans-serif" font-weight="700" font-size="41" transform="matrix(1 0 0 1 1723.6 1349)">9.1 </text></g><text font-family="Calibri,Calibri_MSFontService,sans-serif" font-weight="400" font-size="41" transform="matrix(1 0 0 1 1784.9 1349)">Crear encuentras para los habitantes de la </text><g clip-path="url(#clip36)"><text font-family="Calibri,Calibri_MSFontService,sans-serif" font-weight="400" font-size="41" transform="matrix(1 0 0 1 1723.6 1402)">colonia en Google </text></g><text font-family="Calibri,Calibri_MSFontService,sans-serif" font-weight="400" font-size="41" transform="matrix(1 0 0 1 2034.12 1402)">forms<tspan font-size="41" x="97.9688" y="0">, donde se pregunte </tspan></text><g clip-path="url(#clip37)"><text font-family="Calibri,Calibri_MSFontService,sans-serif" font-weight="400" font-size="41" transform="matrix(1 0 0 1 1723.6 1456)">sobre la realización de las actividades y </text></g><g clip-path="url(#clip38)"><text font-family="Calibri,Calibri_MSFontService,sans-serif" font-weight="400" font-size="41" transform="matrix(1 0 0 1 1723.6 1509)">oportunidades de mejoras.</text></g><g clip-path="url(#clip39)"><text font-family="Calibri,Calibri_MSFontService,sans-serif" font-weight="400" font-size="41" transform="matrix(1 0 0 1 2553.92 1349)">Computadora</text></g><g clip-path="url(#clip40)"><text font-family="Calibri,Calibri_MSFontService,sans-serif" font-weight="400" font-size="41" transform="matrix(1 0 0 1 3004.56 1349)">Internet.</text></g><g clip-path="url(#clip41)"><text font-family="Calibri,Calibri_MSFontService,sans-serif" font-weight="400" font-size="41" transform="matrix(1 0 0 1 3004.56 1402)">Google forms. </text></g><g clip-path="url(#clip42)"><text font-family="Calibri,Calibri_MSFontService,sans-serif" font-weight="400" font-size="41" transform="matrix(1 0 0 1 3476.5 1349)">$350 del internet.</text></g><g clip-path="url(#clip43)"><text font-family="Calibri,Calibri_MSFontService,sans-serif" font-weight="400" font-size="41" transform="matrix(1 0 0 1 3829.84 1349)">Director</text></g><g clip-path="url(#clip44)"><text font-family="Calibri,Calibri_MSFontService,sans-serif" font-weight="400" font-size="41" transform="matrix(1 0 0 1 617.227 1648)">1 dia</text></g><g clip-path="url(#clip45)"><text font-family="Calibri,Calibri_MSFontService,sans-serif" font-weight="400" font-size="41" transform="matrix(1 0 0 1 961.387 1648)">19 de julio</text></g><g clip-path="url(#clip46)"><text font-family="Calibri,Calibri_MSFontService,sans-serif" font-weight="400" font-size="41" transform="matrix(1 0 0 1 1317.75 1648)">19 de julio</text></g><g clip-path="url(#clip47)"><text font-family="Calibri,Calibri_MSFontService,sans-serif" font-weight="700" font-size="41" transform="matrix(1 0 0 1 1723.6 1648)">9.2 </text></g><text font-family="Calibri,Calibri_MSFontService,sans-serif" font-weight="400" font-size="41" transform="matrix(1 0 0 1 1784.9 1648)">Enviar el enlace de las encuestas al grupo </text><g clip-path="url(#clip48)"><text font-family="Calibri,Calibri_MSFontService,sans-serif" font-weight="400" font-size="41" transform="matrix(1 0 0 1 1723.6 1701)">vecinal de WhatsApp.</text></g><g clip-path="url(#clip49)"><text font-family="Calibri,Calibri_MSFontService,sans-serif" font-weight="400" font-size="41" transform="matrix(1 0 0 1 2553.92 1648)">Computadora.</text></g><g clip-path="url(#clip50)"><text font-family="Calibri,Calibri_MSFontService,sans-serif" font-weight="400" font-size="41" transform="matrix(1 0 0 1 2553.92 1701)">Celular.</text></g><g clip-path="url(#clip51)"><text font-family="Calibri,Calibri_MSFontService,sans-serif" font-weight="400" font-size="41" transform="matrix(1 0 0 1 3004.56 1648)">Internet.</text></g><g clip-path="url(#clip52)"><text font-family="Calibri,Calibri_MSFontService,sans-serif" font-weight="400" font-size="41" transform="matrix(1 0 0 1 3004.56 1701)">WhatsApp.</text></g><g clip-path="url(#clip53)"><text font-family="Calibri,Calibri_MSFontService,sans-serif" font-weight="400" font-size="41" transform="matrix(1 0 0 1 617.227 1805)">½  dia</text></g><g clip-path="url(#clip54)"><text font-family="Calibri,Calibri_MSFontService,sans-serif" font-weight="400" font-size="41" transform="matrix(1 0 0 1 961.387 1805)">20 de julio</text></g><g clip-path="url(#clip55)"><text font-family="Calibri,Calibri_MSFontService,sans-serif" font-weight="400" font-size="41" transform="matrix(1 0 0 1 1317.75 1805)">20 de julio</text></g><g clip-path="url(#clip56)"><text font-family="Calibri,Calibri_MSFontService,sans-serif" font-weight="700" font-size="41" transform="matrix(1 0 0 1 1723.6 1805)">9.3 </text></g><g clip-path="url(#clip57)"><text font-family="Calibri,Calibri_MSFontService,sans-serif" font-weight="400" font-size="41" transform="matrix(1 0 0 1 1784.9 1805)">Revisar encuestas para obtener resultados y </text></g><g clip-path="url(#clip58)"><text font-family="Calibri,Calibri_MSFontService,sans-serif" font-weight="400" font-size="41" transform="matrix(1 0 0 1 1723.6 1858)">oportunidades de mejora.</text></g><g clip-path="url(#clip59)"><text font-family="Calibri,Calibri_MSFontService,sans-serif" font-weight="400" font-size="41" transform="matrix(1 0 0 1 2553.92 1805)">Computadora.</text></g><g clip-path="url(#clip60)"><text font-family="Calibri,Calibri_MSFontService,sans-serif" font-weight="400" font-size="41" transform="matrix(1 0 0 1 2553.92 1858)">Celular.</text></g><g clip-path="url(#clip61)"><text font-family="Calibri,Calibri_MSFontService,sans-serif" font-weight="400" font-size="41" transform="matrix(1 0 0 1 3004.56 1805)">Internet.</text></g><g clip-path="url(#clip62)"><text font-family="Calibri,Calibri_MSFontService,sans-serif" font-weight="400" font-size="41" transform="matrix(1 0 0 1 3004.56 1858)">Google forms.</text></g><g clip-path="url(#clip63)"><text fill="#FFFFFF" font-family="Calibri,Calibri_MSFontService,sans-serif" font-weight="700" font-size="64" transform="matrix(1 0 0 1 176.043 1989)">10. </text></g><g clip-path="url(#clip64)"><text fill="#FFFFFF" font-family="Calibri,Calibri_MSFontService,sans-serif" font-weight="700" font-size="64" transform="matrix(1 0 0 1 176.043 2071)">Seguimiento </text></g><g clip-path="url(#clip65)"><text fill="#FFFFFF" font-family="Calibri,Calibri_MSFontService,sans-serif" font-weight="700" font-size="64" transform="matrix(1 0 0 1 176.043 2154)">del proyecto.  </text></g><g clip-path="url(#clip66)"><text font-family="Calibri,Calibri_MSFontService,sans-serif" font-weight="400" font-size="41" transform="matrix(1 0 0 1 617.227 1967)">½  dia</text></g><g clip-path="url(#clip67)"><text font-family="Calibri,Calibri_MSFontService,sans-serif" font-weight="400" font-size="41" transform="matrix(1 0 0 1 961.387 1967)">20 de julio</text></g><g clip-path="url(#clip68)"><text font-family="Calibri,Calibri_MSFontService,sans-serif" font-weight="400" font-size="41" transform="matrix(1 0 0 1 1317.75 1967)">20 de julio</text></g><g clip-path="url(#clip69)"><text font-family="Calibri,Calibri_MSFontService,sans-serif" font-weight="700" font-size="41" transform="matrix(1 0 0 1 1723.6 1967)">10.1 </text></g><g clip-path="url(#clip70)"><text font-family="Calibri,Calibri_MSFontService,sans-serif" font-weight="400" font-size="41" transform="matrix(1 0 0 1 1805.52 1967)">Actualizar la lista de actividades diarias con </text></g><g clip-path="url(#clip71)"><text font-family="Calibri,Calibri_MSFontService,sans-serif" font-weight="400" font-size="41" transform="matrix(1 0 0 1 1723.6 2020)">las nuevas oportunidades de mejora.</text></g><g clip-path="url(#clip72)"><text font-family="Calibri,Calibri_MSFontService,sans-serif" font-weight="400" font-size="41" transform="matrix(1 0 0 1 2553.92 1967)">Computadora.</text></g><g clip-path="url(#clip73)"><text font-family="Calibri,Calibri_MSFontService,sans-serif" font-weight="400" font-size="41" transform="matrix(1 0 0 1 3004.56 1967)">Internet.</text></g><g clip-path="url(#clip74)"><text font-family="Calibri,Calibri_MSFontService,sans-serif" font-weight="400" font-size="41" transform="matrix(1 0 0 1 3004.56 2020)">Procesador de textos.</text></g><g clip-path="url(#clip75)"><text font-family="Calibri,Calibri_MSFontService,sans-serif" font-weight="400" font-size="41" transform="matrix(1 0 0 1 3004.56 2073)">Canva.</text></g><g clip-path="url(#clip76)"><text font-family="Calibri,Calibri_MSFontService,sans-serif" font-weight="400" font-size="41" transform="matrix(1 0 0 1 3476.5 1967)">$350 del internet.</text></g><g clip-path="url(#clip77)"><text font-family="Calibri,Calibri_MSFontService,sans-serif" font-weight="400" font-size="41" transform="matrix(1 0 0 1 3829.84 1967)">Director</text></g><g clip-path="url(#clip78)"><text font-family="Calibri,Calibri_MSFontService,sans-serif" font-weight="400" font-size="41" transform="matrix(1 0 0 1 617.227 2129)">11 días</text></g><g clip-path="url(#clip79)"><text font-family="Calibri,Calibri_MSFontService,sans-serif" font-weight="400" font-size="41" transform="matrix(1 0 0 1 961.387 2129)">21 de julio</text></g><g clip-path="url(#clip80)"><text font-family="Calibri,Calibri_MSFontService,sans-serif" font-weight="400" font-size="41" transform="matrix(1 0 0 1 1317.75 2129)">31 de Julio</text></g><g clip-path="url(#clip81)"><text font-family="Calibri,Calibri_MSFontService,sans-serif" font-weight="700" font-size="41" transform="matrix(1 0 0 1 1723.6 2129)">10.2 </text></g><text font-family="Calibri,Calibri_MSFontService,sans-serif" font-weight="400" font-size="41" transform="matrix(1 0 0 1 1805.52 2129)">Crear y publicar constantemente más </text><g clip-path="url(#clip82)"><text font-family="Calibri,Calibri_MSFontService,sans-serif" font-weight="400" font-size="41" transform="matrix(1 0 0 1 1723.6 2182)">contenido con la informacion de </text></g><g clip-path="url(#clip83)"><text font-family="Calibri,Calibri_MSFontService,sans-serif" font-weight="400" font-size="41" transform="matrix(1 0 0 1 1723.6 2235)">concientización y lista de acciones. </text></g><g clip-path="url(#clip84)"><text font-family="Calibri,Calibri_MSFontService,sans-serif" font-weight="400" font-size="41" transform="matrix(1 0 0 1 1723.6 2288)">En el grupo vecinal de WhatsApp y en redes </text></g><g clip-path="url(#clip85)"><text font-family="Calibri,Calibri_MSFontService,sans-serif" font-weight="400" font-size="41" transform="matrix(1 0 0 1 1723.6 2341)">sociales.</text></g><g clip-path="url(#clip86)"><text font-family="Calibri,Calibri_MSFontService,sans-serif" font-weight="400" font-size="41" transform="matrix(1 0 0 1 2553.92 2129)">Computadora.</text></g><g clip-path="url(#clip87)"><text font-family="Calibri,Calibri_MSFontService,sans-serif" font-weight="400" font-size="41" transform="matrix(1 0 0 1 2553.92 2182)">Celular.</text></g><g clip-path="url(#clip88)"><text font-family="Calibri,Calibri_MSFontService,sans-serif" font-weight="400" font-size="41" transform="matrix(1 0 0 1 3004.56 2129)">Internet.</text></g><g clip-path="url(#clip89)"><text font-family="Calibri,Calibri_MSFontService,sans-serif" font-weight="400" font-size="41" transform="matrix(1 0 0 1 3004.56 2182)">WhatsApp. </text></g><g clip-path="url(#clip90)"><text font-family="Calibri,Calibri_MSFontService,sans-serif" font-weight="400" font-size="41" transform="matrix(1 0 0 1 3004.56 2235)">Redes sociales.</text></g><g clip-path="url(#clip91)"><text font-family="Calibri,Calibri_MSFontService,sans-serif" font-weight="400" font-size="41" transform="matrix(1 0 0 1 3004.56 2288)">Contenido digital.</text></g><g clip-path="url(#clip92)"><text font-family="Calibri,Calibri_MSFontService,sans-serif" font-weight="400" font-size="41" transform="matrix(1 0 0 1 617.227 2392)">11 días</text></g><g clip-path="url(#clip93)"><text font-family="Calibri,Calibri_MSFontService,sans-serif" font-weight="400" font-size="41" transform="matrix(1 0 0 1 961.387 2392)">21 de julio</text></g><g clip-path="url(#clip94)"><text font-family="Calibri,Calibri_MSFontService,sans-serif" font-weight="400" font-size="41" transform="matrix(1 0 0 1 1317.75 2392)">31 de Julio</text></g><g clip-path="url(#clip95)"><text font-family="Calibri,Calibri_MSFontService,sans-serif" font-weight="700" font-size="41" transform="matrix(1 0 0 1 1723.6 2392)">10.3 </text></g><text font-family="Calibri,Calibri_MSFontService,sans-serif" font-weight="400" font-size="41" transform="matrix(1 0 0 1 1805.52 2392)">Publicar las invitaciones a movimientos </text><g clip-path="url(#clip96)"><text font-family="Calibri,Calibri_MSFontService,sans-serif" font-weight="400" font-size="41" transform="matrix(1 0 0 1 1723.6 2445)">sociales a favor del agua.</text></g><g clip-path="url(#clip97)"><text font-family="Calibri,Calibri_MSFontService,sans-serif" font-weight="400" font-size="41" transform="matrix(1 0 0 1 1723.6 2498)">En el grupo vecinal de WhatsApp y en redes </text></g><g clip-path="url(#clip98)"><text font-family="Calibri,Calibri_MSFontService,sans-serif" font-weight="400" font-size="41" transform="matrix(1 0 0 1 1723.6 2551)">sociales.</text></g><g clip-path="url(#clip99)"><text font-family="Calibri,Calibri_MSFontService,sans-serif" font-weight="400" font-size="41" transform="matrix(1 0 0 1 2553.92 2392)">Computadora.</text></g><g clip-path="url(#clip100)"><text font-family="Calibri,Calibri_MSFontService,sans-serif" font-weight="400" font-size="41" transform="matrix(1 0 0 1 2553.92 2445)">Celular.</text></g><g clip-path="url(#clip101)"><text font-family="Calibri,Calibri_MSFontService,sans-serif" font-weight="400" font-size="41" transform="matrix(1 0 0 1 3004.56 2392)">Internet.</text></g><g clip-path="url(#clip102)"><text font-family="Calibri,Calibri_MSFontService,sans-serif" font-weight="400" font-size="41" transform="matrix(1 0 0 1 3004.56 2445)">WhatsApp. </text></g><g clip-path="url(#clip103)"><text font-family="Calibri,Calibri_MSFontService,sans-serif" font-weight="400" font-size="41" transform="matrix(1 0 0 1 3004.56 2498)">Redes sociales.</text></g><g clip-path="url(#clip104)"><text font-family="Calibri,Calibri_MSFontService,sans-serif" font-weight="400" font-size="41" transform="matrix(1 0 0 1 3004.56 2551)">Contenido digital.</text></g></g></svg>