<?xml version="1.0" encoding="utf-8"?>
<!-- Generator: Adobe Illustrator 26.3.1, SVG Export Plug-In . SVG Version: 6.00 Build 0)  -->
<svg version="1.1" id="Layer_1" xmlns="http://www.w3.org/2000/svg" xmlns:xlink="http://www.w3.org/1999/xlink" x="0px" y="0px"
	 viewBox="0 0 256 256" style="enable-background:new 0 0 256 256;" xml:space="preserve">
<style type="text/css">
	.st0{fill:#113E4C;}
	.st1{fill:#94D5DF;}
	.st2{fill:#9DD12B;}
	.st3{fill:#9CD12B;}
	.st4{fill:#9CD02B;}
	.st5{fill:#103E4D;}
</style>
<g>
	<path class="st0" d="M255.77,139.43c-0.33,2.32-0.74,4.64-0.98,6.97c-2.25,21.8-7.41,42.7-19.56,61.31
		c-14.57,22.32-35.52,35.17-61.31,40.41c-20.01,4.07-39.99,3.4-59.82-1.46c-0.24-0.06-0.46-0.17-0.94-0.35
		c0.59-11.07,2.33-21.98,5.57-32.91c-10.65-1.24-20.41-4.65-29.45-10.73c-3.94,15.91-9.25,31.07-17.46,45.26
		c-11.58-6.27-22.51-13.16-32.48-21.51c-13.42-11.24-24.58-24.28-31.61-40.5c-9.49-21.89-9.5-44.22-2.72-66.75
		c5.1-16.96,13.32-32.34,24.33-46.22c0.82-1.04,1.71-2.02,2.68-3.15c16.8,9.4,31.35,21.23,42.76,37.46
		c5.1-11.11,9.99-21.77,14.91-32.48c-15.37-16.2-27.46-34.4-35.94-55.47c6.46-2.31,12.63-4.67,18.9-6.72
		c13.41-4.39,27.14-7.15,41.29-7.36c33.91-0.52,60.54,13.5,80.29,40.78c11.55,15.96,19.01,33.78,22.95,53.07
		c0.1,0.47,0.09,0.97,0.14,1.56c-12.85,5.06-26.01,8.58-40.19,9.63c4.88,10.42,9.76,20.57,11.34,31.93
		c21.96-7.51,44.26-11.26,67.31-9.75C255.77,134.77,255.77,137.1,255.77,139.43z M124.27,23.54c-0.52,1.08-0.92,1.88-1.29,2.7
		c-4.06,8.91-8.09,17.84-12.18,26.73c-10.97,23.82-22,47.61-32.93,71.45c-5,10.91-7.94,22.29-5.6,34.35
		c3.98,20.51,15.76,34.92,35.51,41.67c19.52,6.67,37.69,2.96,53.18-10.84c12.86-11.46,18.67-26.14,17.58-43.42
		c-0.52-8.26-3.35-15.9-6.85-23.27c-11.45-24.15-22.99-48.25-34.51-72.37C132.92,41.63,128.66,32.72,124.27,23.54z M39.12,86.1
		c-0.23,0.14-0.45,0.29-0.68,0.43c-0.06,0.97-0.2,1.94-0.18,2.91c0.28,12.29,0.21,24.61,0.96,36.87
		c0.94,15.31,3.89,30.28,9.78,44.56c1.36,3.3,0.39,6.18-2.37,7.39c-2.89,1.26-5.83,0.01-7.01-3.57c-2.63-8.03-5.47-16.04-7.32-24.27
		c-3.95-17.59-4.8-35.53-4.56-53.52c0.01-0.87,0-1.73,0-3.31c-0.72,1.07-1.05,1.5-1.32,1.97c-5.59,9.88-10.05,20.22-12.84,31.25
		c-6.21,24.54-3.23,47.63,11.16,68.83c9.99,14.71,23.36,25.81,38.21,35.28c1.5,0.96,3.05,1.83,4.73,2.84
		c0.72-1.53,1.32-2.7,1.83-3.92c4.41-10.42,7.96-21.12,10.34-32.2c0.36-1.67,0.07-2.74-1.09-3.98
		c-11.45-12.15-17.23-26.67-17.5-43.31c-0.17-10.59,2.92-20.49,7.25-30.02c0.81-1.79,0.74-3.16-0.36-4.81
		c-5.3-8.05-11.63-15.17-18.94-21.42C45.97,91.3,42.5,88.76,39.12,86.1z M124.54,233.34c1.01-0.27,1.42-0.32,1.76-0.48
		c9.17-4.5,18.51-8.68,27.45-13.59c16.02-8.8,30.99-19.1,43.17-32.99c2.08-2.37,5.18-2.5,7.35-0.56c2.11,1.89,2.38,5.07,0.17,7.34
		c-4.75,4.87-9.46,9.84-14.65,14.22c-15.15,12.8-32.32,22.43-50.17,30.89c-0.86,0.41-1.71,0.84-2.68,1.32
		c0.38,0.28,0.5,0.44,0.64,0.47c0.49,0.09,0.98,0.18,1.47,0.2c11.49,0.44,22.93,0.06,34.22-2.41c25.17-5.49,44.54-18.89,57.03-41.71
		c6.94-12.69,10.79-26.38,12.99-40.59c0.66-4.24,1.1-8.5,1.68-13.05c-1.2,0-2.01-0.06-2.81,0.01c-5.71,0.48-11.43,0.86-17.12,1.52
		c-11.93,1.39-23.5,4.32-34.7,8.61c-0.68,0.26-1.3,1.34-1.46,2.14c-0.53,2.68-0.66,5.45-1.25,8.11
		c-5.98,26.84-25.87,45.78-53.09,49.98c-4.41,0.68-6.24,2.33-6.94,6.39C126.79,223.79,125.63,228.35,124.54,233.34z M201.18,81.85
		c-7.03-19.28-17.35-36.31-33.62-49.23c-10.16-8.07-21.64-13.3-34.72-15.63c0.19,0.79,0.21,1.22,0.38,1.57
		c4.18,8.76,8.35,17.53,12.62,26.25c0.39,0.8,1.28,1.53,2.11,1.91c13.64,6.29,26.2,14.35,38.17,23.34
		C191.23,73.89,196.17,77.92,201.18,81.85z M94.26,64.64c7.55-16.61,14.88-32.72,22.34-49.12c-17.25-0.11-33.23,3.83-49.17,9.64
		C74.63,39.54,83.21,52.62,94.26,64.64z M154.41,61.49c-0.15,0.15-0.3,0.29-0.46,0.44c5.97,12.48,11.93,24.96,17.97,37.41
		c0.26,0.53,1.33,1.02,1.96,0.96c5.19-0.55,10.39-1.08,15.54-1.94c3.7-0.62,7.33-1.72,11.56-2.75
		C186.25,82.34,171.07,70.9,154.41,61.49z"/>
	<path class="st1" d="M124.27,23.54c4.39,9.19,8.66,18.09,12.91,27c11.51,24.12,23.06,48.22,34.51,72.37
		c3.5,7.38,6.33,15.01,6.85,23.27c1.09,17.28-4.72,31.96-17.58,43.42c-15.49,13.8-33.66,17.51-53.18,10.84
		c-19.76-6.75-31.54-21.16-35.51-41.67c-2.34-12.06,0.6-23.44,5.6-34.35c10.93-23.84,21.96-47.63,32.93-71.45
		c4.1-8.89,8.12-17.82,12.18-26.73C123.35,25.42,123.75,24.62,124.27,23.54z M169.2,149.47c-0.18-1.75-0.38-4.99-0.9-8.17
		c-0.56-3.37-3.19-5.08-6.32-4.41c-2.74,0.58-4.17,3.13-3.7,6.33c1.96,13.31-0.53,24.96-12.29,33.24c-0.97,0.68-1.69,2.07-1.99,3.26
		c-0.53,2.12,0.36,3.94,2.24,5.12c1.97,1.24,3.93,1.01,5.83-0.28C163.96,176.5,168.95,164.94,169.2,149.47z"/>
	<path class="st2" d="M39.12,86.1c3.38,2.66,6.85,5.2,10.11,7.99c7.3,6.25,13.64,13.37,18.94,21.42c1.09,1.66,1.17,3.02,0.36,4.81
		c-4.33,9.54-7.43,19.44-7.25,30.02c0.27,16.64,6.06,31.15,17.5,43.31c1.16,1.24,1.45,2.32,1.09,3.98
		c-2.38,11.08-5.93,21.77-10.34,32.2c-0.51,1.21-1.12,2.39-1.83,3.92c-1.68-1.01-3.24-1.88-4.73-2.84
		c-14.85-9.47-28.22-20.57-38.21-35.28c-14.39-21.2-17.37-44.29-11.16-68.83c2.79-11.02,7.25-21.37,12.84-31.25
		c0.27-0.47,0.6-0.9,1.32-1.97c0,1.58,0.01,2.44,0,3.31c-0.25,17.99,0.61,35.92,4.56,53.52c1.85,8.22,4.69,16.24,7.32,24.27
		c1.17,3.58,4.11,4.84,7.01,3.57c2.76-1.21,3.73-4.09,2.37-7.39c-5.89-14.28-8.85-29.25-9.78-44.56
		c-0.75-12.26-0.68-24.58-0.96-36.87c-0.02-0.97,0.12-1.94,0.18-2.91C38.67,86.39,38.9,86.24,39.12,86.1z"/>
	<path class="st3" d="M124.54,233.34c1.09-4.99,2.26-9.55,3.06-14.17c0.71-4.06,2.54-5.71,6.94-6.39
		c27.22-4.2,47.11-23.14,53.09-49.98c0.59-2.66,0.72-5.43,1.25-8.11c0.16-0.8,0.78-1.88,1.46-2.14c11.21-4.3,22.78-7.22,34.7-8.61
		c5.69-0.66,11.41-1.04,17.12-1.52c0.8-0.07,1.61-0.01,2.81-0.01c-0.58,4.54-1.02,8.81-1.68,13.05
		c-2.2,14.21-6.05,27.89-12.99,40.59c-12.48,22.82-31.86,36.22-57.03,41.71c-11.29,2.47-22.73,2.85-34.22,2.41
		c-0.49-0.02-0.99-0.11-1.47-0.2c-0.14-0.03-0.26-0.18-0.64-0.47c0.98-0.48,1.83-0.92,2.68-1.32c17.85-8.47,35.01-18.09,50.17-30.89
		c5.19-4.38,9.9-9.35,14.65-14.22c2.21-2.27,1.94-5.45-0.17-7.34c-2.17-1.95-5.26-1.82-7.35,0.56
		c-12.18,13.9-27.15,24.19-43.17,32.99c-8.94,4.91-18.29,9.09-27.45,13.59C125.95,233.02,125.55,233.06,124.54,233.34z"/>
	<path class="st3" d="M201.18,81.85c-5.01-3.93-9.96-7.96-15.05-11.79c-11.98-8.99-24.53-17.05-38.17-23.34
		c-0.83-0.38-1.72-1.11-2.11-1.91c-4.26-8.72-8.44-17.49-12.62-26.25c-0.17-0.36-0.19-0.78-0.38-1.57
		c13.08,2.33,24.55,7.56,34.72,15.63C183.83,45.54,194.15,62.57,201.18,81.85z"/>
	<path class="st3" d="M94.26,64.64c-11.05-12.02-19.63-25.1-26.83-39.48c15.94-5.81,31.92-9.75,49.17-9.64
		C109.14,31.92,101.82,48.03,94.26,64.64z"/>
	<path class="st4" d="M154.41,61.49c16.66,9.41,31.84,20.85,46.58,34.11c-4.24,1.03-7.86,2.13-11.56,2.75
		c-5.15,0.86-10.35,1.39-15.54,1.94c-0.63,0.07-1.7-0.43-1.96-0.96c-6.04-12.44-12-24.93-17.97-37.41
		C154.11,61.78,154.26,61.64,154.41,61.49z"/>
	<path class="st5" d="M169.2,149.47c-0.25,15.47-5.24,27.03-17.12,35.08c-1.89,1.28-3.85,1.52-5.83,0.28
		c-1.87-1.18-2.76-2.99-2.24-5.12c0.3-1.19,1.02-2.58,1.99-3.26c11.76-8.28,14.25-19.94,12.29-33.24c-0.47-3.21,0.95-5.75,3.7-6.33
		c3.13-0.67,5.76,1.04,6.32,4.41C168.82,144.49,169.02,147.73,169.2,149.47z"/>
</g>
</svg>
